<mxfile host="app.diagrams.net" agent="Mozilla/5.0 (Windows NT 10.0; Win64; x64) AppleWebKit/537.36 (KHTML, like Gecko) Chrome/140.0.0.0 Safari/537.36" version="28.2.3">
  <diagram name="PÃ¡gina-1" id="udu5h3v7jLmgw6OtQyX4">
    <mxGraphModel dx="2216" dy="968" grid="1" gridSize="10" guides="1" tooltips="1" connect="1" arrows="1" fold="1" page="1" pageScale="1" pageWidth="1169" pageHeight="827" math="0" shadow="0">
      <root>
        <mxCell id="0" />
        <mxCell id="1" parent="0" />
        <mxCell id="89SLdfj72g9WCDIySqj1-1" value="" style="shape=image;verticalLabelPosition=bottom;labelBackgroundColor=default;verticalAlign=top;aspect=fixed;imageAspect=0;image=data:image/png,iVBORw0KGgoAAAANSUhEUgAAAesAAAEmCAYAAABChbjLAAAAAXNSR0IArs4c6QAAAARnQU1BAACxjwv8YQUAAAAJcEhZcwAADsMAAA7DAcdvqGQAAO8mSURBVHhe7P3HkyRpup+LPZ9r99CRWlRlidY9rWbmzBmcg2tG0EjiYEUzbmhG8hKXh3/AXXDH1dmQG+JCEWY044Jm3GMDYAeY4YIH94gR3TPd092lq1KLyNDhWn1ceESkqOruqlYlxp+0Lz0zwsPdw0P8/H2/V4i//Mu/lP/sn/0z6vU655EAAiSy+E9KcinJs4wsy0jylCSLiNNiRFlAlAfEaUSaJmR5SpZn078zZJ6TyxwpQSIu7GuOEAghURRQFBVV1dFUDVUo6JqBqRoYmoWlWRiqhaHbaIqBLjQ0TUNVVBRFBaEUB49AyOIvKeW53XzF/ktKSkpKSl4gdnZ2+Df/5t8g/vIv/1L+83/+z2k0GvM75fQnJ0eSk+QxURwSRiFRHBHHMUkaE6cxSZaQ5xnFTwpCIhRRiKymIhSBoigoikARCoqigCiE9CKSPJdImZPnGXmek2U5eZ4XFwhphiIVBKIQZVQ01UBX9ULIDQPDMLFMC8uw0VUDBY3iEQIpQZzbZynYJSUlJSUvOjs7O/yrf/WvHhfrmVCnMsGPfYLEZ+KN8AKXJI3JZIYkR1EL4S2GiqJoKIqGUApxLMTwoiCKM+P2GZFIWYw8T0nzdCrohahLKZGZRBEKhmbimA5Vp07FqWEbNjoaAhUhlfkWS7EuKSkpKXnRmYn1VL1mdnRKSoQbDzkeHLBz9JDt/Yd0eh2iNEbRNEzboVKtU6nUcZwatlXFNGx03URVVZSpC1rKmVgrxZDFUjzzKH4UoaAqKppmYBoWtlWh4tSoTo/FrlTRDIMkT+lP+uwe7fBw/wEHp3sMwwGxDMhFihT59BriW185/IhMpyCmo/i5eOuTeJp1Ci7eO9tDsZeSkpKSkhcFZfYVncmEIHXpTTrsdh6xc/SAgXeKMKDWqlFrNLArNUzTQdMsFGGgoCPQiiHPzRMLUXi6fxDE2T7RUTBQVRPTsHHsKpVqlWqjhl7RGYVDdo4fsXv8kM7wGDeekJIgyV8COZod4ZlQny2/WpAv//3Vwnv50RfX++rHlZSUlJT82KgfffThX/0v/1f/c1ISOsMTjrtHuIGHYZvUG01M00ZVNZACZGHlTiPP5k7umUv53L0X/oZCC87r98ytfT7wi690Txe3yfmv4raZq/1sLlogpvPium5g2Ta6phMEPp7vk2Yxqqqi6wbK1Gq/eFQ/DudlMj+3TOV05BDngjiTRCnz4Sc5QSKLEUv8OCe4MGSxTHOiVBClkKSQZJBmglRCJiGXkAuBFGIe7Cef+OqVlJSUlDxPRqMRv/rVrxD/3V/+H+X/7f/+V3iJS8/rgyqwHAdN06df2gp5Bp7roaoqjuMgpcR1XeI4otGoo+v6NGjscWssy3IC3ydNUwzTIAgCFKEwmUzIZY5t27SaLXRDLyTiiWJd2Hl5nhP4AX4QUK/VsCzrwh7FJXuwEMSMLIuJw5AsTqlYNVYX1mlW22gYP6oo5XleeDFySSYhzSBJc9JMkmaSZBpUl2VZEUmf5eQ5yFyQA5nMiyA8RBGdn5892/kFkwCERBXFlIQiQBWgKgqqqhRLRaCpCpo2WyroKuiqmEbiCxRRCnZJSUnJ82YeYPa/+6f/W/l/+b/+98R5hGFb6KZ5Lv0JkApxFHN4cIhhGCy02viex8NHDxkMBnz004+wbYcsSzFNE03TSJKEJEmRshCe3d09RqMhW1tb9Pt90iThwcOHVCpVVldXuHnzJo7jkCQJmqZjmiZxHBPHEaqqYls2QsB4PGZ3d4+joyPee/89FhYWiaJiHdM0SNO02IauYZgGQlGmUW05Ms9I44TIj7AMm621a9StFgoz9/33x9xqlpDlM1GWRHFMEMVEcUySZKRpRppkhXjnkkwWj5zF5smpp0AIFaaW8JMC9y4yFXApiwh4KSHPzu6VOeTFvL0yjdTX1GLouoqh65imUQxDR1dBU0BVi+iDJ+394gVTSUlJScn3xVys/zf/+/+1/D//9/8t9WaTZn0BgQrKWdQ0UhD6IQ/uPyi+ibOc3UfbHB4dkeYZf/4P/yGj4ZCJ67LQbrO6tsbh4SGDwQApJbZl0Tk95bTT4U9+8SeMhiMG/T67u3u89fZbVGs1trauMpm4nJ52qNcbXL16lYP9fTqnp9iWxZtvvAHArS9vsbu7i+/7/M/+0T8iR7K/t0elWmVjfZ3RaMRx54QbN69z9doWpmVN586LPHGkJA5DPG/MxuIVNpa20IWBmMXZfUekLAQ3zXLCJCeMcrwgIYhS/DAhjDPiNCXJcgRgKAq6rmMaJpquo2kqQgEhcoSiTMX6nLtffNU0weNICsEurhym+e3TczA7ziTLiOOEOE5IkoQsSxFCoGkauqZhGjqOqVIxNRxLxbIULE1Fn4q8EOIJvpRSsEtKSkq+L2Zirb75k9f/6r0/eZf2wgK6Zs7nK+c/EjzX5dNPP+Vgf5/d7V1GgyFxnBKEIXmW8eWXX9LvDdjZ3ibPcm59eZvTTgfXddne3kFVFMIgolqpcOvLW+Rphu/72LbDzvYOiqKwu73LZDIhTVMUoXD3zl32dnbZ391DFSqdkw63b90uRCXNaLcX+OKLLzk8PKJ72qXf67O7s8P9Bw+4+doNFhcW0DTtwgzsLPAtzzMUVBrVJppSuN+fhicJU05hOQdJzsRP6Y18On2X075LdzBhMPZw/ZAozVBUjUq1SqvVYqHVotlsUK3WsGwbw9DRdR1VU1FVFVXViqGoZylyohDIpxmKOMtrV5XZNlVUrSggo+k6hmHi2A61apV6vU69Xse2HVRVIU1SgiDA83wmnsvE9XH9CC9ICeOcNBdIFFDEXJ1LC7ukpKTk+2U2Z62+9d6bf/XTX35Ao9lAU6ZzuJdcrWEQsv1om9FwhJDwD375D2i32xwdH+P7AXmWc2XzCr7rYZoWuqbz7rs/4cb1G3ROOqyvb9But1lZWeW002FzY5NGvcHS0hKdkw66VojUP/izP+P6tetkaYY7drF0kzgMUYRCFEasrKzw+uuvE3gBlmUxGg758IMP0XWd46NjbMtmbX2VX/7yl1i2de65MJdsKXOyPMXQrGLe+inF+rJQ50CS5XhhxGDs0um7HPc8TocBoyAlRUOzHJxqnVq9QaPZpFarYlkGmlrMJQMIIREU0XdCFC5wMZ0vnr0K33U8ibP7ixAzRUhURWBoKrZlUq041GpVHKeCZpjkQieIYORFDL0Yz48Io5gkS4vtKaIogHNuj1+175KSkpKSp2Mm1opAoEiIghBkXlQg4/w4y442VB1VUfFcH98PQIJhGIVbNc2o1erUqkXgV7VSxdQNdFUDKUnjhCxJkdOgKMF0OnlaWSyNMyajCf3egOOjE3a2dxj0B/h+iBAC0zSI4xjP9cjzHFUoMLX64yhG13Qsw8KxK2iqdk6AZzJbpD2laUocxuiqjnre3f8UFLPfkEhww5TD0zHb+132jof0xwGZVKjW6iwtLrK4sECj3qBScTAMA0URczd04TyejeJkPKV3+wfkcWlXFAXDNKhUqrSaTRYXF1hYWKRSrZHkgu7IZe+oz/ZBj5OuixdmpBefWUlJSUnJ94BiaBrNWoM0TkiS+NxX7fTrNocsySADx7QRCH7969/wxRdfAtButdF1neFwSBiFhXBnGUEQ4Ps+SEkUhHQ6HU6Oj5FSkiYJWZYRRxGaomLqJp7r8bd/87f87d/8HceHx7gTjzAI5+VJ7UqF7e1tPv30UyYTdz5n+vvf/Y79vT3qtRqqopKnOWEQFRcBUwWUYirUWUwUhhiqQaNaRxXn7cBvRgJxltMbuTza77Bz2GPkSzSrRaO1QrO9SLVWxTZ1NFWgzK9GzkS52OH0guX5K/TZQU1T85DTi4rp8QlmLvUictyyTGq1Os2FRWrtZVSrzsiX7B4N2D3sMRiHc8EuKSkpKfl+UHTVZHVhk6rVIPRDoigkk+m0cIgklxl+6BFEPkmegJB0eh0m3gSnapNTNOvY2dsmTRP80CeMQg6PDtg/2EeoCm7gMfEmHHeOUTUVN/AI4pDheIRu6oRJSJLFHBzu4/kuii4QKgzGQzRTJ0piJt6EKI0ZTcYoukJ/OECogok3IckSVF0lTEK8wOPw6IA4SaaWcE4mU+I0JPA8yGFlcZV6tTmNBH86ciDKck4HEx7udegNPexKncWlJWrVCrqmoIochbxwZSMLT0WeFUsyhMwgz5B5ipTT2+cjQ05HsbciA3tWK308GnL/3h12dx4Rhv6lbWTIvNg2eVrcl6cgs4vbPb/+pduK/aZIskJqZUYUeJx2jun3umRpDDJDUDxHTRGYuk6tVmNhYQHTcuj2JzzcPabT94jzsxzykpKSkpLvhvhv/7v/g/wf/uX/g1xNOTw9wI99dFPD0E001YQcuqddbt+6TZbnxaPk1CIU06ImcurHlZz7ei7WEUVK8JSzPOjpvZfWkRQyJxESlFm0sZgWUZlt5vzjp277WVEPVVNZXl3h2vVr6IZOksckWUgaJ+hoLDWXWW2vYwpzKtZPl7oV59AbuzzaP8WPBe32Io5tIfOM0HOZuBOyLMEybWr1JlmWMhoOkUClWkNRwPdc0jQpAsAUDSFUatUqqlrknSdJjFOtUqlWikI0FFZuGIT84Q+f8vd/97dcuXKFDz/4CNM0sSwTp1IhiiLCIERTVXKZkaQJiqJSq9XRNY2J65LEMZVKBcepEMcx48kYoapUK1VkljOZTFBVhWqthqbruOMxh/u7bO/s0Gy1efPNt0in23WcKrnM8QIXXTeo1xuoqo7nBwz6XSxT4+bVFRYbFpooznBJSUlJybMzT936p/+nfyr/xb/8H3DqNpNgQnfQYRKMybIUVVPRNB2hCJIkLaqDzet8i3PiOwveumhHCR5T6yczc1efW++b5LMQcQlIxOyiYdrSUwgQikKSpqRpiqYoVKwK7foCrVoLAwsxrWFW7Omb9gZ+Itk97nHcHVFrLlFxKihCEAYe9+7c4t7dOygCDNPi9ddfJwxDHj16hKIq1BsNLNMopgHynCAMsSwb07C4evUqhqlz7+490ixlaXmFt955h2azDUIgc8lgOOB/+uv/wme//4R3332XSqVK4AfYjs362jqj8Zhhf0Cj0WAw6BPGIaZls7GxQa1a5dGjhyRxzOLSEleuXGU4HLG7t4ftOCwtLuJ7HodHR1iWxcbGJtVqlYcP7nN0eEB/0GdldY211TV6vR6WadJut0mzjKOTY65c2eKtt9+hXm+SS4HrubjehKWGxfX1Npb+LP6LkpKSkpLzzFO3Pvzww7/6i3/yT3DMCqZuU3WqWKaJlDlxEhJnEVmegJKjakpRNEO3MAwDzdDRDR1dN4phXByGYaDr+tlt+vT/y8Mwijzj2famo3j849sttj1bT0PTVRQVcpGSyZQ0i0mzGCkzHN1mubHCSnuVut1Ex7zQKORphBogTKE3DkkyCktSUQEIfI/bt75gf2+XVrPB0dEBURTS6RyTJBGWZXDv7i0G/R6jwYCK47C3t4fMMrI0ZTIecXx8xBdffE4chfS6XRYXl1hcXESIorVnlmZ0T08Y9ro4tsVkPMbQVU47x3RPTxkPRyRxjGNZ3Lt3t/BCyJxer8vJySF3b39JHAWcdk4IfJ+jw2MUIWg2GpyenvD5F5/S657iuR7DQZ/JZMLB3i71eo0sTfF8l9FwiCJzFCE52Nvl5OQI153w+muvs7S0gq7rhcdA1chygUJGs2pjaM8WF1BSUlJScsY8GhxASIFAQUXFUh0Wq8tsrV7n+tprrNTXqag1RKISeRGT8YjRpIcbDIlTj1RGZETkxEiRIkWGpBg5GVLkxW3zUcyFP/5T9M4u7j+3jsin20uRpOQk5CIhEzFx5uGFY8bugNF4iO/6ZGGGhc1iZZlrKze4sfEaq+01KnoVDX1qTz+7rXfeBpcU5T9n9+imyfrGBq+/8SaNRhPf84ijiGvXrvHaa68DgjiKWVpe5vrNG6yurbKxucHCwgJBEHDa6eB73rQkqEo+m26gmAowDINmo0m90UDXdWrVGq+/8QatVovBcICiKqyurdJebFOr17h58wYb6xskSUrnpIPnTQPyEAz6fUbDoprcO++8TaXi0O/1yLIMVVGQeY7nuti2zZtvvsna2ioyL2afr127xpXNK0VEfRSzvLTM5uYmtl0EHs5+QCmmMeaVx0tKSkpKvguKqhQ1pGdftAoqGgaOUmfBWePa8mu8tvE211dvsthcRNc0oszHj0Z44RAvGOCFQ/xoTBR5xLFPnAQkaRE0luTFSPOYVMbkshDx/PzP9LaMjFSmpHlCmifF49OYOA2JEp8wdvGjCW44YhIMmAR9vGhIlHhoqqBVb3N15RqvbbzF9ZXXWa1uUNeaGJioaHOhPhOVp0dVBKamkaYpQRCRZZJcCqQi0HQDy6mgGjqqpmEZJrqmMegP6Ha7gMB2Kli2g6YbRWESXZ+WSTVptdusrKywvrHB9evXabXaxRFOG6coULQI1TR0wyRNU7rdblFYxnEwTBPdNBCagm4a2LaNpmtYpkWr1WZ5eZm1tTWu37jO2to6hmHQ7/c5OjomjmMWFhZYWSmEd2tri3a7DUCv18P3AzRdR1EUhsMhw9EIVVFxnMq0gIo2P0cyk4RBRBRGReEVpbSqS0pKSr4P1I8++uiv/uIv/gLTNM/dXNiQhaAJNEXDMm3q1TrNeot2fYGqVUMTJkquoeQKZII8y8nSlDzLyLJsOmcck6YxSRKTpglpVvwdRQGe75KmMVmWkCTR2Ygj0iQmS1PSNCFLU7IsQ6ZFiLGChi4MqlaDhfoya+0N1hY2WGwsU7OaWJqNItS5LF+0i78lSmFRe76P5wVFZTBVIc9zPN9H13TarQWiKKbVXsByHI5PTvA8n1arzfr6BtVqnVarTRwnNBpNLMuhWquyvLxCnCTkUqIbBq1WC0VRiOKIOI6I44QgCMjynKXFJcIwotvtomoaN268Rr3RoFqrU6nUiKKExcVlDMPGMG1WllfIsow8l9iWw+rqOqqm0znt4E6ryNUbDZI4RdE06o0mC4tLeL5Pr9tFIlhaWaFSqdDr90nTnIWlZRaXl6nWG6ysraMbBmma4fk+k8kQQ4eN5SZ1W3sB8sdLSkpKXl7mXbf+8i//Uv6Lf/EvqNfrl9eBC6k3xV9ympBTpERlZHlKksYkaUichSRZQpplpHlGKnOyLCXPE/JpfWqkJJc5rutysH/AyuoqrWZzHmSmKIWoKkJFU3U0VUNVVTRFRVM0dM3E0C001URTTDRR2MwzS/nsdxF8dsZ3E+scCLOM7sDnqDMmSjJ000bXdeIkQUhJxbKZuBN0QyPPc46PD8myjJWlZQzDIM8llmXjui6Grk9j30HTVTqdEzzPpVKpkKQpg0G/aMQhFKqVOq12C01VsK1iznowGFCvV2kvLBInKaqqoWk6rutOO6MVc926rnB6eoznurQXFlhcWMTzfI5OTtBNg6XFJdIk4eTkGFVTWF5exbIrDLpdxoMeluNQb7aQecbpaQdV0WgvLqMoClJArVYnzQpvQxSlWAasLTdZaTlYxbR+SUlJScm3ZB4N/k1izTnJE7OI7WmRj9nvQsDP5przmaNbSvI8mwp1MQ+b5zlSSk5OTvjbv/lb3n33Xd54842i+IkEZu0ZhVJYx0oRgX5mJxfpVmfLr5uBvhyF/u3FWk4FO85hNInpDcaMxj5pnqMbFhWngmXaCEVMM9umFwvTCm2Xg+LFvKHn7Mbi7zAM2N8vOovleY4QKo16k2vXrlFv1OeFSs6/KmebnV2qnN02y/eWyHNFWIp9F+vMLnPOP2IWejc9wunDhGQ6Cy3IsowoCgiCYn5e11Tq9RqL7RqNqoYuoNTqkpKSku/GM4n103FRGC/L5BlFmlXn9JT/33/5L6yurvJnf/7naKo2FX6eKKpnMnP5lh+H85KaAVEC40lIpztk5HqAhmVVMCwTzSi8AUIpZskFSuE4kPlX1BU9d7ZkTp6lZHk61XpRNPOYbq/gSdt40m0zvvrVeDKznHkxr/6W59ORZiRJQhT6hIGHIKfVqLG02KBetTD1QqQLSS8pKSkp+S7MxPqrjdJnZvb1XIyv/iksZsuwqFXr7O7sEYfx/L5ZANjl7c22+SLIgArYOiy2LG5srXJza41W3SSLJ/jjHpNBl8mojzsZ4XseYRgSRTFxmpPmkkxCPq++XgjyzGJFKKiajmFYGKaFaVpoWhHgVfD4efm68zGzoM8PHtu3gkQhlwqZFKTZWfvMKCwqv3mTMZNRn8moRzDpQxqw2Kzw5o1Nbl5bYallYU+F+tzOn/06oaSkpKTkMb5HsX42bNtmaWmJXq/H8fHx3D3+siAATUDFhJUFh9evrfLWa1dYX2lSc3QUMpIowPddXNdlNJkwHE8Yjl3Gro/r+fhBSBQnJGl67vnPhLQQ0O8j+UkKOR/z26Z9t+MkIYxivCBk4vmMJx6jicto7DKejJmMJ/ieSxIHKCKnVtG5strm7deu8Mb1FZbbFo4O2vQiZna03/2oS0pKSkpmfEU0+A/PLJ+40+kwHo/Z3NzEMIz5vOqT7MbnKQDnj+HycSmAqoBpKNRqFs1GlXrVoWob2IaGqSqoZJAn5GlIFgfEoU8cBURRQBSFhFF4ZoHHReW1OM1Is4wsz8kkZFKQS4qUMRRyKS4OivvTXJLlkjTNSdKMNEkLKzmKicKYMIgIgoAg8AmCgCj0iQKfJPLJ0wghE3Qlx9YFNUenWbNZaFZZXmiy3K7SrJlYhoKqPPm1OX9u5jeUlJSUlDwzTx0N/kMSBAG3bt3is88+46OPPuKtt9760S8avitP8vTO/hfFFDRZCmkGUZoSJylJmhInGWGSEiUpUZqTZDlpOo2Yp6i1Ljmru55LpiKeoSgq+jRPe+4eFyAQRZCflIipl0JQ/H0hnEwWJVo1TUHXVQxdxdQUTE1BN1QMXcPUdQxNRdNAEaCKYnmZy8//MaEuKSkpKfnW/AABZt+O2VVDp9Ph5z//OdeuXcOyrMurvdA8SawviNZUc5lGlM/WyXJI82KZScgySOKUOI6J4pgkTYiiBM/1OD45Yf/gED8IqNfqLC0t0Wg0MC3zLN0NgVCK1pazamiaWoivqmpouoah6xi6ga5PhVgpvAKzcd5rcNlavszsec+eL5fWO+d0n8YblJSUlJQ8Cy+MWKdpysHBAb/+9a8BeOutt7h69Sq1Wu1cUNWry2WhhyLFS0pJkiT0en12d/c4ODjE9T2q1SobGxusr6/TbDYxTRNVLYTw3JT0HCEe75v9xID0rxDkr+K8UPMEcT+7v7C9Z+GFJSUlJSVPzw8QDf7t0DSNtbU1fv7zn1OtVrl9+zYff/wx29vbuK5bVC77ngPPvu/tfRcuW7KiSDUnz1JOjo/47NPfsbe7zeJCk3/457/kH//j/wV/8vOfcmVzjVrVxtAVVEWgKQJNfXyoikCZurBn4/L+Lgvt0zBb/+se/+Kc5ZKSkpKXm+cu1gC6rrO5ucnPfvYzNjc36fV6fPLJJ/zmN7/h/v37DAYDoii60ODiaSi6T718kiGlZDAY8Pnnn9Ptdnn99df42c9/xvXr13AcmxfF4fB1Qn2ewrYuKSkpKfm2PLdo8PMIIVAUBcdxWFpaYmFhgSRJODg4YHd3l6OjI1zXJY5j0lmd8KkIn19+lTA/7gb+Jnl5fkgp8X2fe/fusb+/zzvvvMNbb71FxXEQolDpyxnn563c54l8wrHMXN/FcT7vIywpKSl5uXghosG/CiklaZpyenrKrVu32NvbQ1VVbNumUqngOA62bWOa5rxntqYVVcNmEdKzMRNwIcR8KIoyXyqKUnSI0rT57c+TJEl48OABH3/8Mevr6/ziF7+gUqlcXu2F4/xl0vM9gyUlJSWvDi9MgNlXMRPZLMvwfZ/T01N6vR7evCJYRJZlj4nvTJCZCvR5sT4v4jNx13Udy7IwTRPLsi4Mfdoa8scKdJNS0u/3+bu/+zt6vR7/+B//Y1ZWVp77BcTTMHN1n7f0S0pKSkq+Gy+NWHNOdPM8L9Kaoog4jvH9aVGPKCKKIpIkmbvJi7aQRc6xlEUTiye5zmfz4EXTDIGmaXMBbzabtNttGo1G0SNaO+vd/EOQJAn379/nk08+4Y033uDDDz9E1/XLq72QlGJdUlJS8v3zwov10zAT4/OizFfMX89uk1LOhTzLiqYUSZIQhiFBEOC6RXnQyWRCkiQoikKj0WBzc5ONjQ1qtdoPJtqj0YiPP/6Y4XDIP/pH/4hWq3V5lRea83PWJSUlJSXfnZlYvxABZt+WmWt7Nlc9m3ueWcdPGoZhzF3ejuNQrVZpNBq0222Wl5fZ2Njg2rVrXLlyBdsuek+fnp5yenrKYDAgSZL5dr5P93ie53S7XR4+fMjS0hKvvfba97r9H4NSqEtKSkq+X2YBZi+XGnxHzgeZPWnM5rINw6DZbPLuu+/yF3/xF/yTf/JPeOONN/B9n88//5zf//737O/vE4bhYxb8tyVNU8bjMVmWsbCwgKqW3aBLSkpKSgr+qMT665gJ9uXbDMNgZWWFDz/8kD//8z/nxo0bDIdDfve733Hr1i08z/teBDtJEiaTCaqq0mw2L99dUlJSUvJHTCnWT4mu6ywuLvKTn/yEDz74ACEEn376KXfv3iWO48urPzNpmhIEAbqu4zjO93IBUFJSUlLyalCK9TOgKAq2bXP16lV+/vOfs7S0xL179zg6OiLLssurPzVSSuI4JkkSbNtG1/XHrPySkpKSkj9eXnKxniUM/VijQNM0VldXef/99zFNk7t37zKZTJ5gDV9+/OUxXWvatCPLMhzHQdPUJ6z7NKOkpKSk5FXkJRbry0L1Q4+LqKrKwsICGxsb9Pt9Op3OJbG+/PjL4yKzdDLTNKYtLy+v/02jpKSkpORV5SUW6x+by+IoMU2D1dUVbNvi5OSYNE2eQTzPtiNlTpalSJmjGzpCKV3gJSUlJSVnlGL9TFwUa0UV1Bs1Go06g0GfOI4urfNNnK2b5Sl5nqFrGsq0YUdJSUlJSQkvn1hfFEEJSCmQ+fMZ5AqGZuE4NXw/Ikmyx9Z5mpHngjwrlorQkFJ5bJ2vHfJihbaSkpKSkleLl6jc6Eyoz6pPp2mK5wVEYQzPKXo6TVMePXzIvfv3+Yd//g+pN579POZZzuHhIQ8ePODGjRtcubL5DM/n7AJGCImu69RqtbKoSklJSckrwEtYG/yiWEsJnuez9+iAcd9F1/Sn17fvkVzmjMdjhoMhq2trWN+ibGsuczzXYzwZU6/VqdaqT937WSJBFGKdJAmWY/Lm269jOWZZ/7OkpKTkJWcm1i+ZG/wiaZLhjQIyD4zcxsgtjNz8UYclbZZrK7x+5Q1qWv2x+59mWNKm7SxybeUG7coi5jM9Dwt9OnJfYdz1yCL5dFPmJSUlJSUvBS+1ZT0auWzf2UWJddrNFigX57T/OJBIUZyX4WDEJBjzwU9/QqVpvXQRCSUlJSUlF3klLGumbmApcnKRz5d/bEOKHEmx/OO7WCkpKSl59Xnpxfo8shSqUqxLSkpKXkFeKbEuKSkpKSl5FXl1xLqMfC4pKSkpeUV5dcQakKIYJSUlJSUlrxKvlFjPEdPcY1FESn+bUeQunxtCwvRi4PK6T3zcM+5/lis9O/6L93/1fkuPQklJScmrzyso1kVjjDzPSPOULE/J8oxcFhHT+fS+LM+QMkciyWU+Xa8YucyKKHOZT//OyWWxXnHb2fr5ue1ImRf7mu9vdltKll1cP5fZpf3Njr7Yxtm6RQnR2TGf38Y0Fv7S8y8pKSkpedV46fOsH93ZQUk0Wq0WUinEMfBcDg4PGI5GqJqK41RYWVlG0zQ6nQ6j0QhN01laXKTRbNLv9zk+OkJKiaIqNBpNVleWGY/HBIHP0tIyUkp6/T6GYeD7PqPhEKGomIbBwuIizWaD0WhE56QDUtJsNVlYWGA8mXB4eEie5+i6RqPRoFarc3p6iuu6KIpCtVblyuYVTN1kOB5xfHJEGIY4jsPK8gqapnN8fMRwOEBVFQzDZHl5haWlJTRlWlZUCobDEa4/5oOfvl/mWZeUlJS8AszyrNWPPvror/7iL/4C81uUyXw+nNUGj6KYYW+EyBVs2y5EPM856ZzwX//rf+XRo0fT5yXQNJVHj7b55JOP8TyP09NTjo+PURSFBw8e8Nvf/IY0yzg+PuLhw4cYhsHde3f59a9/heXYRFHI3//q7xmNhty9e4dH29vouk6apei6znA44je/+S0nx8e4kwmn3VMkOTs72/zqV38/t5JVVcV1Pf7+7/+eo6Mj/MDn4aOHJGkCwOdffM79h/cJAp/Dg0NGowFBEPCb3/yahw/vkec5Ozs7DIcj1tbWsCxrfl7CMCJOIlbXVjAsrXSRl5SUlLzkjEYjfvWrX71itpeQSHKCMKDX7+JULN5//z1ef/01oijid7/7hCAI+elPf8rW1lX29nb5wx8+pdc/JUljbty8xuLiAru7u+zu7XB4dMCvfvMr/u7v/5b9g332D/bodDv0Bj1sx+bDDz/gvfd+QqNR586d2zx4cI8333yDn/30p2xsbCClZDgcEoYhN2/e5IMPPuDatWvkeY47cVlZWeX9999HCMHf/M3f8NtPfsPtO7dZWlri5z//E5qtJnfu3uHu/bt0uicYlslrr7+GZujs7O7gui6Xm2wVLvN8+s/F+56ElJIgCOh0OgyHw7PHlpSUlJS8MLxaYg3z4K44iel0Tnj06CFHR0d0Oh263S6bmxtsbGywsrqCZRkcHu4T+C6DQZe7d2+xs/OIWr1Ks9lA1VUkkvsP7vPFrS8Io5Bc5sRxRKdzwoMH99nd3eH45JiTkyNs2+LmzZtsbW3x0UcfsbW1BcB4MmFnd5ft7W0Gg8Hc3W7bNisrK6ysrnDa7XD/wT2SJGJjY4Pl5WWWV5bJZE6v3yUIA46OD7l15xbdXo9ms4lhGBefuZS4nsfx8THexCfLswv3X0ZKie/7fPnll/zH//gfuXPnDklSWPglJSUlJS8Or5hYn5mSEkkcx7iuRxTG5NNKnPOez/IsPCuXOWEYsru7x927d6lWKiwvL+M4DlevXqXRaPD555/T7/cLy1VKwihk4rr4vk86EzghpgFlOWmakqaF6ztLU3zPw/M84jieHsP0KKVE5ucjwafHeCl0TEqJ63o8ePCAw8N9FhZbVKuV+XMWALlkPBpz69Ztbt26TbfTJYmT4vk+ASklnuexs7PDnTt3ODk5Icu+XuBLSkpKSn58Xi2xPtdsyjItbty4yZ/8/Be8+dY7rK9vsLC4yN7ePg8ePGB3d5cwCFlbXaXiVFhZWeH9999nZWWFk5MTer0eQghWV1d59913URSFyWQMgGHoLC0tcfPGDTY3N1lYWGB5ZYUoDLl37x4PHjzg8z/8gaOjIxCCWq3G1atX2draol6vI6UkTRMm4wlHR0f0+31WV1a5eeMmmqazs7PD3t4eBwcHCCFot9s4ToXr16/zk5/8BMexODk5Jgj8cxcoAiEULNPGNC329w/49Pef8ejRNr7vP1GwhRDYts3q6ipLS0soSvF2eNK6JSUlJSXPj1cowMwqCqJISegHjEdjVlfWeOONN7FME9Mw0FSV09NTTjunDIdDFhYW+Mm7PwEp0HWdD97/gGq1Sq/bw3EqOI5DpVLlnbffwbZsFEXlxvUbCCnwfJ80TRmNRui6zvLyMmmacXx0zOnJKePJhGazSZ7ldDunSAmTiUscx6iKSrd7iud6TCYTsjTjww8+5K0330LmcHJ0TPe0h+u6bF25ypXNKyRJytrqOu+88y5pmhH4AWtr6zSbbYRQEAiiMEIKyRtvvYbjWHR7J+wf7BNHMZZtYZrmXJCZirWu6wRBwMHBAbVajevXr6PrOuJ5NAcvKSkpKbnALMDsFRJrGxQ5FSCDdqvN2to6tWoNoYBp6CwsLLCwsICu6aytrfHeT95jY32TWq3G2so6a2vrrCyvsra6xtLSMpsbm6yvrbO+tsHmxhW2rm5xbes6y8tLNOoNbMvCtm3a7TZXrlxldXUNXTdo1GvcuHGTratbNBoNmo0mlUoFx3JoNBqsrKyw2F4o7mu2eP3ma7z99ju0WwssLixSsR0s0+L61jXefeddlhdXWFhYYGN9k9XlVZaWVlhcXGahvYDjVBAUYh2GIWmWsHXjKitrS1SqNq7rcnRyzHg8RlVVDMNA07S5GEspGY/HHB0dUa/X2draKsW6pKSk5AVhJtavWJ51Ecl8vhjYLODs/L9z17EQj/9/jgtzxhduKY5DCPGYy1gAQoqztKnp3PjsPjh331cxP6ZiXQHMSqAIxPRuCUIgEAgpEFD0s/ZHfPCzIs86y1KG4xHb29vs7e2hqirr6+tcuXKFZrOJrusA9Pt9Hj58SL1e58aNG/PbS0pKSkqeL69MP+tnRkxFeSbMl///CopLhNmPgkABWSzPbi/WuiDGonA3i9k+vn43BfNjKv49u0SZy32xzXMPkczKkZ7dpmrFRczbb7/N+++/T61WY29vj08//ZRHjx7heR4ArVaL999/nxs3bqBp2tkGSkpKSkpeCF4psX5yqex5Ye1nGzPh/cpxbvvnxlywL2/vu47H9j/b39cgQFGKKYIrV67w3nvvsbW1RRiGfPnll3zxxRd0u12klJimWbq/S0pKSl5QXh2xPu+hfozHRe4bh5y6l792zPp1nN32TeL6rcdj+z63v29gFkjWarV48803ef/992k2m2xvb/Pxxx+zvb1NEASPufRLSkpKSl4MXh2xLvlGZlb25uYmH3zwATdv3sR1XT777DO+/PJLut3uPA+8pKSkpOTFoRTrP0IURaHZbPL222/z4YcfUqvV2N7e5rPPPmN7exvXdcuyoyUlJSUvEKVY/5ExC3ZTFGVeoe2DDz7g+vXrBEHAnTt3+PLLL+l0OqRpevnhJSUlJSXPgVKs/4gRQmAYBgsLC7z11lu899571Ot1dnZ2+O1vf8uDBw/wPK90i5eUlJQ8Z16iPGvORY/N8qzHPLq9Q+YLGrXG5QTrPyokkvFkTJSFfPjz96g0rCI27RnIsozRaMSjR494+PAhANevX2dra4tms3mhmEpJSUnJj8H5b3U5LTGRSchySZYLshxkLskR5Hk+77uAoEi0FQJFSFRFoKoCVQFVgHIuk/b819osVfZFYZZn/ZKJ9RlSSjzXY+/BIV43wtBmfZ3/OJHkxGmMWdV58yevYVa+XT9rKSVhGHJ8fMyDBw8YjUY0m022trZYXV3FcZwLJUtLSkpKfigkkCPJM0maZsRJRhQnhElKmGYkqSBJIc0kuYQkzQtPoCiqWSqIQqQVia4KdE3B1FUsXWBpCrquoxs6hqaiKBcvDL7F1+cPwksv1gBJkuAOPUI3eaoUpleb4krSckwaCzUU7budjyRJGA6H7OzscHR0hJSS1dVVrl69SrvdLnOyS0pKfhBmgpkDcQpeGOJ5IUGYEEUpcZKRyZwcgURFyqLglHisIuX5jeaFSY4sHqWApoCmadiWScWxqFUsLFMprO5SrL9/ivnUbygO8sfC93wS8jzH931OTk7Y3d2l3+9TqVS4du0am5ubpZVdUlLyvVLIaSHUfpDQ6Y8YTHziRILQEYqBquqomoqmaiiKglCKgFlVESgiR5mKdbEdQS4leQ55LslzSZZlpHlKlqVkaYLMUhSRYZsqS60a7UYFS1NRv+fv02/LTKxfwkYeFymimy/WD/mjHd8zs2IqtVqNVquFpmn0ej2Oj4+J4xjLsjAMoxTskpKS7wUJpBIG45C9ox69wZhcqlh2BadSdEK0LBPLNDAMHVVVpqPQgfMVnYv/i6qSqqKgTwXe0HVMQ8c0DUzTKHohSIHvR4wnPmkqMU0bXZtu89Ix/ti8xF23Sn5MhBCoqopt2zSbRfcw3/c5OjpiPB6jKMpjnbxKSkpKnhVJETg2GHs82jth5KU41Sb1RhvLsdE0DSlzkiQiiWOkzFEEpElMHEcgc/IsI4oj8jybB5DFUUwSxwgkQubEUUSSRAgFNE1FNwwss4phOESJpD+aIPMcx3LQtCIQ7XlSinXJM6OqKtVqlWazCUCv16Pb7RIEAZqmYRgGqqpeftgfPbPUt/JipuRpOHPicsFlNnMRP2nk33LM9nJ5e5f5unfu+fW/br2nwY9Tdg9OGLsR9eYC9VoNXVcRQpBlKYcH+zy8f5eD/T2Gwz4KOXu72xzs75NnKZ2TI3Z2HtE97aBpCn7gs/3oEYcH+yRJjOtOePDwHvsHe0RRhOPY6JqOIpTC6jYM0iRhNBximCZVx0B7zo7DUqxLnpmZle04Dq1Wi2q1ShiGnJycMBwOAbAsqww+mwp0nueEYchwOMTzPBRFKebYZsEwJSWXOBNLWfxIWQirlKS5JEkzojgjjDO8MMULElw/ZuwVY+RFjNyYkRsxmoQMJ8VyNAkZudF8vYkf4wYJQZAShClhlBEnOXGWk+Y5+VSB8+kx8ISLzeJY5Vyi5+7nC2s9HbPnPXADOr0xTrVBpVZHVZX59uI45g+f/Y7bt74gjgIO9nbJsoR7d+/guS4yz7h96wuGwx5HRwckSczB3j6npx3SJCFLMx5t3+fwcA/XndDr9ajX69RqNTRFRUyrO+qGgR9EKIpKs25jPGf7oxTrkm+NmBZTqdVqNBoNVFVlMBhwdHREEARYloVlWX+0c9mz9LfT01P29/c5PT1lOBwyGo3I8xxd18tpg5I5M6HKJCQ5RBn4sWAcZAzdhN44otP3OOmOOe1N6PZdeiOf/tBnOA6mQuwz9nxcN2TihbheiOuHuF7AxC/+9rwIP4hwvZCJHzLxAsaTgNHEZzDxGYx9ekOP7sClN/Toj0NGbowbZoSxIM5U0lyQci755lyr3svLb8NoEjDxQiynim5aF1oPp0nCwwf3yNKYmzdv0umckMYJnuexuXGFLMv4/e8/IQh8+r0eaZywv7/Pysoq77z9DpZlcuf2LVqtBuvrG/R6PWq1GgsLC+iaMT1yiaIoxHGMpiq0Gw7mc+4aXIp1yXdGURQsy6LZbFKtVvE8j/39fQaDAZqmYZomqlq4sF51pCwskCiK6Pf77O/vc3x8TJqm1Ot1LMtiMpnQ7/fxfX/upSgt7T9e8jwnyVKiOMHzIwYTn9O+T6fncXg64qTn0RtFjNyUSZgRJIIkVcilTi50pGogNAvVsNEMG92wMEwH03IwpsM0p0vLwbQrmFYF3SzWV3ULoZmgmuSKToZGnKnEqUKQCrwIJkHGyI3pj0J6A4/B2GfiRgRhRJwmyEyCLHKaUZhL67clTCS94ZhcCnTDRBHF5wMEaZqyu/OINI5YWV7hcP8ATVVRhMLmxiYyzzk42Kdeq9BqNllotxkORiwtLrGxsYHMcx5tP6TRqNNsNOn3BrQXFlhaWkbXz8Q6jmOGgyGOY7PQLC3rklcEcSliXAhBt9ul3+8TRVFRdEDX56L0KpJlGb7v0+/3OT4+ptPpEAQB1WqVjY0NlpeXaTabOI5DlmW4rstkMiEIAtI0RVXV0tL+I2BmQcepxA1SBm5Ep+9y2vfojnz6I5+JFxFEhctWUVQsy8S2Leq1Ks1GnUatSq1aREU7jo09jYw2TQPDKCKbzw9N09B1HUPX0TUdXdPQNB3D0DENA8s0sC0L27Ko2BZVp0KtWgzbMbEMHU0rXNF5lpEkMUEU4vkhrhcx9iImfowXZcQpSFGkUs3eyk/7jp6tpygaQRAycT1yKVA1FUXRQAiyLOPh/bvs7e4Q+CFRlLCxsYmqqiwtLtNsNEnThGazSaPZZHNjE1XT8LyA0WhEmiSkacJkPGE0niCEwrXrN2gtLKKoOjmSIIoYjUbILGF9qUWjqpdz1iWvFsq0/Wa73aZareL7PqenpwwGA/I8xzRNNK3Ii3wVOD8nPRPp09NT4jimUqmwurrK8vIylUplbkGbpkmtVsNxnKICn+cxHo/xPG8u2jNPRCncrxYSSLOMiR9y2h9x0hvTG4eMg5ww05DCRDMqWJUK1XoxvdSs1XAcG8sy0DUVVZkW6ziXojQbzG6/tN/Ze+m8xXv+cZeHMh2uO8L3J1iGTsWxqVQr1GpVdMMgCGMkGqrmkEgVL5K4fsLYCwnCkDzLURQFTVOfeExfhQA0VWAaFmGc4gcRcZyCECiqSpZlHB7s4U8m1GoN3nj9TW7efJ16vcHC4iJLi4voukaSJJiGyfr6OmtrG9MLB8nSUmFhC0VF0wyuXb/B5uZVDNMmyXJc32fiuiAkmyttVtoVLL04r8+TmVi/9EVRSl4spJSkacpwOGR/f5/9/X2SJGFjY4Otra1XovrZTKQHgwG9Xo8wDFGmXcwajQbVavVrn6OUkiQp5tpGo9FcrC3LYmFhgXa7jW3br8yFzfOhCH06W57d/nU87sQ9L3FPEp7Z9h6/Z4YEwiSn0x3SG7qEiUQKQY6AnKkFbWPbNrnMCQIfRQhsyyreK2lKmqbz95OguE9VFIIwJE1TTMvEME2Eok6PZTYtE5LEcXHBbJjomkYURWR5hmEYZFlOksTouoFlmeR5ThAE3Lt3l/FoxI2bN1heWUHXDdIsYzwacuvLW9SqdW7cuAkCojhGKAqKIsizBCEzqo7J6lKbVvXZoqklkEsYeSnd4YThyCNMMhRVR1FV9ne3ydKY9bVN2u1FDMMgzwovhKqqxElIGAXzKTohVIIgJM8yLNtCVTXCMCRNYjRNRyqCMIqJ4xCBxLYMFtsNFus2tn6xfvjz4pUpilLyYiEu5WXXajWiKOLw8JBerzePJtd1/fJDH0PO5sJeEKQs5rN6vR67u7scHx8jpaTZbLK0tES73Z5b0l933GLaotQwDCrTQg+KouB5Hv1+H9d1kVKi6/o3bqvkyZxFKhdR1WdOaHkuaemrxtkWLvLsgi2BNM856Y3YO+gR5hpmdQHNMHj48AGf/v4T7t3+kmG/h66r7G4/4rcf/5bdnW2kzDk6PuLLLz7n88//wP3793hw/x6PHj3A0HWi0OfT3/+Ozz77lCD0qddrmIZVyLmQJEnEHz77jE8+/g137twmDANknvG7Tz7m/v17hGHA7dtf8umnv6fb66JqKgf7e/z2t7/hs9/9jn6vS5Ym5HmKqik8fPiQnUcP+fi3v2I8HGBoCnduf8mtW1+Q5xnLK6s4lTpJrjAcu0RxQr1iY2rKk07NExEUAmnoChXbwnZsdE0jThI8z0cogkqtgVWpIRQNiQBFRSgaKBqKpqGbdhGcpupIoaJoOopukElBlGSkWUaSZHiej+u75NOLi+WFBquLDdo1A1Mvmn085WH/oJRu8JIfFCEEmqZRr9dptVpIKel2u3Q6ncJNZZrfOJf9Vbf/mMwCx8IwpNfrcXh4yMnJCVEUUa/X2djYYGlpCcuyLgSMPQ2zC5uZe7xSqczntGfu8TzPy0C0C8yShQoxzcnISclISIlJZEQsQ8LMx0tcvGiMG44ZByPG/pDRdAy9s79H/ohJUKzjRRP8yCVIPMI8IJExKTGpSMhEiiQFsqkMF69FIdVfHVoVpxlHJ0PCRNBoLRSvcxzy21/9HTuPHpKlCa43IYkjHjy4T+h7uJMJvuexv7vD7u42SRxxcnxEGAR0T08xNJWToyO2Hz2kd3rCaDBgaXGRZrOFUIs0pCgK+bu/+Z/Y2X5IEod4blHs49YXX5DnKXEcsruzQ56l9HtdJuMRDx7cJY5C8jRBZhlBEICESqXC3Tt3mIxHTEYjqpUqk8mY46Mj3MmE0XjM0vIy7XYby7TJc8l4PKFZs6l9C1+yEIVL3LZUGjWLaqWCqStYhoahKcgsJYki4sgnCooRBh6BP2EyGTIZj4r/A4/QdwkDjyjwiEOPNA5RZIppCOpVk9WlBpsrbdoNA9tQ0GbTDZcP6jlRinXJD85MXEzTnOdl+77P8fExo9EIYF797EVz+c7mpIMgoN/vc3R0xMnJCWEYUq1WWVtbY2VlZe6uflYhna1/fszS4SqVCnmeM5lMGA6HBEFAlmUoZZ42hV2cI2VOliWEiY8bT5j4Q0begMGkR9/t0Z90Gbg9hm6fsTdg7I2YeCPG/oRJMGbij5kEE9zQxQ0muOGk+D8Y4/ojRsF0+ANG3pCJN8KPJoSxR5xF5HkOUiCnk8gXZ4UvHm+S5fTHEak0sCwbXVVJ44DdB/dptRq8887bIHPcyYgw9Pnoww9oNhoM+gPcyZiFhSbvvvMOmqpy5coGhq6hKYLD/X2iwMOxLPIsZW11lYXlFRTNQAhJmsQ8uHeHhWaD11+7yXg8RFdVyCVvvPE6SRJhGjo/++lHBL7HyfER7mTEn/7i56ytrhIGIVmWUa3WaLdbnBwf41g2pmmwvr7OcDRgcWmRmzdv0uv3WFpcYnFhCUVVSdKcIIpZbFao2s8ePClmVjaFhWsZgmbdptmoU69VqVYcHMvE1FUMTUFTi8YckNE97XBycoTjWFimgT4Vecc2aFQrtJs1lhcarCy1WF6s0ayaWCpo0/3N9v2iUIp1yY+GmFrZs+pnqqoyHAzpdDqEYYhhGJim+UxW6Q/FeZHudrscHh7S7/dJkoRqtcrKygpLS0tP5e5+VsTUPW6aJtVq9bFAtMlkMg9E++MR7cJuzcnISIhkgBuN6Ls9upNTepMeA3fA2BvjBj5+HBDGEUmWkkuJEAqKoqGqGpphoBsGumFimhaGaWHoxf+6bqBpOpqqIRQFRNEAIk1S4jgmimPCKMIPAjzfxw1c3HCMH7vEMkIqGSjygmjPlhKIooSx6xLHMagqaZqwv7+Hbdm0Wi1c1yObWrLVWo3ADwjDQiwX2kV6ket6VKvFtJJhGIRhSBgGqLpKpVrl6rVrtBeWiswCIE1j7ty+QxyHqKqG77pUqzXSNGN5eZkkTZlMRti2Ra/Xn7/3F9oLBH7AeDwiy3OEAqqqsH+wh2WaxFHRF8D3/aKTlSIZT1w2rm7RbC0QhBGeN6Jqa6y0azjms4v1kxAUgmwYChVbo1Y1aFRtmvUKzUaVdrNKs1FhPOgyGfV58/XrbG2ssNiq0W5WadcdWnWLRtWgYquYurhgRX/3I/xhKMW65EdlJkS2XXw5VSqVed/sfr+PEALLstC0ogLB9/HhflbyPCeKogvFTPI8p1arsbS0xMJC4cL8IdOsZgJ8XrRt2wbA930GgwGTyYQ8z9E07Qc9lhcFKTOCxGMw6dIZHtMZHzP0+njJhEgm5IoEVUHTdTRTRzeLYCvdNDEME10zivs0HVXTiqHqqKqOomqoioqq6ahasY6m6WiGjmYYmEaREqUZxWMRgpycOIvwExc3GjP2B3jBhCiJAVBF8ZoIUXiLhFKkN+Z5hhfGeGFCEPicdk+pOlVazSZJktBsNsjznO5pF8/zWFlZplKt0Kg3aDZbRFFMrVZFyuI92Wq3Z3XOWFxe5tr1G9QbDYRQYVoz+9aXX7C/t0cURiwtLrG+uoaUsLy8TL3e4OTkhOPjI4QQ3Lx5E8d25lkcjm3TajcZT0YMh32SJGJ1ZZU8L6aGarUao/GAXq+LU62zuraJFCphHFGxVDZWWjRrNvr3UFx7JqazMbO4NQV0FQytGKYG3c4h3rjPza0rLLRqmJrAUIt+1ppSPO5MoIuWmbPLqxeRMhq85LkhZdGmbjwes7Ozw/b2NkmSsLm5yeuvvz7v8PVjMYvO7vf7nJyc4HkeqqpSq9Vot9s4jvPcUqpmc+Yzq2swGDAcDsmyDMdxWFlZYWFhAcMwfvRj+2GYhYPlSHLC3Gcw7jEYD/BDn0zmc/HTdR1FU0E5c0PPvnZnKFJwVrDyctiYeCxWXMyCGsX0SKY9kC+EkMni+PI8J01TkiQhTVIECoZmUK/WWagvULVrqBgIFCSCMJYM3YDecMJwNObg4AhF0WnU2yCgWqsRBj4nJ8doisra2ioSiaIILMvG930MwyCKwmn+tMZJ54TJeEyt3iCO4iKfOE0AMAydO3fuIBDcuHGT1268Rq3ewPU8arUaumFwcLBHt9elUa+ztrZOFIXs7x8gZU6z2cBxHE67p0RhiGXbLCwu4fshcZxg2xaHRwf0e13aC23WVldp1Gs0G1UWmzVqFRNjarl+n1x8DS8iZc4nH3/C3t4ev/zlL1ldXb3wuXj8E3LhlX0heWX6WZe8vMwCtw4PD7l//z6DwYClpSWuXbvG6urqD5q+JCXkeUYcx4zHY/r9PoPBACkl9XqdpaUlqtUq6gvWmGQWgNbtdhkOhyiKQrPZpN1uU6vV5oFuLyuFnZgT5xFuMKY7OaHnnZKmGbphYhsVDHVa2QpBLuRZ6Us4Z3sV7y9FgoKYxzfl51e9hJQSBE+Ye36SPFzcT5IlRHFEmHhASs2os1RfoVVdwNIcFKEiEGRAlKQMJyH9ccBwEhOnCkLRpu560FQFQy36Mxe9msU0Ner8NJEEUbjdAcIw5NYXX7Cz/YAkDgCoNxrohsXGxhW2tm7gONW5LTl/inJ6QUh+IQZMypw8z6ZLSZZLpCwi25O0iKaWMifLi4C7iqnRqju0ayZ1R0dX1QsXSd8ncv5aXdy+mHrHPvn4Yw4ODvjTP/3Tx8T6ZaQU65IXgpnVOBqN2N7e5vDwECEEq6urXLlyZZ6X/X0ym5Mej8cMh0Nc151bqgsLC9+YJ/28mXkCXNedH78QYt5gpdVqvTAxAE/PzJbOiLKQwaRHd9TBj3wUXWAaNppmoAoVgVJoFQIpLtvGnIkohVifF195dvf0j8cf/WSetN5sP8VvKXPSPCGOA9IoQRMqzdoCi81lqlYNDR1QkNOLhjiDMMrxggQ/CAmjhDTNyLJs6moGSTF/XlxFnAUjKopAUYocbSEESEkQBMRxADIHijgRTTcwTQtNK/rOS1nE0c9EOpeFh0DKnFxKZH72v8xnUe/FuRRQzF8rAkUITEPHsQ0cy8S2DCxToAmYXSr+kO+8J70aTKus/fa3v+Xk5IRf/OIXrKysvESfgSdT5lmXvBAUXzxnNcZt2yYIAk5OTuj3+wDz6mff9UM3E+nT09N53neSJFQqlXng2HmX94vK+XN2PhDN9/3HAtG+j/P2YzCThCgP6Y+7dIZHRNLHsi00zSKJMmQGqlJMj/jTAKwiQn46RXEuvKsYAiklge8TxXFRKjMMCcKAwWDIcDgijmMUtUih+/rzJJCysGA9zwPOHjPbV/G6qBiagWYopHk0dd1nWIaJrhoICre8AugKmDpUbYVGzaTZMKnXHGoVG8cxsaxizr0Q2qLYiZyJbFbkC6dpShwnJElaXJyo6rSAiI5EJQgiRqMxcRwXgXJhRBRNRxwRxzFpkpJkGVmekWc5UkpUIdCnZUlty8JxLGpVm1a9wmKrynK7ynLToV01qVkKtq6gXZgL/mE5e40vDikl+/v7hGHIxsYGlUrlG17XF58ywKzkhUI8oZPXLGXK9/3v1MlLSojjiE6nw+7uLr1ejzzP5+7uWTGTmbC9LB9uMY2yN02TSqWCbdsIIeaBaKNpl69Zn/EX+3lJcnKG7oDj3jGpTLBsG123yNKc8WhCnhRla2Wes/1om/39fSzLolJxnuC6LkiTmO3tbXr93nzapdM54dHDR4wGw6JSmG1hGmYREPbkzQCQy5zd3V3uP3iAYRpUazWUC77jwt1eRKArqKpWXCyEIYpQsEwLTdGmUl1cnojp66gIBV1RMHUF21KpOjq1ikGjatCoGTRrFvWaSbNm0qzZNKomtYpBzdapOgYVR6diaTizYerYpsZ40OX4YI92s8Ziu0HF1qnYGlVbL/bhmNSrBvVqse1W3Wah7rDQrLDYdGg3bFp1k1bdpFEzqDkajqliagq6OrXwX6D3VZ4Xr9EsBsZxnBf8ff/NlAFmJS8sctq96uTkhHv37tHr9Wi327z22musrq5imub8A/h1H8Q8z+dz0rMI1/NzvLP0K75hOy8DchqINvMe9Pt9+v0+WZbNK6w1Gg0Mo3CHvmjPNycjzkO2jx/Rm3RxKhV0swjO8jyPve0DFCnIZU7n5Jj7D+5j6AbvvvsuCMFkMmFxYYFms8lgOKDX65PnOY5jc//+A4Ig4PXXXkPXdR4+esTpcYf11TU2r15hdWONNEk47XZpNBssLi8x6A84Pj7Gsixu3LiBEIKd3R2++PwLgiDgz/7sz6hUKhwdHWFZFpsbm4xHQ7q9Pitrq2xubGBZFhkJnjfGVCyurl2lZS2gYkzF+rwzd24bTsfs/4LiUkYC6vxRM3c2xXXCOff29DYJX3xxh9u3b/PTn/6Ua9euMLvWvfzyFxcN54qBFNP3cyT5hRvOfBgvFkmS8Dd/8zdEUcTPfvYzFhYWXrj3+rNSusFLXlhmFmOtVqPZbKIoCr1ej5OTk6LPrKbNRWe2/ozzgjXrsT0rZnK+4pht288twvuHYPY8lHNlTCuVClJKJpMJo9GIIAjI86LJwixX+0VBIonSkP64T0aKZdmFexuB5/o8vP+I48MT9nb36PX6uBOPNMsIvIDD/QOOj0447XQZj8bcu3OP7mmXfrdPr9tnOBgiJRi6wXAwonvaBcCxHIIwZDJx6Zyc0u8NyLKcNE442N9n++E2e3v7aIrGyUmHnUc7RT5yllOr1jncP2R//4DD/SMiP+T+nXscHh2xuLjA4sIihl5E6Ms8R2aSaqWKY1RQeFKmw+w9OJPii+/JQrovuvmVaWlOZSqy6jSdaT4U6HY69LqnXNlYZ7HdQFUo5pUvjdk2zruxZwLOdHm2/xdTqJkGYD569AhFUVhfX597m15mSjd4yQvPbF620Whg20XqSqfTYTweA2BZ1oWUpZlId7tdTk5O6Ha7RFFEZdoF61nnpJMkmUeKj8fj+RxpmqYMBgPG4zH5NN85nHbfGgwG84A1OQ36yfMcIcR8rtDzvHkKlu/7MBXbWb/rOI5RFGXeG3u2zdm+vklkZ6Jtnitjmuf5vLiK7/sv3Jx2jiSRMWN3REaGrhsoRRw3vh+wv7NP5+iUPMt58803abXajEcT+t0+MpPUKjXSOCVLM7I0443X32CxvUgcJWiqxsb6BtVqnTAIMXST5cVlKtUqvh8wnkywLJt33n6Ha1vXSJOU8XA8XU4wdBNv4tFutVlZXiHPJIpUSJKUrc0tsjRjPBgRuD4bGxu8/c47NBtNlKlbXRaRYtSqVRy9+hVi/c2cCfYlQf2KoQDHRwcMeqdc2Vij3WyizOfYv2HM/gCgSGd70YUaIE1THj58iK7rrK+vT5t5vLjH+zSUYl3yUiCm/bLr9TqNRgNFURgMBpycnMznsg3DII5jOp0O+/v787aclUqFpaWlecWxZxWmyWTC7du3efToEa7rzjsfnZycsL29zcnJCaPRCCEE/X6fe/fu0el0OD09nXfTevToEb7vY5omnU5nfowPHz5kMpkQRRGKojAej9ne3ub4+JjhcEiapnQ6He7cuUOv1yMIAlRVnT+Pb2JmaauqOg9EsywLgCAIGA6HjEYjkiSZ9z2ePe75IMnyhKE7JEwCNF0vKokBQRBydHCI73ooimBpeZksTRn2B8RxUU2r0WhgTAMRVVVlc3MTTdfxvOJ1K/KKdQI/IJc5tl0U4AnDkDRJsCyTxaUlFEVwfHw0r2E/Ho9pNluoiortFFaa53qYpkme5dTqNdzJhCRKUBSFpdVlNq9uFIVsRJECFcUhSEm9WsfRv8qyflqe/vXJ85zDw0NGoxEbGxs0Go1v/fp+28f92KRpyr1797Btm7W1tQtTZt+GJ0edz6YpHn81nrz+GZfXfxpKsS55aZiJzqyTV6VSIQgCDg4O6HaLak+np6ecnp4C0Gq15oFjz2JJX2YwGHD37l3CMGR1dZVms4nv++zu7s7d9J1OZ+5iHo/HLC4uoqrqPA96d3eXyWSC4zjzlpqzMqvr6+vzWJH9/X1832dlZQVVVcnznOPjY46OjlhYWGBhYYFGoyhSMZtnf1rEuejxWSCaMu3y1e12GY1GyOfc5UtS5A0HcYAbukUVS1UrLGvP5/jwGIEgjmO2t3c42D9AUzWazQbhtF2pIgROpYIE2u12UXhnNCIMQ0aTMXGSkOc5MpcYuo5AkEzF3vVcHjx4wOnpadGg4viI8biIol5ZWcWxHfZ293i0/Yg0S1lbX8PzPB7cf8BgMGR1dQVN1ahUHVbWVrBsCwSkeUwQBjiWRbPexFLt7yjWPPVXfp7n7O/v43nedxLrb/OY50Ucx9y9e5dGo8Ha2hqGYVxe5amR06DCLM/JZE6WTyPw55H4GWkyXaY52fT2TGbk08fkeVE5AGa57c/ulyjFuuSlQ0yt7FmNcSEEg8GA09NTXNelWq2ysbHB4uLifE5a+Q7BVOPxmIcPHzIcDrFtm2q1OndV37x5k62tLYbDIaenp8hp+8xqtTp3OQshSNN03oQjjuN5fvRkMikim6cRyv1+n4WFBd5++21arRaGYczFWlEUNE3DcRxqtdpTWdaXEecsbdM0521KXdfl+PiYk5OTufX+vILQFCFQNEEUhUSRDyJHUYt4hb3dPZI4Jo4jjo+PiJKYWr2KaZmMxiO63aLFo2kYxElMkiZMJmNczyWKI8bjwosAkGUpWZ5NtxejqAoTd8LR8RFSSizLZDyeEAQBllWcK5CcdE7wPBfHsXGm0zLHx0eoqkqz2SBNYpI8w65WqNYcEDlh4KEqCsvNFZp2G03o02hwpqL7bcbTkU8jo8MwZHNzk1qt9qO/pj82URRx69YtlpaWWF1dfeyzctnyzYFMQppBlEr8KGcS5Iz9hKEb0R1F9MYh3WHIad+nM/Do9F06PZ9O3+Ok53LS8+gMXDoDj9Ohx+nQpzcK6I9C+pOQsZcy8lLcICeIJWEqSXJJKi9V3PuKl2ZYinXJy8rMSmy323Nhm7lyZ19GyjSI6rt8OU0mE/b39xFCsL6+TqvVwvd9RqMRy8vLVCoVTk5OcF0XVVUZTOt2d7tdDMOg2WwipaTRaCClpN/vo6oqURTNtzn7AnVdl0qlwvLyMlEU4brufNtLS0ssLi7SaDQuRLA/K7OI8SRJmEwmTCYT4jhGVVWyLKPb7TIej1GnrvNnnTb4LhQyJFA1BU0VJGlIlPrkWXHhkyYJhm5Sq9dYW19jc7N4PRzHYWFxgc0rm8V0R7VCtVpF0zV0XadSqdBoNFhcXKTdblGv16jVi3l8p+JQrVVxKkUxmY2NdZaWFqnXaywvL7OxsTF9jarYtsXi4iKbmxssLS1iWSbVWpX1tTVWVpYLAa84mI6NXalgWjp5HqOo0G61WKwtYysVFIp86W8/np7Z/G2WZWxublKtVn+01/N54Xked+7cmceoXBZrpoKdZUVXMNcPGLs+g5FHb+hyOvI5HQX0hh6DccTIT5kE4EUQJAphphBlGkmuk0iDBIOUYplIg1jqxJlKkCoESfE4N8wYuynDSczICxm7xT5d3yMIY6IonufJiydcJI/GI/7+78vUrZKXnFlQ2Xg8ns8TZ1mGOW3L2Wg0vnU1ssPDQ37/+99Tr9f56KOPsG2b/f19bt26hTbNb+71eti2jaZp9Pt92u02YRgShiGmaRLHMVeuXCHLMm7fvk21WiWYtrx866235iVNZ/nkCwsL8+Cv09NTjo+PuX79OqurqzQajXkk+7MyE+nxeMxgMJjPldu2Tb1eR0zn4g8ODlAUha2tLba2tn7EL3g5dYZnJCSM/SH9SZexO2HieSRJVjTimPZqnjsTZ9OHcnrL9FjPfp+rcCbPuSNneU7TwKn5KtO1LzsrJedyosS52uGz+3JZlK9NE4QCtln0YF5oLNCqtbHVCir6MwvudyEIAv7zf/7PqKrKz3/+81cijemb2Nvb46//+q/58MMPef311+du8OLdBXEKEz9kNPbxgpgkLbqzSSmKoaggFIQoLvZVtYidUIRaeOpUZfryF8snkeWzUq2SbLrMs8JNLmVGnqVImSJkPg2hlKgCTLOoCNeoV6jYBlrRj4Xd3R3+9b8sU7dKXnLEtJiK4zjzDlVy2lZyMBjM3dGzKOpn+bJK0xRgnpetaYW1pqoqQRAQRRHtdputrS3q9TrNZpPr16+ztLQ0d123Wi3W1tZoNpvouj7v651PyzrOypw2Gg2yLMP3fTRNY3FxEcdxijnWqdDO5smf5bMqpSRNU8bjMUdHR3S7XbIso9FosLy8zPLyMs1mk3q9Tr1ex7IsRqMRJycnJEmCbdvfOUjnWRAoqKjoulkUEdE0EBKpgtAVTNvArthUqoVl7FQdnIpDpeJQcaa3Ta3mrx4VbMfGqdg4jlMsp/fZjk3Fubz+dJ1zt1sVG7tqYzkmhm2gaAo5GZouqFZt2q02y61l2tVFbGUWAf7jnMMZcRxz+/ZtHMdhc3PzlYiM/ib29vbodrtcuXKFVquFqhZ56WkGEy/m8KTL8emIgZsS5wZCtVGNCrpZxbSrWLaNbVvYjo1lWUXXNU1F1xQ0TUFVQCBRFMiyhDSNQebkWQrkCCFRhCxKtcoc3dAwDB3DNLBMA9OyMC0Lw7AQig6KAYpJJjWCKGfiBYxclzhO0DUdTVcZj0f8uiyKUvIqMXPzxnHMZDKh1+vNxWlWGOSrosKFKEpTzv5mKtYzC9Sc1tqebX+W/mSaJpZlzcVXnwYuhVE4t5BnYhdFEUxzQcMwREqJOg2c06aRyXEco+s6tm2TpuncClfO5U9/Va302fHP/s6yDM/z6PV686YfrVaLhYWFueiLc3nms4uCTqfD3bt36fV6rKys8MYbb7C4uPhEl+L3x8z2mf2Xk5ORkuJHPiNvzMgb4/kuaZaga8WXoKqpRYlNRUXhYgWyM+t4+vzO7uJ8jQ9BUXe7sJElUszN9ekaUwt6en6lLKzodNpxK0lSyMEyLerVOo1ajYpdwxAmGvo51/ePy2g04t//+3/P1tYWP//5z6dz71+NnHUc+5GZ+Sd4gkfjWfmv//W/cnR0xJ/+6Z+yuXkFoSokGfSGHgfHXfwwxjBtdMNGNyx0TUNVz+o1FLXmi/Mg8xzyolmKohbfD3meI5GoSuEN293dZXFpCZnL+ecqTVMePniAlDnXrl/Hsu3imU0DPUESxxEP7t8nTXOuXbuBZVpkaUqSxYShRxQE1Co2m+tLjAYd/l//5l+XYl3yajITnn6/z/HxMb7vo07bXtbr9bnozcTqSWJ9flszvuq+y7ef5/zj+YZ1Z3zdPr8KeW5OepZTPasTPpsPb7fbc9fgV213Nn99//59jo6OqNfrvP7666yurv6A1tlFsb54qyQlJsh8xu6YsTciDH3SLCEXheoKRUURalH+Ui3cmEIIFJSzfGchpsFdomidOW1qMXs6UkpykZORwfRcFg0ups0t8mmzCykhyxESFEXD0C1qTo1GtYFjVdCZ5YgX+/quAvRt6XQ6/If/8B947733+Oijj77yIo+nfB//EJy96kVf6e96vv7dv/t3ZFnGn/3Zn7G8soIUgt4oZOewixdmVGt1VFXl8GAff+KiKLDQbpMkMbV6HSlEEbxYrdHrdRn2BqiKwsra8vzzlGUZzVaL3Z0dPv7kE977yU+o1xtcuXKVOI7pdrt8+cXntFstPvjoA1zPJ4qK4NOV5RUmkzEnx0f84Q+fUqvV+fnP/oQwTAjDiGa7xcLSEkmS43sujYqGTH3+v/+f/3fpBi95NRHTyOdKpUKr1Zpbv57nMZkUkb5SSrRpXu7lx17+fzYu81W3n+f8479p3RnPsv55kR6NRnQ6Hfr9PkmS4DgOq6urbG5u0mw2516Fr9vubC57ltfe7/fp9XowLUTzbWMAvhnx2Ci+uAvRNRSDilWlVm1QtWs4ZgVLd9AVA1VqkCvkqSRPMrIkJYtT0jghieMi8jspor/jJCKOQ8IoIE5C4iQiSkKiOCSOQ9I4Iolj0iQhiVPyOIccNDRMxcDWbKpmjWa1xWJjmaXWCu3qAo5WQaOI9n7eQi2l5PDwkIODA7a2tlheXp5adU/m8nsiB7JZpLScdghLwI8lXpjjhhmTMGPsJYz8hJGXMPZjxn5SjCBlEqRMwhQ3zPDjnCiFOFNIZLHdfLqfosVpse/vcsbSNOU3v/kN1WqV69evY9sOUsBRZ4AXpNTqbWzb5vj4kE9+/Wv63VMePXxAksQ8fPgQRRGMJ2MODw/QNJXdnR1ODg949PA+eZby2Wefsr+/z2mnw2jQx3Ndjo4OaDYb5GmRXfDF539gPBoy6PVw7MJyPzzY4+TkiOPDfbIs4bNPf8doOKTX7aKpKr7nsrezTb/Xo9vt0Go2WVxcxjBMAt8j8F0+/+z3pViXvNqI6Xx1pVKZu37ltLLYaDSaVxB7njnG34XzIn1ycnKhScnKygorKys0m80Lld6ehpnrf1ZPfHYREMcxjuNcKPf6/fC4UJ8X7EKuVRRUNKFj6Q6OVaXm1KnZxahYVRzTwbYsbNPG0HU0VUNTVYQiUFUFoYBQJEEYsH+wRy4z7IqFUEBRBZqqYmg6pmFgWxYVs0LVrtGoNGnWWrRqLdrTZcNp4pg1TMVGRUOhaN9ZjO8iO98dKSW3bt3C931u3LgxT3X8KiSAlGTTftVuGDN0Q3ojn9O+S3fg0ht69EY+vXHAwI0YTiIGk5iRGzFyQ0ZePB9DLzpbuiGjSchoEjAYe/RHHoORz9iN8YKEJM2nlc+LSn+Fdj/72XNdlz/84Q8sLS1x9epVDNMkB05OXXKpYTs1FAF3b9/iaH+Prc0NxqNieujk+Jhmo0GaJAz6Axr1Op3jI3rdE/Z3tzENneOjQxbabZqNBkHgU6k4pHHMyvISrusyGPTonBzz5huvoykqllnMd58cH9Hrdjg9PUHmKft7u7z79tvomkGSRGzvPOL09IQsiel2O9NI9lV0wySMAnzP5csvPi3FuuSPAzHN0bZtm1qthjPtxuO6Lt1ulzAMUVX1Mavx677gnjdpmjKZTDg8POT4+Jgsy+YBbcvLy9Tr9e8kqrMLndn58jyPnZ2deZEXe1p3+cc8R8WezuxtVWjoqo6hm1imjWPZVJ0aVadWCLnToF5p0qgUy2alRcNpQSJ4ePsR7foir19/i1Z1gWa1TbOyQKvaolFp06i0aFRa1KtNqk5hydu6jaGaaIqBIooOWs9bmJ9ENu3rbBgGr732GpUntIqcuaDjHLxQ0huHHJ+O2T8ecNgZ0h/5eH5ElKQkqSTLBTmimHJQFBRVRdM1NF0vloY+/VtH1zXU6XxwEdhZVB7PJSRpRpykBFHE2PXpDSec9Eb0xwF+JEkyFVCnF1YXDnnuNH/S+e50Ojx8+JArV66wtr6OqmlIYDAOmPgRqm6hKrD98AGDfpetrU0m7ghd1xgNR7RaLeI4wnMn6JrO0eEhxrQKXqPZIIpjtrau0Wq1CMMIx7EJwoClxUXCICRNUuI44q233iZJYrI0pdvtkqQJhmFMBb7KZOLy/vsfkCTJvENeo9Fg88oVmq0WV7eu02wtkqQZvjdCZhG3v/isFOuSVxt5KWhmFqXtOA71eh3btsmybJ76NQsCUy8VVHlec3rnmR3DTKRPTk7mTUoajQYbGxusra0VpTV1/cLxf1tmgl2pVKjX60RRxPHxMZPJZH7x8+N6JGbSeP5nZs2qqEJFFRqa0NEVE1O1MDUbS7OxNRtbc3D0KlmYs3N/j+X2Kq9de4OKUcPWKtiag6U5mKqNoVjoioEm9KnlXFjPs/noF1WomQaXffrpp6yurnL9+vULlbyklORIwjhmMPE57o446k446fuMvJQwVUC10M0qtlOlWq3hVGpYdgXTtjHtaaS0aWKYJqZpYJgmhmFcGhqmaWAaRQS0aTlYs8fbNoZpg2aSohJnKmEqmPgpw3GA6/mEYUyeZajTOISztLzHBVtKyc7ODsfHx9y4cYPFpUUURZ0WPVGZeBF+kCDIicOA/f1tRsMeewd7NFtN8ixjMp7Q63YRQLVS5fj4GNsyiZOYZrNFkiasrKxiWTZB4FOtVDntnqLrOnkmWV5aKmrvBwGnnVM0TWM8HiHzfB4wurGxief7hGHRste0TFrNJoZpYDsOpmWzsroOqs7E9bANBUtX+MOnn5RiXfLHwWVrWUzntGdpU7Ztz+e0Z007eIJo/3iidMb5OenxtN3nzBswq9o2Kyf5pEj374PZPHa73UZVVXq9Hv1+H2Aezf5D7Pdpme1ZfIWcX/4JgpCdnV1qtTrr6+voahHFfya/X/1z5qJ/MZFS8vDhQw4PD7lx4wZra2vzuIwUCNOM3ijg4HRMp+8y8VNyKdANg1qlQsWxUYXEsQyc6WurKEUksxBF/+rZZ+j82TgbReqS53nIPEdVVVRlekEnQFFEMS2hqZimQcW2qVYqVGwLQ1NA5sRJihtEjN2AIMpAFE1nFGW2z2I5I89z7t69i+d5vPHGGzSbRWlVARiGhqqoRFFAEPigKqR5jh9GDEdjNtY32bp2E0XVqVRrXLm6xZWta6iajmYYtNoLXNnaor2wyNr6FRqNFo5TYXF5BaFq1BttlpZX2Lp2A6tSIUkzKrU6V7a2WF5bQ6g6VqXGyuoGN157o7Cak5xqtcG1Gze5ev0GcZIRBDG6YVKt1VCFoOoYbKy2UPKIT35Tpm6V/BHwNFZxnudFDenRaJ6fLaXEntYjr1ar83nfr9vO902e5/MSpbMuXUKIeeBco9GYR2j/GMclpcT3ffb393n06BFRFLG5ucnW1tY8gO3F5CzuGKDX6/M//o//hdZCm1/84hdUKtULgv8yE4Yhf/3Xf81oNOKXv/wlm5ubCFHYo36SctwfctoPiFIVXbewLBtT11CEJIkjup0ODx7cY3Nzg/WNTXIhUISCYRbWeRzF5Hk+TZ3TSJMihU3Ti1oGaZKQJDGdzgmVSpVmqwlSQUrQzaKXdxRH5HmOaZjouk6SJKRxgjadikpzQZhkREFImkQ4umRlocZCu4qpQ9E89YwgCPhP/+k/AfDnf/7nLCwszO+TEqIMxl5Ef+wz9EJG4zGDwZBH9+6ytrLCzdffRFGK4y+8BgZhGJKkMZqqohkGuZQYWhFAmGVFWmYQhiCKWAfTMIiSmDAMUBSBZVrFOQ8CQEHXDAxTJ0tT/IlXXHBoClmeMRoNiw6BtkOz2aBVr9BqVKg5Cge72/w///W/Li3rkj8OvknIxNTdO5vTns3HzuaUgiBATOe9vw/38jchp8VMJpMJR0dHnJ6ekuc5zWZzHjg2C/76MY5nxuwcVCoVHMfB930ODw9xXRfTNOdu8ReTqd0ni6mE3d09BIK19TVsq6gK9+OcxR8OKSWnp6fcu3eP5eVlrl27xqzbWpbldPoTjrsTJDrVaoNqpYJpGggyuqfH/P53v+V3v/std+/eplatMHHHfPbZ79nd3sbQNNzxmD989ilffvE5QuZoisLDB/f59HefMBoMmIyGfP7ZZxzs73FwsIeuqoRByBef/4EH9+6jayq901M+/d0n3L71OTLPMXWDO7e+4Pe/+4TBoEetVsWpFsdlGjqaphLFMRPPwzR1bFOft/qc4boun3/+OSsrK0Vw2Tm3vxCgKGCaGlXHpuZY1KoWjVqFZr1OtVIFBHmWoygCRFFxrLD8TXTTRFWnBZEUDUXR0A0DVdWLAiemjW6YKKqGphvYto1pWCiqBkJBNww0VQdBkZkQFfPZSRyT5SmKAq16lfXlBdaW26wsNmg3LRxToCkwGg7L2uAlfxw8rZCJadGC2Zz2rBe0lHLewGNm2c5Ee/a474OZB2A2h35wcECn05kXdVlfX2dlZYVarfaji/R5Zhc21WqVer1OlmUcHR0xGAwwptXkXjwLuxBqKDwQeS7Z398nDEPWVteoVc8s65eZJEm4d+8ew+GQ11577ULKVprl7J2MCDKNWq2JZVnFfDCSOPL54vNP2d/bIctiJuMRqiLonnbI0oSj/QNC32fQ7zEaDSDPsU0T33U52N8jSxKyJKbf7bKzvY1tGXRPOwgEnZNjfHcCeYZlmAx6PXx/zKB/ShxEhH7A3Tu3CIOie55hGrQXFtCN4jOmGTqqbhAEEYamUHMsNPVMrPM8p9frcefOHW7evMnq6upjF4wCUAUYKtiGStUxadQrLC0u0Wy2cOziPStE8fmLwsJlHoQRfhDg+z6e5+N6Pp7v4bourusxcT0mExfXK/52XRfP8/FcD9f18KaPC4KAMAhI0wRVCAy9KHDUbDZYaLdYbtdZbNo0KgaOqaArxfEKCrH+dSnWJSWPI6Yu5ZmlPSvDeXlOW0znvWeC+W2FczYnnabpvIHHyckJURRRr9fPNZQoOm592/18n8wubBzHmacFnZ6e0u/3567EF+VYn4SiKPN89MXFxW9MbXoZSNOU4+Nj7t27R6vV4saNG3MPEUCaS056YzJxLjAQgUDi+xNu3/6SZqPBzZuv4Y7GuJMxnc4JqqoyHIyQEhzHIctyFCGo1+uMRkPyPOe9937C+vo6rusigZuv3WTQHxDFMYPBkBs3bvCTd9+lXq8VbUjHQwb9HjLLcccuyIy3334L3yvcw2vrG0XlLzGtLicEcRRhG4JG5aJYp9OGJf1+nzfffJNWq/W1r6UQoAjQFIFlCCqORrNm0mo4NGoVahWTWsWkYhs4loFlaBiawNBAV0FTQBU5qsjx3RHbD+8V65oampqjKxJDA8tQsCyVqmNQr1g0azaLjSrLrTrLC3WWF2xaTZ2arWDpXBDo80c/LC3rkpJvZibas0A0Z1qv2/f9C8VVFKVIUZk95mm4HDjW7Xbp9/uEYUilUpmL9HdpRvJDI6a12ev1OqZpzluGxnFcRAt/h9SxHxJl2s/76OgIx3F+hHKqPxxZlhHHMScnJ3z55ZdkWcbrr7/O0tLShYtJKSkKlfgJQhQepCJYDKI4ZH9vF2Rh9XVOjmH63tR1DV3TWVleZXlpmSzLGAwG5NPa9mma0GgUFzv9wYBcSpaWlzg+OUYIQRzFNBqNeROb27dvMeh3mYyHWKZdzO3mGY1GjdFoRK1aY2PzCqZlIxGk04vkKAxo12waVQttGmjGtC3mZ599hmVZ3Lx5c56W+XXMBFEBVEBBoqsCUxc4lkatYtKoOTTrDs1ahWa9SrtRpdWq0W7WaLdqLLTqpHHA9oN7vP3Wa1y7ssFiu85Cs7iv3arRblaL0bBp1y1aFYOKpRbirBb7V5Dnyug8PhVTinVJyTMgLuVpW5Y1D7Y6X1xFm1ZE+6Yvi5lIj0Yjjo+P6fV6ZFk2Lwu6trY2n5P+pm09L84H7um6Ps/HvjyPbVnWc3PZfx2KorC7u0uapqysrPyApVS/X2YXi8PhkH6/z8nJCXfu3OHevXukacprr73GlStXHns+QggUVSOKQzzPJU1zUBQUtXD/uq7H0dExp51TgiBkfWODaq2GomhomsHGxiamaeC6LkEQ0Gg0aLcXpnEVxwzHY3IpsayinehgOKLeaBQXcYMhp6cdQNA9PSXNU0zLotla4OrWdSauy8npCbkUXL/5Osur6whVJwwjJuMRSeDRrFqsLNRxTHXW+AwpJaPRiC+++IL19fXH5qufFnFpDlxQWN+qAE1lalkrGJqCqRfpVJahMB4NOTrY483Xb7K81MA2ivtNXRSPUcXcYr5gNU93Viwu7vsypViXlHwLzs9pz7p8AfNANNd1UaZNN55kUcppg43RaMTh4SHdbpc8z2k0Gqyurs6LmZjTxiEvE5fnsU9OThgOh/OAtBfNcjUMg16vx2AwmEfWv+jnPEkSdnd3+e1vf8u9e/c4PDzk5OSEyWRCo9HgzTff5OrVq9i2/fhzEaAbKoahkOfgBRGu5+OHMUIIapVK0TO8WufK1lVee/01lpZWsO0KS4vLbF3dotFooKpFQ5gbN26yvr6OZRcV7ZZWlllb32BpeZlWe4Farc7q6hqrq2tYlkWjXmdz8yqLS8u02i02Nja5unWdq1vXqdZr2I7Dla1rbFzZIkdlNPbwPR8FyWKzxvpyk7qjoZ3r1yKl5ODggJOTE65duzb3JnxbZmL6VaOwhM/G8eEB3dMTbl7folGroorCQn7SmCUkiLlin+3z65iJdZm69ZTMEj++6cQ+kdkLdPbvY3yr7ZY8V57kxh4MBqRp+liXr5lI+77P6ekpw+EQVVVpNpssLi7Oq42JHykF6/tiZl3DmftfTgPyHj16xKNHj1AUhTfeeIOtra3HrL3nzfb2Np988gmrq6u89957P2L/7mdDSkkURdy/f59bt24RhiErKyu0220sy8JxHNrt9rw/+lc9h6JICIRxzmjiMxi5jCY+cSqRKKiajm3ZmKaOrmkIig5jilDQtKIRSJqmyGldfUURZHlGludT70nRYUyoxe2FLgnyNEVQxHhIKUmzlHz6jaoIhSRJCMKAOIrIsgyExNQ16jWHVr1Ks2ZjGjOX9RlJkvDrX/+aXq/Hz372M9bW1h6/SPkB+dWvfsXOzg7/zX/z37C6uvqV5x2KL37JRS14Gra3t/nXZerW0zMT6/mQkmzaMm2+zPP5G7cYkjwrhpQUzc2BfPb9dulFe8bXsOQ5MxPW84FoszntWcOQKCryScMwpNvtcnp6ShiG1Ot1Njc3WV1dpV6vz+ekv/bD/gIyO+bzxy2m89iz3PTBYDDvj21NG4H8mF+oX4dhGAyHQ3q93rx+/HexzH4osixjZ2eHW7duYds2H3zwAe+88w5Xr15lZWVl3qzmm6YbxDQq2tQEVUunXrNxbBNNM5BCQ6KQ5JIoignjmCRNSdPi+yzJctJMkkuBFCpSFuVHp4XVi9umM7AZsmjUkVN8B0pBls9KjSbEaU4UZ4RRjB9GRFFKLhVURcW2TRZaVdaWG6wu1GhWDAytEOpC/M/wPI/bt29Tr9efy8Xg7du3ybKMa9euffNc+awT6zNSWtZfw0xLzy/THOJUkmbZtAhA8SZOs5w0y8jzWUu9QphBToMYFZRp1LCmKkU1H01B11QMTUXTVDRdoE1fxNmb8Vu8piUvAHmeE0UR4/GYfr8/L64ip2VPZxZQs9l8KV3dz8LMGjw+Pub+/ftMJhOWlpa4fv06S0tLL0TQXJZl7O/v84c//AHTNPnJT37C8vLyCyfYp6enfPzxx+R5zrvvvltUXfualpdPi5xa2kkGUQJhlBBGEUEYk2QpWZqTpilZTtHEUsqiTZYo4shzQdEDXEKWpYRhhGmaqNM0KDE1J4WczQvL+Recogh0VRTfhbqOaRpYhoFt6eh6MVd8vhP45aWUku3tbX7zm9/wxhtv8NZbb81zyn8s/u2//bfUajV++ctf0mg0Lt/9vVBa1l/Bees5SSWuH9EbTjjtDekORgxGLv2Rx2gS4XopXpDhRTl+LAnioo3c2ZAEscSPc/wwww0Sxl7I2AsYj13Gk0mRm+eFRGkGoiiOX7zJS8F+GRHTYKtZnvbM2rEsi6WlpW/dBetlREwvUmc9xPM8n6dLadN64897Hnv22gDzQL9ZrviLIthZlnHr1i1OT0+5ceMGV69e/d6+r8U0kEpXwNKhYio0HINGzaZedahVbWpVh2rVwbELK9y2DSzTxDJ1dF3HMAwMQ8d1J9y/f49GvUa71cQyDCzTwLZMKo5FzbGpVh3qNYdmvUKrWWGh4bDQcmg3HBpVg6qpYGoSXSls9OITcv73RbH+8ssv553FWq3Wj3rxO3PBz1rQfh8XT0+iDDC7hJzO56QSghg6vQl7R12OuyOG4wAvykhzBSl0FM1E10003UQ3iiL2lmlhWkXkqz1dzv43DAPdMIoKOLqOomhIVNIMgjjD9SIGI4/+cILrhUihoepFxZuZcJe8XJwX7Wq1SqPRmAeOveoifR4xzceeRdELIeh0OnQ6HdRpv/HnnY89Ow5d1+d5ykEQzF32s2N7Xsc4Ho/5/PPPqVQqvPHGG/Pz+EMgplMaqiLQNYFpKNiWSsXWqNoa9YpBvWLSqJo0aibNmkWrZtGsWYSTAXvb93nz5lVuXF2n3bBo1yyadYtW1aRRNahXdGqORtXRqJgqlqFiqgqqIopo6WkqGdMM8OLncaEGmEwm/P73v6fZbHLjxg0cxzl37w/P6ekpX375JTdu3HhiIZbvi1Ksz5FPXdwTL6bTm3Bw1Od0MMGLc4RqYTh1bKeB5dSLzjOWg2k6GIaJZhTt4DRNQ9PUwt2taahasZwNXdfRdQPDtDAMG8N00M0KullBNWwkKlEi8YKYieszcQOSFBRRuM8Ll/rlIy950RHTOe3nLUjPGyEEpmnOA+kGgwHHx8ekaTq/oP0xraLzzC6sGo0GlUqFyWTCwcHBvMzrYDCY14wfDAaMx+N5fv1M3GAmMt8veZ6zvb3Nzs4O165dY3Nz80fxRswEchbJrAKaKAqC6EqRI2xMh6n+/9n7rx5Jsi3PF/uZNtcytMyMyEhVWZlZVUdcHE53c3BHgCQIECAIEOQFZ8688IHgGx/Ip+YDQeASdxr9GWY+wGCAUZg7snu6q+rUqaqsSp2RoXW4lqY3H8zcwzNSV2VkpbBfYEeEu5tyc/P9t7X22muBhs/B7gbN6iEXzs8zWc5jqtJwGU0J11PlcDthEcxw24N9nbSnhXpUsInOy+rqKru7uywtLT1RrORtMLDqa7UaKysrFIvFM7t+nxDrf/AP/sFb9/X/0gxd3T60+wFH1Tb7x3Ua7T6eL2EkU2QyWdKZDImEia5rqIoyTCIAkdUbPR58aZ/VIZ9+bSC8iiyjqgq6pmKaYV5lwzAIAuj1bVrdHt2+jS9kFE1HVp+2sk8/jol5VxncuAwC8Xq9HoeHh/T7fQzDGI7hP+s7dNZIkcs+l8sxMTFBOp0mCALa7TbVapWDgwP29/eHtcMPDw/DTFztNkIIDMM4ExEdJPxwXZeVlZWXZuf6pXBdj/v37+N5HufPnyebzZ7ZcQoh6Ha7/OEPf8A0TS5dunSm3oZn4XkeX375JYZhcPHixTOdRRCLNeB4Psf1HruHDZodGw+NRDJDOpsnkUqhRqXVBknjpYHQ/gyRlMIwjSfvGCVOgtA0Hd1MoBkmATI926Pds+nZFrIio+sa8qmd/9RjiYl52wwEexB57fs+lUplOJVtMFZ8Vh3fy5AkiUQiQalUYnJykrGxMYrFIqVSiXK5TLFYHHoHbNumUqlwcHCA67okk+F84zd57K1Wiz/+8Y+USiUuXLjwzvbTtm3x1VdfkcvlWFpaGuYfOAsGkfF3795lZWWF+fn5Mxsvfh61Wo1bt24xOzvL4uLimXqmB2J9Nnb7O8xgbNryYK/aY2P3mE7fwkyEOY7T6ahIghTWtj0bXrxdRZYjl2GGbC6LrGnUGh02tivUmjZucBKpHhPzPqJpGmNjY1y6dIlz587R7/e5ffs2q6ur9Hq9MOr4F2Qwjj05Ocny8jJXr17l2rVrXL9+nevXr3Pjxg1u3LjBxYsXMU2Te/fu8eOPP9JohLmy3wRBEAxd7rmo5vq7SrPZpFarDVPyniW9Xo979+5RLpeZnZ1F/wkZy34OflS4RlGUMCnMGd9ADW7+PkqxdgOfeqvH9kETV2jkCiVSmQy6FlqtkhDhVIMnZDWcfvNz8P2wIHu32yMYTrYGEU336XW7+J4HIkBCIMsShmmQyWZJZgp0+4LtvQqdnsub6Q5iYn45Bm7n5eVlLl26hCRJ3L59m7t379JsNsPkGO8QUhQsN5hDPj4+zoULF/jss8+YnZ1lc3OThw8fvrGbjSCqJpWMiqW8zTHZ18HzPDY2NsjlckxNTZ2plRsEAbu7u7RaLS5cuHCmY8XPYjAdcXd3d+hteVufy9t7l+8IAujbglq9jfACivlCdMca4Lh92p0GzVaVbreJ7zm4jkW71Qzz0zp9XKdPt9uk1azRatXodBp02g1cp0/gu/S6bVrNOpbVIxBeZMeHe+51Wty9/SP3796m32vT7TRpt2pYVodmo8b+3i6ddpNet0WzUaXf7YDvoSsKmVSKTDaD5bhUGx1cL7auY95/5Khy18LCAjdu3KBYLLKxscHdu3c5Pj7Gdd3Tq7wzSFFgWqlU4saNG8zMzLCzs8P29jaO45xe/LUJgoB6vU4+nyeXy71R9/qbQghBtVple3ubpaUlJiYmzkw8RZQHfG1tjbGxMaanp9+6VT14v/V6nenpaVKp1Fv7XD66MWs/gGbXo1JpYSZSpNNpkMC2+2xtr3H7x1vsbG9xeLCPqiocHR5y7+5d9vd2sawunXaL+/fvsrmxzsbGOnt7Oxwe7BMEYfWZe/fusrG+TrfbJp1OR2MZEpIQtJtN7t75kVazhmHqPHr0gI2NNTqdFr7rUatUsawem5trbG1tUK9VSZoJkokkiiwjqwq+HyZkyaRSmPqT0xpiYt5XBvOxM5kMrutSqVRoNpsoinJSzvEtdYqvixRlbDNNk6OjI/r9PoVC4eUZrV6C4zjcuXOHTCYzHBf9Ods7CzqdDnfu3KHT6XD58mXGxsbOTKwHtbr39/dZXl5menr6TIL6nocQAsdxuH//Pt1ud1iO86ze74Bms/lxBpj5Ajo9h1a7SyKVDl02EnR7He7fv8vqw4cYmsrezi6u7XB8dBRa1XafrY112q0Gm5ubCBFwcLBPs1HHdR267TaddosH9+7i2BbVaoV8LkepVArFWhJ0ex02NzfodXu4js3R/j621Wd7axPP8+j1eyA8er02/V6X46NDUqkUpfJYWBlHlhG+jwh8spkECSMcVX+3vr4xMT+NQXBXJpNBlmWOj485Pj4GIJFIvBMZz57HQLAty+Lo6Ohnu65FVNHt4cOHlEqlM0268VPp9XrcvXuX9fV15ufnOXfuHOYZpvusVCrcvn2bbDbL8vLyW48AB6hWq9y9e5fx8XEWFxfP9P0OGIj1z7olEFEaxfcNIQSCADkcoD55TkCxkGfp3CIJQ+P48JBep83s9BQLc7N0200atSqphMH87AzFfJ58Lkc+m6bdqLG5tsq92z+wub7K7tYmzXoNRBCOdw/2DfStPo16nUwqwbn5ORyrz8HBLt1ui3a7we72Jo8f3Wd3e4NOJyw7NzzLkhTNO3v/zntMzMtQouImS0tLXLp0CUVRuHfvHvfu3aPRaOD7/jvb56iqyvT0NL7vc3BwgGVZpxd5LWzbHmZY+6mifxYEQUCz2eT777/nzp07FItFzp8/f6YuYcuyuHfvHq7rsrCwQD6fP3OL9jSe57G2tkYQBMzOzp55IN1p3ti7FYQCGOAT4OPj4eOONGekjT4/aB7ByM9ZjciGlmhYcMPxPAShXsuArmlkMjnSmTyGmQwT1CPh+1F+XD9AVTXSqQyZbJ5EMk0ylUY3EwhZRjcMSuUyCwsLLC0tk88XQDztqg4DVRREIOH7giAIi4/blsXR4RG2bVMsljF0MyoAEq7nBwLXc/EDLzanYz5YZFkmlUpx7tw5Pv30UwqFwhPj2J7nDZd9l4RblmWy2SyFQoFGo0Gz2fxJxzdYZyDWZ+lReNHxDYwx3/fDqlj9PpVKhfv37/NXf/VXPHr0iNnZWW7cuPGzS1O+CM/zWF1dZXV1lampqTeWF/11EEKwv7/P6uoq4+PjjI2NvfVERz/RDT6w9Aa1HwWBCHBxcQMXO7CxvT6238f2+lheH8vt03d79J0etmdheX1s38L1bZzAxvNdfBEQCB/kcOuDDDYn/PwTIwDXF3S6Fn3HRzdMFFnGdWxarQYSEqXSGM12m2QyhW7oHBzs02o2SafSTE5OYRgGxdIYfctBNwwSySSqojI1OYUQgkQySS5fYG5ugVQqHQmuwLIsqpUKuq5RKpaoVqpUazV0w2B8fBzbsqKkKzK5XB7d0JmYnGF8YhpJUcME+70OqYRGqZBFj5Kk/PyzEhPzbiFFeQdSqTCuxHVdjo6OaLfbqKo6TELyNjvLV0GSJGzbZmdnh1wuR7lcfm0LUIoSKFWrVQ4PDxkfH/9J23kRQgg8z6Pf79Nut2k2mzQaDer1OrVabdgGx7Czs8Pa2hpra2scHh4CcOHCBa5evUqpVDozofZ9n+3tbb777jvy+TzXrl1761a1EIJ6vc6XX34JwLVr1870PZ9m4AaXfv/734t/+k//6QsqhoQ2sxQJtI9PgIcbuDieg+u5OK6D53lRdRYfzw//ChEM784GgiWEiAQpanKYAUyWZBRZRZblMD2nqqGpGoZmoKoauqojoyKjIKNEMi6eKekvIgD6TsD+cZOdwwaGmSKXKxD4HvVGBddxyWWzVKtVFFUh8H32d3eRZYnxiXESiSSu65LOZGi1O0gSqKqC73kkEgl2d3bodDokEglMM0Gv1yOI0hIO0k6m0ylMw2R/b59+v4eua9TqNXq9LvPzCziuiyRBMplgbGKa8tg0nudRbzRQcFicLjNWSqP9zAQtMTHvOiIqP9tsNtnY2GBnZwdZlllcXGRxcfGFrteBIBG514f9jyyfWWcvhODg4ID/+B//I+fOnePzzz//yQkz7t+/z/3797l69Srnz5//2eIwOB+D2uvVapVer4frupHnMBxiGJ0nPuinFSVMpTyoGjc+Pk6xWHzjSWBG8X2f3d1dvvnmG4QQfPHFF8zMzLzVoDKisfk/fP0HVh+v8vnnn3Pp0qW3Guy3ubnJX/7lX75crAUBQnh4gYft2nStDm27Tc/u4AYOgQgIEE9kcg1EOEn5RESjv5I0nL98sn2BkMIi5QgQIrxQJCkKnpJkZCRMPUnKzJIy0iS0FLqihRGiSEjDDLMvR0RBZq2+z85+g+NaC81Mksvm0KI6lbIs4/veMFuZ67gggabrIIUXvSzJBINjjfYtSRKu4+B7YWT44eE+e/t7CBEgSzKZTJa5+XmKhQKSJOO64Rek2+2wvb2JpmksLC6iaAYgUBQJSVZxHEGr2UAELrMTBabHspj6SXDZq73zmJj3lyCqEb63t8fa2hq9Xo+5uTmWl5efa2l1Op1hveFz587R7Xbp9/tMT0+f6VSoRqPBf/gP/4FcLsevf/3rn1R+WAjBnTt3ePz4MdeuXWNxcfGZ7/FV8TyPer0+zKctohSpgxTHuq6jqqGxNNiPFM0rH3gyEokEqVTqqQInZ4EQgkqlwldffUWz2eTGjRssLy//5Bufn4rjODx48IBbt26xsLDAtWvXzvTaeRYvEGsRSWg48tx3uzS7DVqdFt1+F9dzEXJ0pyUrSLKELEsosoIiKaFbPFKQoTN75I1JUepOIcJfob0eKrgIRGSNn9xRB0FA4Pv4XoAQARISCcMknUqTy+ZImRkMEpG1/fKLOdobnoBuP+DguMFhrYlAIZMpkEomURQpPEApStQfDeuIV/l8RJhK1Pd9+lY/DDKJ1lNVlVQiEYq+GMiswHVdbNtCUVQMMwGyHB6j69LpdOh2OpiaxNR4gfFihoQWjT7EQh3zESGiqTPVapWHDx9yeHjI5OQkly9ffqZb8ujoiH/xL/4Fx8fH/N2/+3exLItms8nNmzeZm5v7WeL3Inq9Hv/lv/wXgiDg17/+NWNjY6cXeSVu3brF1tYWn3766c86Xs/z2Nzc5I9//CO9Xo/p6Wmmp6fJ5/PDKHtN05CjvOyjbcCznjtL2u02f/jDH9jb2+Py5ctcvHjxhV6Us8D3fdbX1/n2228ZHx/n008/fe6N4VkyEGvl5s2bf/73//7fxzCNSEQDvMClbbU4ahxyUNuj0jmi47TwJBdZVzASCUwzhaEn0VUdTVFRFR1F0lBlFVlSwiZHfyV52MIknnJoOUvyybKSgiyrKLKGomioioam6uiaga6bKKqCkH18XOygS8du0eo36fd7iECgKOF+Bh/mi1zjUlTD1VAlEqkEqqFjOx7droVt2ZFQR3eWUnTXIREp5Ekbjc0I9xs2iTCATDMMkskUyWSKRDKJYRhDb8DodhRFRddMVNVACLBdj06nR6vVxXMccukkc1NlJoqJUKhHDycm5iNBGskrnk6ncRyHw8NDms0mmqY9NR+73W5z9+5dDg4OyGQydLtdbNtmZmaGfD5/Zh1/EATs7+/T7XaZmpoik8mcXuSV2N/fp91uMzU19ZOtuYEreVAM5PLly3z66afMzs4OU4MahoGmaaiqOnR3DyzsQXtbQu37PvV6ne+++47d3d1hdruzLJTxLHzfZ2tri++//x7TNPn000+feUP4NhjOs75x88af//1/8PfQTA1XOLStJof1Aw7rhzS6TbzAQ1E1EokkyUQa00iiKcaTwjhi5g0s1xdo5WsjSRKyIqNpBoZuomsmsqzh+wLLsun22vTsHp5wUVQZSZafEOsn/z/5K0mgKpA0dVKmgSYLfM+mb/WwLAvHdfH9IBq1P72lkKFej5wDpBPDWZKkoUU+2MZg2YH3wA98bMeh3+vT7rbp9boIzyJtKkyWM0yP5chnFDR55LSePpCYmI8ESZIwTZNsNosczceuVCoAmKY5dOd2Oh22trbCGBhN4/j4GFVVWVxcPFOxBomDgwOazRZTU9Pk888eYnwZe3v7dDtdJqemyGZH5hSPGAkvo9vpcvvObSzL5tNPP2XlQmShjlYDOr29552WgdFyRjiOw/7+Pt9++y2Hh4csLS1x+fLl4ef8tnBdl83NTb777jskSeKTTz458zSqL2JknnU4Zux4FtXmMVuHmxw2D7CEhZpQSaRSpJIZTC2FJhkoQkUWMuFIciTUURMjIvWmkZDD4DJJR1WSmEaGVDJHIpkkUAOaVo2d6ha71R06dhsfD/GcDNqDQ5SimqoJGUoZjfmpLItzJaYmCmTSCSQJur0u1VqVo+Nj6rU67Xabfr+P4zh4novvewQiCCPZEQgJgsF5IBpQCAI838f1fGzXxbIsur0ezVaTaq3KceWYeqOOZffRVJlCPsPc9Bjn5orMjKXJJaRhMNnwDcTEfMQo0XzslZUVLl++jKIoPHz4kAcPHgznYxMNPY2Pj1MoFKjVaq9WaOO0eA0tkBcwWEaAIitoqk7gCwI/qrrzE1rgA6djcl52HKdoNls0Gg0mJyaZmpx5Mj3nYF+nGT2O0efOCBHNlNna2uLbb7+l2Wxy+fJlrl69Si6Xe6tCbds2jx494ptvvkFRFD755BNmZmZ+MaEeRfpH/+T/Iv6//+P/B0fYHNUP8QIP3Qzdz5IcBXA98w70Wc+9hMEH/hNWHTC8hoYDyQEiSvVpOw74gnQyzVRphpyZf+2x7ECAF4RVufq2i2XZ9Ps2tuPi2F5obQcBsqwgyUqk+nLkIY8s71PnSwTh1DYRhOPuIgiQBKiKgqFrGIaGaRqYho5paJimgqGGRdpfPXQuJubjQ0SFFY6OjlhbW6NSqTA2NsbFixdRFIXvvvsOXdeZnJzk66+/RpIk/vRP/5TZ2dnnioDnCtqNDnbfQUQxKHDiQRz9PgogQDwpZhLcv3ef7e0trly5wsz0zMiLL2EQ6yPg3r171Bt1VlZWKJdLoU0kQvl+FQSwtb3Jw0ePOH/uPHOz8yeR1NF+nvRBnqwHA4Mj7BnT2RTpdBIpCsJ9kwwCAdfW1jAMgwsXLrCwsEAikXjuZ/SmEULQ6XR48OABa2tr5HI5Ll26xOTk5JlGvL8KwwCz/+Ef/5/E/+v//f+kY7VwJRczkUCRVTqtLu1ml1K5RCJp0u12OTwM01+Oj48/9ySKKE3ewcHBcC5kt9vFsR329/bIZDKUx8deKX3eIKDk4OAAx3FYWFhAN/Qo2jz64giiQLUwIYttWzi2RTFVYmHiHKaaRP4JkhcAfhQ5HvjgegF928OyXRzXxfUCPF/g+aEL+/DwkLW1x6TTGc6fP08iEVrmsqxE4/MSqqqgqnIo0pqKqekYuoqhy2haOI6ujAj06x1xTMzHyWBKUqPRYHV1le3tbbLZLEtLS5imiWEYpNNp6vU6vu9TLpej7+ezv2GtZoe1B1v0Ww6apiJF8hUufupGHEbyE57Qbrfp9XpkM1mSr1HaUgxFEtqtVjRNNI2h60B44/Dso34aAXR7PTqdDpl0hmQiOVxbEP471OPTDAOEBZ1um8mZMRaXFzATxqsfwAsIgjDR1NHRET/88AOHh4dMTU1x5coVJiYm3ppAimg6X6PRGAa0LSws8Mknn1AsFt/6NLFnMRTr/8P/+X8v/m//j/8riqGQymZQFJXAC6gcVakcV5mcmML3A7Z3tllbW2NhYZ6LFy/SarWQZGkY+NBo1PE8D1lW6Pd7fPOHbyjkC5w7d56joyN2trepVatcunKZsfExFhcXh+PC2UwGTdNoNBq4rkMqnSKfy9PtdtnfP+DevXtIwN/5kz8hCAJ6Vp9UKkUikaDdaiOCgEIxTyJt4gc+/X4X4Qhmx+eYKEyhoj/j/vHFhF/Cpx+LSMB9P2y247F/sM/3t27RaXfC+rznzw2/oOE8cjmsj63IKDKoMihyKMyjRzX4/3W+kDExMSFBVP/58ePHbGxskEgkhgUfBsFnr0Kt0mD1zgaSq5HOJJGkcHjr2TxLqk947mrPQYzEsz6x4ciTeHrq68sYiP9pi3zQl71oW6GgCw4O9imUc1y8fIFkNvHilV7CwABrNBpsb2+zvr6O7/vMzc2xsrJCsVh85c/p5zAQ6W63O0z4Uq/XmZub48qVK2/tOF6FoVj/7/6P/1vx+//7/8D41ATJRBYJGddx2dneYXN9i0w6x+baJr1+n0r1mAsXLlAoFtjb28MwdMrlEoZh8sOPP5BKJgmEQNc0Hj54RLlU5uLFi2xvb7O3u4euaVz79Bq2a1MeKw+T9GezWVKpFPv7+/T7fRRV5srlK+zv7rO3t8fu7i7pdJpf/epX7O7t0bcsdF1jcmqKvZ1d0qkUN7+4SXmyDJLA9Wz6nT4pPcWFhUuYJF7JFf4qDL4/gjBovF5vcuuHH6hUq1y7do35uTkMU2c0fuM0AzF+wSIxMTE/gcF87N3dXTY3N3Ech+np6WFQ2Us7YAH1SoON+7sYUopsPg1yGGL6bFE+fVv/8xjcFDwl1hHSiW6/nJGA3+F60fZf56h393ZJZxIsXzxPImv+pCTVvu9j2zbVapXd3d1h+dNMJjMsrfm23N6nh0729/dJp9OcP3+eubk5UqnUy6+Tt8hw6tblayt/fvO318kXCyiyhoSE73kc7h+ytvqYZr3B7s4uK8sXsCwLz3V5vLpKo1bHtmyqx1WEL9je2mZudo5Op4tl2UhAuVRC13SqlSqqqpLP5chk0mxsrGNbFpqmsbiwgKqoOLbD8fEx9VqNvZ09kmaSynGNfC6PhITjOKiaSqfToVAosLmxSbvVptftMjE5wfziApoRJi2RJAkRhJdiKV9CI3xfb0IeB1uQoqjB3Z1t1tYeszA/x+VLF0lEQj0qyKfbYP2ffzQxMTGjSFGN6UwmQyqVGg7fdbtdTNPENM2XCoLVs2hUWqiShm7qIL0gIE0SiIG5+1R7XX/eqU5BCrf/ZOfxks7liWWf3FT467REn1pwwEiwcKvdRjc0iuUCmhHlOH5FfN+nVquxvr7O/fv3WV1dpdVqkU6nWVpa4sKFC4yPj2MYxks/lzeB7/scHR1x+/ZtHj58iGVZTE9Pc/Xq1WFxjrdxHK/DMBpcBALP98L7xpExAiECPMel1+1i6jrnzy1SLhZxbZtGrU46maJcLDFeHsfUTIr5IvNzCxTzRXRVJ51Mk8tk0VQVTVPJZDJkMxlUVcXuW/S7PQq5HMtLy0xPTdHv9rB6fSQh4dke/a6FKqvMzcwzPTWDpmo4tkM2m2VhfhFTN+m1u6SSKSYmJkimkicXkQizqA2yoT19gf48wmteYFt9jg4PUCRYmJvF0NSnvidSVC3l9PMxMTFngxxVqpqamuLq1atMT09zcHDAH//4R3Z2dnBd9/QqTzP8wg6s6oEt+mR73vNPbOdnM7Jd6fl7fF47tQXE8AZjdIknGX32WV6FgRt50E6/1mq1uH37Nv/qX/0r/tW/+lfcunVrmD3u+vXrfPbZZywtLVEoFFDfQo73IAio1Wr81V/9Ff/m3/wbNjc3KZVKXL9+nevXrzM5OflWU4j+FGRJkVEVDdtyQr8ugBBRtLJKJpXGsSw21zeo12oYms7E+ASpZGo4oV5RlWG6OkkO830Pous8xw2t3JEPVFVUZFmhclzl4f1H/PDdj2xv7eLaHrpmIoSEpukEQcDOzjb7+/t4no+qqjRqDTYer9Hr9kinM2iajiTL0fbDQDPPs/Ach6SeQkODYYjIm6Xb7dJsNimXy8PMNoOPevBdH338rOdjYmLOBlVVKZfLXLp0ieXlZbrdLrdu3eLx48d0u90XTOF69W9ouOTzfp6rhc/ltCF9evuMVPF71fYUgzm2L5hnO3ocjFTecuyw+lav16PdblOv1zk6OmJ7e5sHDx7w9ddf82//7b/lX//rf823335Lq9WiVCpx5coVPv/8c27evMnS0tKZ5hUf3ED4vk+/3+fg4IBvv/2W//gf/yOPHz8mn89z48YNbt68yeLiIul0+p2zpp+F8ulnn/75//Lv/xlBECBJYeYa13Y43D+gclQhaSaoV+tsb25h2fYwRd3Ozg6NZjPy7UvD4hW1Wg3Ltuh1e1QrFWRJxrbtaPth1q9et0/CNNna2mZjfYNOq4vn+FSOK/T7Fpqmks/laXc6PH68Sr1eJ5VKkk6l2dneYXtzC03VKI+N4bgOiZRJrpBFM1Q838GyuuiyxlRxlqSRGU5QiL4+b4SBO2V3d5fFxUUmJyeHH/jzvijPez4mJuZskCQJwzDIZrMkEgkajcawzOYgL/ZpwbB6Do1q6AY3TP0lg8Sj3+qz+IY/uV2J5wn6M9ozD+P0Ui/n8PCQnb1t6o0a+4f7bG1vsrOzw/b2NltbW2xtbbG5uTkcbgDI5/MsLCxw+fJlVlZWmJmZIZfLoet6aNQ8++B+NkEQYNv2MIDt4cOHrK6uUq1WSafTXLp0iWvXrg2DDs/yWN4UwwxmN7/47M//N/+r/zWqotLrdxGBTxCESd+7nW5Y8cpIoGoa+UKBZCoVWrNS6GpKpcK7EkVVw3nEgUBVVAzdQNcMTDP8QhhGlPwdCV03wi+JLKOoGrl8nkQygaJrpFJJSsUSmh4W6lAUhVwuRy6XR9O0MH+2YVIslTATJigCWZfJ5jPohoZtWaiSynhhgkKujCKpp+913wiO47C3t0etVuPChQvPLYQSExPzyzIYx85msySTSSzL4vDwkE6nM5zaNRpQZPXs1xDrt4s0+PUq7Q1xfHxEpXqMkASB8HF9FyEEqqqSSCTI5XKMjYXTcRcXFzl//jznzp1jampqaNwpI2lg3zRChPUVarUaGxsbPH78mPX1dfb397Ftm0KhwNLSEhcvXmRmZmYYQHZWx/OmGZbI/Ef/5B+L/9//9D8i6QFHzX1qzSqO4+A6Hk7PBRQkEVrPAyROu3de9qafcbEP5/E9zdPbP0W0gEDgSz6okEyZaJpCOpFirDBGIVPClFPDcppvWqw7nQ7ff/89lUqFP/uzPyOfz59eJCYm5h1i0KnX63U2NjbY2toinU4PLT/DMJCQqFdabDzYxpCSZHIphPw8d/nHwcbmBj4uc4uzpLIJJCWMCxjkEh8UAnkbY88DgiDA932azWY422hvj263iyRJJBIJstks2WyWfD5PsVgkmUy+E3OmfwrDqVv/6J/8XvzTv/ifSGUS9N0O9WaV49oRvX4PVdUxEyaqpoXZuqIyHNJw0uFIXs0Bz/ysQuUVhOMfw2cl4JUlNByTHoi0IByTsB2LntVHlRWKuQJjhTGyqXwUAX5SNONNirUQglqtxtdff03gB/z3f++/f+ul22JiYl4fEeXj73a7rK+v8+jRIxRF4eLFiywsLJBMpKjXWmze38aQEpFYv8hyGOV0MBpP9G8nvWD0XPTCSZc42kMNgrpGln+Cp7f65D7D10+O5acPBe7u7pDMJrhwaZlkxvhJU7dGESKsZjj6GE4yxI0+N8DzvKg6oU2z2WR/f5+trS1arRaqqpJOpykWi0xMTFAsFkmn08MCJe/DePSLGIr1P/4nvxf/9C/+gmwmDQS4wqLZrVNtVun0Oji+i6xJqKqGquqosooihS6EsHqWhIgEWyLKDx5VrQp/nVy4YlgS8wQp+pBGnz2t/wjCPN+Bh+dHLSqWLiFhGiaFdIFStkRCTaFEQWWj/NQL9VkIIdjb2+PLL7+kUCjwp3/6p+/UvLyYmJiX0+v12NraYnV1Fdd1WVxc5Ny5ZVzbY/vRLqaUIJNLv7JY+75HpVahUj3CcV0koFAokEwmaTQa9Pt9hBBomkapVCaXz2H1LY6Pj+j1LHTdoFwuk0wmOD4+otlqghComsbE+DimaVKvNzAMnVwuT7vVodvrIgjodbv0ej2QJNKpNKVSmcAPqDdqOI5DIpGiXBojm8mgyK/XV+3u7pDKJrlwaYlE9udnMHuWWAeDcshRZjM3qqEwGszWarVotVr0+/2hBZ3P5ymXy4yNjZHJZEgkEu+tBf08TsT6978Xf/EXf0E2m4nuwwJ8PGzfptvv0uq26FkdHM8J03wSnmhZlsOMXKoalr9UZGRZCYU1urYlaSTR7SAie3jdD6YOhK+IQQEMCKdciYDADwXZ98OxcPyw1rWEjKboJMwk6WSKdDJDQk+goQ9LcJ5mcDvxJvB9n42NDb788ktWVlb4/PPP3/u7t5iYjxHLsjg4OGB1dZV2u83E+BS5bIFupUdaz76WWFuWxdff/C13798llUpGaT6zTExMsLm5iSzL5HI52u32MFHL1tYWR0dHaJqB4ziUSiXm5+e4fftHKtUqxUKBbq/H9NQU09PTrK6uMjY2xrVrn3Lv3gN2d7cpl0t0u12+v3ULXdO4evUTxsbG2d3dxbbDfBa2bTM9Pcv1a59SyBdeqy/c3d0hlUly4dIyiVyYy+KnMBBix3GGzbIsbNvGtu1w+DWynm3bHhpknuchRYGCyWSSdDpNPp+nUCiQTqdRoyprb8sF/7YZJkX57ObNP/+H//AfYhpmZHlKyCioso6hJ0glU6SSaZJmIozkUxSEEHiBh+vZ2I6FZffoW30cx8ZxXTzfIwhcAt9DCB8R5bkP/478CB/fd/E8B9u16TsWfbtHr9/F6ndxnT6e5yACH01RMHWTVCJNPluglCtTypbJJvMk1SQqOjLqwFH/1M9PvsKeQRAEHB4esrW1xeLiImNjYx/shRIT8yGjKArJZJJMJoPneRweHLG/f4Ddtckms5jJV0+v6TgOd+/doVo9ZnlpiSAI2N7eod/vc1ypMDE+zsLCAoeHR7Q7bZrNJvfu3aNcLnP58hVs2+HRo4dAwN7eHpqmcenSJVzXZWNjA8/32dnZwTRNpqdno+xbe8zPz1MoFLh75060zmUODw9YXX3M/PwCS0tL1GpVtrc3GRsbp5AvvpZx0Ww1URSZXD6Losi4fii0tm0Prd9ut0urFVb4qtVqHB0dsb+/z87ODpubm6yurvLo0SNWV1dZX19na2uL7e1tdnd3OTo6otFo0O12nxDmXC5HqVRiamqK+fl5FhcXWVxcZHZ2llKpNByH/pCFmieiwSOxPhlzHbzpUOBUScVQDUwjQSKRJJ3IkElkSCezJI0MppZElw00WUMWMsIPk6nYto3dt+j1e/R6HbrdNo1GnUrlCMfpY1nh8/1eD9dxCDwfAglVUjBVk5SeJpfIU0iVKGbHKGbLFDIl8ukCmUSWpJ5CV0xUKayq9aYF+UV4nsfe3h7b29tcunSJQqHwQV8sMTEfMoqiDIOSFFWlUqlitfsUcyVSqURYYecVcF2X9Y012p0WM9MztNptGvU6yWSSWrVCq92iWqnSaDSYmJig3elQq1a5/umnXL36CUEguHf3DrIiY1kWpVKJq1evoqgqq6urSJJEr9ejWCwyNz/H7v4urVaLC8vLFItFHj16RCaT4cLKChvr6/T7fW7e/Iyl80t0um0eP37MxPgkkxOTrzVst7O9zbff/5F7D+5y++6P/PDjLX788Ufu3LnDvXv3ePDgAY8ePRrmZN/Z2WF/f5/j42NqtRqdTgfLsvB9H1mWMQxjeL5LpRITExNMTU0xFXkPBm1ycpLx8XHGxsbI5/OkUqnhGPTH1N+O1LN+FicW9qBp6CSkJGk1Sz5RpJweZ6Iww8zYPPOT51mcPs/i9CLz0wvMT88zPz3H3Mwcs9MzzExPMTU5joTPgwd3KRXzTE1NMD09xezMDHPTs8xPz7EwNc+56UXOTZ/j3OR55svnmSkuMJGdoZiYIKsXSSoZTCmBioYiZCQxcHu/vQ9vEFXqum4cWBYT8x4jSWEJYFVVyeXyXLiwzLVrV5mYGEdVlVMRNi/H9312dnb5q7/+a7Yjz9vs7CyJRIJ0OkWtFop1NhtV44rcjgNj4/T+BscXBlyFw4+hUIVDliPjikC4rDSIDxJRSV4GWcZEWGbzNYVO03XGJ8ZZXFzg3PlznD9/nqWlJZaXl7lw4QIXLlxgZWWFS5cucfnyZa5cucK1a9eGmcq++OILfvWrX/Hb3/6W3/72t3zxxRd89tlnXL9+nU8++YRLly6xtLTEwsICU1NTlMtlcrkcqVRqOK1ucMyve+wfEk9Z1k/a1eFFNGqzDtzKciTjqqSiyxqGYmKoCRJ6krSRJm1mySZyZBI5cskC2WSebqPP6t01/s5v/5TJwjT5RIl8okg2USBt5kgZGZJaClNJoisGuqIjS4OpV6fd23KYe/cX+PDCL+QOu7u7fPbZZySTydOLxMTEvGdIkhSWxJQU7J6DLhsYpvHalnWn22Z5eYmbN25y+fJVhJA4PNxn5cIFpmemOT46wjB0isUijXojKvkrs76+TqfTZnZ2jmarie95JFMptre36fV6LCzMh1nEXBfd0NjZ2UFCYvncMpquc+fObXRd58KFFQSwt78fuq09l9XVVYQQXL50lXKpHGZ9fEX6/R5T01Nc/+w6yyvLzC/MsbCwwPz8PHNzc8zOzjIzM8PMzAxTU1NMTEwMLeJisUg+nyeTyZBOp0kkEsNkNIOsl4oSJuMa3JgM2rN4VuT4h84LLesToT4R7CdlO/xfQYrs7uhHaKjCQMOMmoFOAp0khkiRlvOk5BxOM8AQKQxS6CTRSETNRMVAQUMmnCo2uv9w+sGgDY7n7SOiVHa+76Pr+umXY2Ji3mNkWUKOatC/DrIiUy6PcfXqVb74/Atu3LjB5GSYGGR2do6JiQmuXr3KJ9c+QdN0JiYmuPnZTfzA5+69u7TaLa5eucqF5QtMTU7h+z7ra2t02m0uX77M5StXuHTpMqqi8Hj1MYEfsHRuiWKxhGmYzM7OMT09TSaT4crly1y9coVWq8mD+/cQgeDq1U8Zn5hAVp7Z7T8fKXxvmqqiavJwTvXpNkhi9SzxHX38Uzk9netj4ynL+nkMhPHEsh0IaPjs4Pfgszi9PAK6nbB0XaFQYGJi4iUf3Oi2T0T7RWu8LTzPY2tri729PX7zm9+gadrpRWJiYt5HRJhutFlth4N/5qtPVZIkiVQyydjYOKVCCV03kVEwdINSscT42ASFQolyaYyJiSmmJqeYnJymUChSLBSZn5tn6fwS5VKJfL7AxNg4Y2MTzM3Mc/78EuXSGPl8gUK+QLFQZG5ugcWFc2EaT1WjkC8wPT1LsVAkk8lSLJQoFAqUSmUWF85xbuEc2WwWWXo9sW612hiGTqlcQjOVVz4fb5qXWd0fKi+0rJ/H00I9KthP/hs+PPmRJZlkMkk2m2V/f/8FSfRHOZHod0WoIfxCB4Eg8INwulpMTMwHw0mvMwhcfTUURaFYLDM1MUMykUFGRZYU0qkMM9OzFPIlTD3B5Pg0C3OL5HMFCrkiS+eWuHzpCstLy5SKJZKJJLPTs1y+dJXLK5e5sLxCuVjG0Ezy2QLnzy1zaeUKF86vUCyUUBUNXTeYnZljenIGQ0+gyhrl0hjL51e4vHKF84tL5HP5155jPYoUGV0xvwyvJdY/B0mSSCaTFItFqtUq/X7/9CJvBwGBJ7B7Llbbwx4297Wa3w+QPAW36+G0PZy2/8xmP9VedX+D5U6v/2ab1fZwOj6+E82vi4mJ+cnIsvxUtHLoBlaQpDAQVpblKGgqXE5R1FPpOiUURQndy8PnoyJBUvjaYPmTKVjhPkb3LUWBc6oW1ln42CzSDw3p98OkKNnTr71xHMfh/v373Lp1i9/97ncsLi6+1ny/N0HgCxq1JtsbewhvcO/8eirleS47u7scHx3x2WefR9MgTnkZnsepGrKn1xDDXzzj1TfH4CiECJAVmbGpIpOz47ymhywm5sNCQKPaYvPBDjoJ0nFucHZ2dkhnk6xcuoCZ1d6iiRfDSFKUt3raVVWlVCqRyWTY3d3FcZy3HzQQgNW1adaaeJaL8AICT7xWk1CYGp/m6pVrgITvD1Ll+c9oJ2n0giAg8AMCXxD4AuFD4J1uAt8PohZmbzuLFvgBwg/wHY92rU2j2jg1DSQmJiYm5l3hrVrWQgja7TY//PADe3t7/O53v2N6evqtumcCBw53j9l8vEUpV8IwjJ8uUVI42xEGudBfA/HsUfiTQgBny8AP4Do+zVoTM69z+bMVZOXpY4qJ+WiILOuNBzsYsWUNsWX9i/OLWNZSlHx9enoagIcPH2JZVjSB/+wF6gQJJAlZlZFUGUlVkFQFWZVfrynh2JOsKNF40as3RYnyqZ9qSrTNt9FkRUFR5JfPuRz6zE+/EBPzgSFBQDCScGSQSOT0gh8P4TC69MojfTFnw0t66TePqqqMj48zOzvLxsYG9+7dw3Gc04udPZIgkCK7WAIhPZG1/LV+fgphN/Csn7fDK+vv6QVOP46J+cAQ+MPMX+Hjk+JEHzPiY75jeQd462I9sK7Pnz/P2NgYP/zwwxMWdkxMTMwvySA158kTo69+LDxpQAwqIcb8crzVMetRXNfl4OCAH374gXq9zuXLl7l06RLJZPJMx7DDMesKm+ublIplDN2M7hgF0kd4s+A5Ho1qEyOrPnvM+lmn5Ow+npiYX5zKcYXHtzeQXY1EOgGvVCLzzX8pBCLa6mDbr3Icb4awKwz3d3h0SHGswKWrKySz5lm81ZgXMCyR+aoZzN40SlSaLpvN0ul0ePToEZZlUS6XzzSFp/Ch2+7RbDRJJpKoijockPoYr8HAD7D6NqohMzZVQnqVPMivsEhMzPtKEAT0exae5yMI8IWPH7yoeXi+94znf1rzfJdKtcrO9ja2Y6Ooangcz1j2rFogTpokS5TGChRKeRTtl8tg9rEyyGD2i1nWAzzPo1qtcvfuXXZ2dsjn83zyySdMTk5iGMYbTy8XW9ZPElvWMTFP4vsBVsfGt07GrV+OFAa//AyEEPiBT61a5e7de/T6PS5dvMjs3By6pkU5Gn4ZjKSOkdSRfnoCtJifyMCy/sXFmkiw2+02GxsbrK2t4bou4+PjzM3NMT4+PiwyLg1LxZ1UXRFCvJaYPyXWhnHibHpjYj0Y8wrTrUiE0ZSjX/zhET+1y5P1RkNQpcFLb5hYrGNinsPotf+s78GbRIDnBhweHnL//n2azSaLi4ssLS2RzWV++WRFUvy9/6X4RaZuPQ9FUcjlcly6dIlf//rXLCws0Gq1+P777/nbv/1bbt26xfb2Np1O5xVzir8Cgy+fGPx6M9/GIPDp9bvU6zVsuw9CIET4fKfbYXdvh82tDY6OD7FtK5oiEuC6Ds1mg1a7he972LbFceWYaq2K67phGb2YmJi3x0CgpCgU9wyb7dls72/y471bNLt1FpfnOb+ySDqfRFKfXv6tt1iof3F+sTHrUQaubk3TSKfTlEol8vk8hmFgWRZHR0dsbW2xubnJ4eEhruui6zqapr12ulLhQ6/Vo9lokUykUFUV3uC16DgOG+vr3L5zh0QiSS6XRwhBrV7nhx9/4MH9+xwdHbG7vYPneeRyOVRFoVavc/v2bWq1Kvl8nr2Dff7D//w/s7uzzdj4GOlkapgf+E0Sj1nHxPxyCCFwXZft7W3u37+P53ksLy9z/vx5MpkMihL7nT92flLVrbfBIPBsdnaWK1eu8Pnnn/PZZ5+xvLxMIpFgf3+f//yf/zP/7J/9M/75P//n/Pt//++5c+cOR0dHdLtdLMvCcRw8z8P3w3Sfz0u6Iv3MMaZn4fs+1VqVtbU1Wq0mILAsi7W1xzx4cJ9CscD580u4nsft2z9yfHyMEAKr32dnd4e9vT26vS4b62v87Vd/w/c/fM/B4V5ogb/5w42JifkF8X2fnZ0d7t69i+/7rKyscP78edLp9GsbIjEfNu+EZX2aUUs7mUySz+cplUqMj49TLpfJZrMkEgkkSaLdbrO3t8fDhw95+PAha2trbG5usr29ze7uLru7u+zv73N4eMjBwQGH+0dUDio4tkM2m0NR3+ydq+O67O7tsru3y8LiIhMTE7RaTX64/SP1Ro1f/+bXzM7M0m632NrepFQuMjYxRrPdZG19HUmSyOdz3H1wj+PqMZlshlw+x9zcHKqqRcPYb061Y8s6JubtI4TAtm02Nze5d+8ekiSxsrLC/Pz8sG/7mHFdl1u3btFut0kkEiMVyT4+3lnL+llIkoRhGBSLRRYXF7l58yZ/8id/wp/92Z/xu9/9jl/96ld8+umnnD9/fjj1y3EcGo0Gh4eHbG1tsbq6yv3797l/7x6bW5tYtn12miOFAWKDlAK+7+O4NpICuq6hyDK6oeELn3qrTq1Zw/EchAhwPYfd/T3WN9fJFwvoCYPt3W2a7VaUZe0tc2YnKSbm40QIQa/XY3V1ldu3bwNw8eLFWKhH8H2fSqVCpVLh8PAQy7JOL/LR8V6I9SiyLKNpGolEgmKxyNzcHCsrK3z66ad89tlnfPHFF/zqV7/i17/+Nb/+9a/57W9/y29/+1t+85vf8Jvf/IZf/frXXLx4iUQicXYh1iNIgG7oZLMZHNvh+OiYbqdDtVrF9VyOj4/5m7/5G/Z29/ADH8uyWF9b4+jwiEw6gwhgb++AnZ3dNxdc97qM9h1xPxIT85MZFepHjx6RSCS4fPkyc3NzsVCfwjAMyuUyruuyu7tLv98/vchHxTvpBn8Rp6duDVzmg4Luuq5jmiapVIpMJkM2myWXy5HL5SgWixSyBWQh02l3SCWTbzyAw3Vd9vb3uHv3LsdHxxwc7NNqtcLkL70Oq6uP2VjfoFI5Zm5+jrGxMR48eMDjx2sgIJvJUq1WyWRz/Mmf/hn5XI5qrYaqqCydWwrdQW9QMV/ZDS7FQh0T83Pp9/s8evSIx48fk81muXz5MlNTU5imGQv1CJ7nsb+/z/T0NPl8nnq9TqvVJplMomna6cU/aAZu8PdOrAfi/CwGrz3r9cHzIpDotvq0Gi2SZyDWsiRhGmY4xj42TqFQoFQqMTszw+TEJLlMllKpzLnzS1y5fIXpqRmK+XDZlQuXWF66wMz0LJ9c/YSLFy4yMTbB5PgE05PTlIolFPnNzqMQfoDdt1FeJtYxMTE/GSEE/X6fBw8e8PDhQ/L5PJcvX2ZychJd15/ZZ33MeJ7H3t4epVKZfD6PqqpUKhU8zxvm3fhYeGcymL1tAgeOdipsrW9RLpXRdP2NO8KDwMfzvDD5feS6V1QlzFDk+QgEsqyEqU6R8H0P3w+QZRlZlgmCAFmWUBQVIQJ8P0CSwkj5NynUAL7j0aw00bMqlz9fQTqdFCUmJuZn4fs+7XabR48esba2RqFQ4MqVK0xMTHx0VuKrYlkWX375JYVCkVQqze0fb2MYOssXlpmfn3tvjMs3wTuVFOVDQ5YVdN3AMEwMw0TTdGRJQZHV8HndRFM1JElGkiRUVcMwDDRNQ1GU6G80/1uSUVU1ehwLaUzM+4Tv+zQaDe7du8fm5iZjY2N88sknsVC/hMGwZqvZ4tHDR9i2jWGaFPL5j/a8xWJ9pgwGep/XYmJiPlSCIKBer3Pv3j329/eZmpri6tWrjI+Pf7SC86ooisL58+dZPHeO+YV5xifGKZVKJJPJj3b++cf5rmNiYmLOkIFQ3717l4ODA6anp7l48SKlUumjGm/9qciyzMTEBFNTkywtLXHlyhUWFhYwTPP0oh8NsVjHxMTEvEF83+f4+Jhbt25xcHDAzMwMFy5coFAoxEL9ioTDgyqqqmAaOuNjY+RyWRTl45Wsj/edQ1TSLnZHD09DfCpiYn4WrutycHAQ5fmvMT8/z8rKCvl8/o3PPPlokECSnyhC+FHycYs10lnnRHnnGdQbi2avn345JibmFfE8j4ODA+7evUu73ebcuXNcvHgxFuqYN8JHLdahMRn+PPno4/qJiYn5efi+z/7+Pnfu3KHf77O0tMTy8jLZbDYW6pg3wkcq1mEVLj/wCQKfIBCIqI3+/761qDT2azURCIJoPrgQAp5RnSwmJubZCBHm/t/d3eW7776j2+2ytLTEuXPn4hKXMW+Ujy8piis42D3iwd2HqFI0f/lMBkNeRfTe7H5/ytY836fT7qCaEiufLDE2XsaMchTHWZViYp6PEALHcdjZ2eHWrVv4vs/ly5c5d+4cyWQy/v7EvBEGSVE+OrEWAXQ7PWrHNQJXIEnyGRmTg40+b+PvRkSXEIJWq8XuwRaesBmfGGdufp5SqYSu6x/tnMaYmJfR7/fZ2triwYMHCCFYWVlhYWEhLsgR80b5aMWayNMbeAFChHJ5NsFVzxPp07zp/b4mUV3do8ohu3vbHB9XkGWJ2bk5FhYWhnl5Y2JiTrAsi7W1NR49eoSmaVy8eJHp6em4IEfMG2cg1u9dIY+fjRR6vWVFQlbjJqsSmqGSSqcoFIskk0m6vR7b29scHh4CfPTF32NiRun3+zx+/JgHDx5gmiaXLl1iZmYmFuqYM2FQyCP2ccYgSRK6rpPL5Th37hyfffYZV65cQQjBd999x1dffcXe3h6O4wxLlMbEfGwIIeh2uzx48IA7d+4Ma1HPzMxgGEYs1DFnSizWMUMGol0qlbh48SKfffYZ8/PzNBoNvvnmG27dusXh4SG2bceiHfNREQQBrVaLhw8fsra2Ri6X4/Lly0xPT8dCHfNWiMU65ikkScI0Taamprh27RrXr18nl8uxubnJN998w71796jVanied3rVmJgPjkEQ5sOHD9nc3KRYLPLJJ58wPT0dF+SIeWvEYh3zTAa5ebPZLAsLC1y/fp0rV65gGAarq6t8/fXXrK6u0uv1Tq8aE/PBIIQYlrjc3t6mWCxy8eLFYYnL2KKOeVvEYh3zQiRJQtM0CoUCS0tLXL9+neXlZRzH4euvv+av//qv2dvbw3Xd2DUe88HRarW4desW6+vrjI2NcfHiRcrl8tCiFiJMsBQTc9bEYh3zSkiShGEYlMtlVlZWuHnzJgsLC9RqNb766it++OEHKpVKLNoxHwS+71OtVvn+++/Z29tjZmaGS5cuPSHUg8RBsXUd8zaIxTrmtZBlmUQiwfT0NNevX+fmzZtkMhk2Njb45ptvePjwIY1GA8/zIqvj9BZiYt5tfN+nUqnw448/cnR0xLlz57h69SrFYjFOHxrzixGLdcxrMxjPHkz1unHjBisrKwDcv3+fP/zhDzx+/Jhut4uI8o7HxLwPBEHA8fHxsMTl+fPnuXTpEoVCIRbqmF+UWKxjfjKDqV7FYpHl5WWuX7/O4uIitm3z/fff880333BwcIDv+6dXjYl55/B9n4ODA27dukW9XmdxcZHl5WVyuVws1DG/OLFYx/xsBq7xiYkJLl26xPXr15menmZvb4//+l//K99///1wqlcckBPzLuK6Lvv7+/zxj3+kXq+zvLzMhQsXyGazyLIcX7MxvzixWMe8MRRFIZlMMj09zbVr17h58ybZbJaHDx/y1Vdfsbq6SqvVii3tmHcK27bZ2dnhhx9+wLZtLl68yPnz50mlUsPgsTiILOaXJhbrmDeKJEkoikI2m+X8+fN88cUXXLp0iSAIuHfvHt9++y0bGxv0er3Yyo75xbFtm+3tbe7fvz8scbm8vEwqlYorzsW8U8RXY8wbR5IkZFkeTvW6ePEi169fZ2Zmhk6nw/fff88f//jHON94zC+GiKrNbWxscP/+fYQQXLhwgcXFRdLpdDxGHfPOEYt1zJkyGM+enJzkypUrXL9+ncnJSfb29vjbv/1b7t69S7PZjF3jMW+NgVCvrq7yww8/AHDhwgXm5+fjWtQx7yyxWMecOYOpXqlUipmZGT799FNu3LhBMpnkzp07fPnll6yvr9PtdgmCsM54zOsihu1jOH0iqoC1sbHB7u4uvV6Per1OpVLBsqwXemv6/T4PHz7k9u3bmKbJ5cuXmZ2dxTTN2PUd887y8dWzjvnFGLjHdV0nm82Sz+fRNI1Go8He3h7NZhNJkjBN4x2ony2AAPABL/r7Ljdv2KTB/8IFHJAGr51e511uQdSkqJ36dIRgf3+ff/fv/h2rq6tkMhn29vY4ODggk8mQTqdPrwJAt9vl8ePHw3WuXr36RInLX/aai4l5mkE9a+n3v/+9+Iu/+Auy2ezpZWJizhTf9+n3+1SrVfb29jg8PARgamqKxcVFisUiqqrxy/SfFtgtes19fLt2+sV3DokAiQCEAzihd0KENxyyJEA2EGgIVATq6dXfGaTIIPYljUQ6j56ZBjX/lGgHQcDq6ir/8l/+S+r1Or/5zW8gGnb57LPPmJ6eHi7LiCX+8OFDNjY2yGazrKysMDk5ia7rQ0s8FuuYd43NzU3+8i//MhbrmF8WIQS+79Pr9ahUKuzs7HB4eIiqqpw7d46FhQWy2ewvEPDTxmtsU9m9i+pX0XX9mRbeG+VZntsX7FIacX3LwiPwbWy7Rb/XIAgEum4SBA6ea6EZaRLJPKqWAslAIEWjYOEOwsfhfyfbfz6DpSSkFy/4mkiEG+/YPolsifzUDUjMPXGsjIj1f/pP/wnHcSgWi/R6PcrlMr/+9a+ZmZkZLiuEoNPpcPfuXTY2NoZBj2NjY+i6jiRJsVjHvLPEYh3zTjEQ7W63y+HhIY8ePeLw8JDx8XGuXr3K9PT0Wx6qaWFX16jtPSaj+6RSWQRnWLtYPFvzRGRqDsVkIJAEoVhLNsLvYvebdNsVuj0H3UiQzo6jmVkIXHq9Nt3WMVLQI5nOk84W0LQcyClAI0ANtyxJkQwHz75xOMVQsJ914D8ZgQh86q0amqmTm74ByYVIrE/Gkwdi/d/+23+jWCziui4//vgji4uL/L2/9/eYnZ0NtyYE7Xab27dv8/DhQ2ZnZ7l27Vrktfmlh1piYl7OQKzjMeuYd4LR6V65XI5CoYCu68Px7Ha7jaqqGIaBLMtvoZO1CPo1rE6bpG6gmXkkOYMkJZDkt9kMJMVAVkxkxQgfSzoSCoEfYPXadDp17H4PTZHIZifIF+Yw0lOo+jiqnsM0C6QSJoYS4Hk+Vt/GdWUgiaIkkZU0khLtTzGQZHOknT6ekyZH7fTzP7kpiej9aThOH1UN0DMToBaiO4KTz1wIQavVolKpMDY2xuTkJJVKhWQyydLSEul0GiEE9Xqd+/fvs729zfT0NJ988gnlcjkW6pj3hsGYdSzWMe8Ug6QqyWSSUqlELpfD930ODw/Z39+n1+uhqiq6rp+xaNv4/Tr9ThNTlVH1BLzVsd7IbpUiS1fywyAxr4fbr9PrHNLrHOK4FqpmkkyVSKan0FPjSHoWJCM6XhlJVpE1E83MoulZJMXE93xsq4VjtRBeByQHSRZIUgBS8Gwz/9lPvjkGPnARYNkdFEWgZyZBe1qsgWExmcnJSSYmJpiYmGB2dpaxsTEURRkK9cHBAVNTU1y5coVSqXTG101MzJslFuuYdxpJktA0jVQqRT6fJ5VK4TgO+/v7HB4e4vs+hmEMxxxfFSEE/X6fXq+HLMsEQYDjOBClSz3hFxJrKfKHD0QTH4RH4Pbpd+u0m8fYvQYSFqYJyVSORLqEZpSQ1ALICZC08FjFwHUsh8/JSWQ1ga4nMAwVTfUgcHCcDr1+B8uxkAhQlSgqeqCPkhgRypHn3zSvIdaD6yObzZJOpzFNc+iRUVWVWq3G3bt3qVQqTE9Ps7KyMnztda6XmJhfmlisY94LFEXBMAyy2SylUolUKkW73WZzc5NarYaiKJim+cqdsG3bfPPNN/yn//SfUBQFx3F4+PAhkiSRz+dHl3yJWA+V7DXaq+BHVrQL9PHtNt1WhVbjCKvXRtVUUuksiXQJPVlGMfJIShpkLRRlQbiv0+di8FiSQVaRVANFS6HraTQ9hSQruFaPTqeBbbWQhIumCJCjIDYp2u7In6ff36u25yDxymINJ16YgaU8uNk6Pj7m1q1bVCoVFhcXuXDhAvl8/ombsVe5VmJi3gVisY55b5CipCqmaZLNZocW0uHh4TDPuK7rmKb50qhx27b57rvv+Ou//uvhsoeHh2SzWcbHx0c68ROxNjQZ7WeL9SmGL522pF0QNq7Vot04otWo4Ds9DF0jm82QTudQzQySlgU5DRiABgze9yA6+xn7RBoJ1NJANkA2kDUTXddJmSqqAp5v0eu26XfbCN9DkyUkWQ4FczC3arj90b+v0l6AxGuJ9Wk8z+Pg4IAff/yRdrvN0tISFy5cIJfLDZOdSPFc6pj3jIFYx+l6Yt4bJEnCMAzGxsa4cuUKX3zxBbOzs+zt7fHVV19x9+5d6vU6nuedXvUJFEUhnU7jOM4w+1WYOe3JEGghhe3ZRBbna7VnresDNgQdhHOM1d6nUdmmVj3AcRzMRIZcYZpsYRY9NRUKl5wG9BEX96tOnxrsc2R5SQFJByUNeplkZoZ8YYFcfgpVT9Htdjk+3qNV3cbv7oJbA9EBYZ+MpUuDBCan3+/z2ptnUOLyzp079Ho9VlZWWFlZIZvNIkknQh0T874Si3XMe4csyySTSWZnZ7l+/Tqffvop6XSa1dVVvvrqKx4+fEiz2SQIguE6o0IsyzLFYpFyuUy73aZWqz0zN/nL5eW0CL2gDQ1DEVqnwgsFz+/hWHXazX3q1S06rSNE4JBOJSkUSuQL4xjpUhg0JqeBJAgDxGBMelSABu7v54nSs16To20ZQAqUDKpRIJkeI1+YIF8oY5oGntul1dinWdvFah0hnDYIK0rC4p2ItvSM9/5Ee/O4rsvu7i63b9/GsiyWl5c5f/486XQ6sqRjoY55/4nFOua9ZBBglMvlOHfuHNevX2dlZYUgCPjhhx/46quv2NzcfG6e6EQiwcTEBLquD2tsn22HPhBtL7KkG3i9LZq1xzSqG+F4tJohnZsim58llZ1CS5RBTY9Edj9jLHpk06/HQLhPb2/gIjeRtQxGokQ6N00mP4uZnkKg0241qFU26NVX8fv74DfD9zS0rt8eruuytbXF999/T7/fZ2lpiXPnzj1Rizom5kMgHrOOea8ZBBYNooEHyS6Ojo5YX1+n1+uRSqWG1ZQGyVdyuRxLS0vk83mKxSILCwvk8/knxqy9kQCzp8esn8OoBg7Ho0Xk7vYg6NPtVGlWd+i3D5FwSSZMMpkSiVQZVc8iq0mQzcjVrUbj0aet6DfBs7YnRftSwn3LKpKioygGmp7ENAwMQ0ESDna/RrfTwnUsFFlBUbVT73/QnrWfZyARiv0rjlk7jsP6+jrfffcdsizzySefsLCwQDKZjAtyxHwwxAFmMR8MUpRQRdM0kskk+XyebDaL53ns7e2xv7+P53kYhoFhGOTzeaYmpygUCpTLZWZmZoZBayf8VLEeWJaRuSscEBaBU6ff3aVZ38fu1VFUg2R6klRmEiM5hqznT6ZdSaPi/IpCd1ZI0S9JBkkFVUfWkuh6GkXPIik6jmPR7VTxrCqScJClgZdCHll/uLHn84piLYTAsiw2Nja4e/cuuq5z7do15ufn48pZMR8csVjHfJAM3OPpdJpisUgymaTb7bKzs0O1WkUIQTqdJplKoqrqMCva01HkzxHrobU42kYsaCHC8Vvh43sWjtWi1zmm0z7AderoqkI2nSaVHkdPTiAPo7r1EQv6HRFqGDmOwXGp4bHKCRQtjWEYJEwVVfERXgur38WyrDAGQJKQI51/5iZPB8a9glgP5smvr6/z6NEjDMMYlrg0ospZMTEfErFYx3ywDFzjRpS6tFgsomkazWZzWIpzkNr0+fOznyPWT43JDgaMo9KOwiJwWvS7FXrtQ6xeHSFcDCNFKj1OIjWOYpaRtEwYhS0p74govyZh1BbIMpJqoukpNCOLoiYIAh/H7uBYdVy3gwgcVEmEeiuPnr/B+47+vkSsgyCsnDUocZlIJLh48eIwb/yzP8eYmPebeOpWzAePLMuYpsnY2BgXL17k+vXrzM7OUqvV+PLLL/nmm284Pj4eRoKfDkQbGIDDR8OXxala12Fkt281adX2qBxt0m0doUg22axJoZAjkxtDT0wg6WVQCiAlQkv6+XPD3m0E0bFrQAKUHLIxgZkeJ58fo1jIkU7KCK9Ls77H0cEGncYBwu1GCV8GNbajCPLh8MHJDoQQJ+c8qpx179497t+/TyqV4vLly8zMzGCaZizUMR88sWUd88Fz2jWez+dxXZfNzU329/cRQpBMJtG0sKpW2PFHSVHaLRKaMuIGH1jSDgQWBH18p0W7cUyjfoznWiQSJulMkWS6jGoUogQmidCSHrqTPxCGIilFY9RKlGgliapnMIw0qqITBAHdbpNutwHCQlcCJDkSawa+8tAtLhFgWW1kRWBE9aw73R73HzxgfX2dUqnElStXmJycRNO0WKhjPmhiN3jMR8UgCE3XddLp9DB1abfbZXd3l3q9jhQlXVFVFQmboF/H6rRIqDKqbkSCFKYCFV4Pu9+g3azQblXxPZtkIkE2lyeZyaIYuTDRiJQI5zBLUTrQ00ItjbiUT///1Oujy42+/qxlXqc9b/3nPT/ShgcyMqYtqeGNiZxAUnU03cA0dHRdReBi9VpY/Q7Cs8M1ZSUUXIlh4RLLaoVinZ6k1Ve4/+ABW9vblMtlLl++zPj4eCzUMR8FsVjHfLQMxqvz+Tz5fB5ZlqlUKsNSnLIskzYEgdPC6jQwNVB1GYIevl3Hah/T7dSxrB5CSCSSWTLZMRLJArav0+wC6GiqAZKM6/lUqnV29o5otTsgK+iqioSg17dptjr4QiArKu1un3qzDUJgaCqegEarw+7BEfVWB0VR0UdESgDdfp+9w2N29o+pt1ogKbiB4OD4mN39Iyq1Jo7no2k6lu1weFRh/+CQXt9G1XRc3+PouMLu/gHVegPH9RCSRKvTxXZcAiRarTbNdodqrcnewTFHlRqNZnjcru9zdFxh/+CYvm2haiqyrNLp9dk/rFJtdJE1k0Qqh2mm0fUkoGDbLla/g+e0EUEXRbKQlNBzYdstwKfvmdx/fMDO7i7lcjicMTY2NvSCxMR86MRiHfNRI0X5xgdTvQZFPI6Pj9nb28Pp1ZBFD+F1MVQXvB7d5jH9bg3f66OqGolUhlS6gJksoOhhRPeDxzv88YdVNN2kWCzgegEPH6/xt3/7Bx6vb7Kzu0e70yGfy2NoKuub23x36zZeIEhm0nx360f+y1//LSAYLxfp2y7f/XiH//blVzx49BgQlMulULABPwhY39zkr//mK+4/WmdtfZNWu0O33+ebb7/n0eN1dnYP2D84JAgEW9u7/Hj7Dls7u2xub2E7Lt1en6+++SMPHj3mqFLl8LhCp9fnwcNHNJptJFnl1g+32dreodnq8P2Pd7j1w21anR6KqrK2tsatH26zs7fPzu4uvhCYyRQPHz3mr/7ma27dWcV1A0qlMZLJDJpmYugJNN1AkQWB38O2OvS7DTzXQpEFltWm3qzyYL3CfsViemqGCysrlMvlWKhjPipisY6JiaxsXddJpVIUCgXS6TS2bbO7eZ+D3fvgVNCCY2y7B5KCmciTSI1jJotoZg5ZS4Ksg6QS+HD/0Tp37q8yVi4yNTFBrVbnv/zXv+a4UuXGjZsoisrm5g6mrjNWKrCxtcud+w9IpTOoqs5/+au/4etvvyeVTLK4sEDXdvj2u1s0Wy3m5heZm5mmVCygKgoSEAjB5uY2jx5vkCuOEQQBh4eH2I5DrV6nXCqTy+VZ39xgb3+fo+NjUukUly5dptVqsbWzQ7dnsbd/SLFUZm5+gd3dPfZ2D9je2UNVdbLZHPfv3cd2XJYvrNC3+lSrNRYWF1AUhe+/v0UimeDylcs0Gi2Oj6sYhsnjtXX2D46YnJplYW6WcqmIaZhIkowkqSiqgW4k0bU0qhrGBDj9Nv32AbX6IetbazS6KgtLX3Dx4kUKUVR/TMzHRBwNHhMTMQhAy2azLCwscOPGDa7f+JRCIYfVr+P0j9BVj2w2RSqTR0sWo1zdiZGqVyoCGd8XuK6HHwgE0Gx1qDdaFItlLqysMD0zi+14HBwe43oBgQDH9bFsl62dPY5rDcxUmnqrw1GtjqabpFIZqrUGBweHBIMIaREFugnw/YBer0+93qTZbCGEQJIVen2baq3O4dERvb5Fp9fHdl3GJ6c4v7zE5NQUvZ7FcbVGICCbzTM5NY2qGVSqderNNo7nEwQC1wuQkMhms+RyORLJBMlUim6vh+f7zMzMcn7pPKVymWarS6fTJ5fN0+312dvbx3E8JHkwjzwa10YFKYGs5zASBbKZMvlMCpU+rt0ikzH59NpVLl26TD5/OmlNTMzHRSzWMTERA9EuFApcWLnItU9vMjm9iG4W8T3othv02xX8fhX8TpgPW4oimoVAigRUSKFQC6ShQDmuh+cF+EFAQIDl2NRaLXq2g5Bkur0+a+sbNBp1dE1jb3+PxxsbyLLMlUsX+eTKFba3t/nyy6+oN+ojgWUCQUC722H/cJ90Js3nn91ganKCbqfL/QcP+fbWD6iqxvzcLKqi4LkeQRDg+x4CEdWDlpFkBUlSwtShWpgAxvM9XN9HkkHTVDRVQQEUCVRJoCoyvu9hOza+H0TJUAS6rrF0bpHPblyn3WrwN1/+DTt7+/hiUAo0mpeOjfC7uHaNfmefbreJj0IynWd+YZmFc0tkshlkJe6qYj5uYjd4TMwpJElCUjwkv4tweuRSCdKpXCi6tk2/38V2+gQiQJUHgiwg8NnY3uHHe/fpdTs4jo0fCPqWw97uLsfHFXZ3dxEIUqkk6+sbPHr8GElR0HSdw4MDMuk0KysXsOw+sixRyOXY391lc2uLWr1BIZfh8soFMpkUkiTwA8HB4RHVeoNLVz7hT/4X/x1L5+bpdLscV6rMLyxSKpXodTtksyl8z+fg4JCDg312trfIZrKUy2Ps7+1Tr9VpNZu0222mpibQDJV6rUatVqPX7TA/N8viwjzHR0dUK8fMzEwxPlbm4OCA3b3w/R0c7FMslTi3MM/RwQGP19c4Oj7GNHWWL5xjrJhDkQMQLp7Tpdup025XsXsNEDa6aZDO5JFUEzOdJZlfBL2M9EQIfEzMx0M8Zh0T80IsfKuB1W2TNEz0VBlNL4bzrSUZz3Po9xtYvTZS4KApAZLkh5aqomIaGpquUyjkmZ+bIZ1OEwQ++VyGy5dWmJubww8CDNPkwvIyczPTjBXzfPrJFa5dvcj4WImxcomxUglJhGPT09PTfHL5EsViAdu26VsWfctBCCgWCyyfX2R2eoKEoUIgyGbSrCyf5/zCLNlMkunJCebmZsIpVEHA2FiZq1euMDs9ia5paJpGImEyOzvNlcsXmZ2eiKxplfn5GS5eWqZULKDIgmw2zdzMNBPjY+SzWRRFRZJkJifGuXLpEhPjY/i+i+PYlMoFbnxygeVzUyR18OwWndYRrcYRrtNDU2XMZAYzVcJIlZD1HI4XICsqRmYWSSuOzFGLifm4GIi19Pvf/178xV/8Bdls9vQyMTEfMU3s2hq1g01yhkwyVYhqPoeJUITfw3M7dLt9up0esqSRyeaRjSyWp+IFICtaOG9bUbEdH9vxUWUJ0zCQZZW+4+J7PpquoUoSge+jaTKqKmO7Lr4ATVUJXI++7SKQaDXrfPP1Vzx4+IAg8Ekkkty4fpObN2+Sy2XRVAVJEriej+v6Yc5zSeA4bujmlmUc18HzfBRFJWmayEDfdrBdD1mW0DQVw9BA+PT7Np4v0DSZhKmhqipedNy6qqKqGq7r0bMcvCBAUxVMw0BVJVzXxrL6+MLH1AQKDv1ei16nhSILMpkkiUQKRdNBSSGkBBIyCKg39lA1n8z055A8H4t1zEfL5uYmf/mXfxmLdUzMs2ni1NaoH2yRNVQSqUJUbGMkxSguwnWw+j2sfhfHsZBkBd1MkEgk0Q0DSTFBMhBoCKFG7lwACTESMhKOd4fPIgWI8L8ReZIQAmzbolqr0u50EEKgyAqFQoFiPowQF8MMa+GYechgSydzswf/nzwjRcuHqT+H4+/RetJgu1HNkpN1ASFFWVPD9cMjt8I86Z6FZffo97rYloWETCKRJJnKoBsJUAYFTBQQUZUuEYyI9WexWMd81AzEOo7aiIl5EUIaGS+NIpkxwnzYUhpJy5HIlCmUJiiWxkgmDHy7Tau+R7OyRa95gGc3kPweMhYSDhI+kgiQhT9sEgESwYiUCuQoaC1sATIBCVNnZnqSiysXuHjxIheWlxkrlVCjqmGjchbK70BuT1qYa0wgP/G6QCbchyyC4fPhckF0DKeEOjxUkILoPTlIwgK/i2fV6Tb2qFe26TYOkIVDLptmbGyMfGEMPVkAJQskQSRB6CDUULBHhfl9zZ0eE/OGicU6JuY5iEgrwtju00iRsGhhSlE1i5YYI52dJluYJZmeIJCStDsd6sdbtGvrBP1d8MPc2EhuGBX9rBbu+fQOh0ihszgsqDnI+jlc53nrjb7+svYiBkU3ouWED8ID0QWvhtPboVV7QL26Q7/voGppUrlpMvlZUtlpVLMMaia64RlM5SI8n8MUpjExMaeJxTom5nkMRHBUnJ54cSCZWig+UgLUNJpZJJkeI1uYolAokzR1rF6D48N1GsdbON0K+N1w6hdu5FofFenT+xrhCV2N6mcP5lxH6522pE/awJJ+UTu9zrOaiKpleYCD73XotY85PtqgVtlC+B0y6SS5whiZ3ASJVBlVz4OcAskMx/4HVvSo5Tzyb0xMzJPEYh0T81o8LV1PPq+ApCEpCVQtg54YJ5U/R2F8hURuDtvzqVbWqR09wGmvgVcF0YtE+wklPrXfX4rTxxTWm0Z0EfYh3cYa1cO71Kt7IKlkC3Nkihcw07NoZglZSyPJZpQEZeDifjV838d1bBzLxrEdXNfF9/2nSpnGxHwMxFO3YmKeiY1v1bE6TUxVRtOiEpmCZwj1gMFz4ajw0OqWTGTNRDOSJAwFUwsQvkWvW6Pb6xL4PrIkoUjySG3n05WvTu3qrBjuZyCIkRVNAMJD+A621aHd3KfV2Md1OiRNmWy2RDozhp4oIinZ0IJGG3F1nxqLfhYSw/21WlXu3v2Bv/3mAd/f2WR1dZWtrW0qlQqWZREEAZIkhdHuhHPjY2I+ROJ51jExL+Q5Yv1TkSQkSUFWTVQ9g25kULUkQki4Vger38J32oCHLIsnq08O/3kLgiQNRHqQZcyDwCFwOtjdCt32AVbvCAIfM5EmlRkjmZ5EMQtIaioqBaqcKp/5ioyItWW1UVRBYWyJ/NgiyWQKPwio1+vs7OywsbHB8fExvu9jmmZY1jQW7JgPkFisY2JeyBsW66HFHVrakmKgaglMQ8fUZVRZ4Do92u0WPauHED6KLCEPLGsiIR1o4JsSpuH2Rsfm/XA8Wti4dpduqxomMLFa6JogndZIpfMYqRKqkQMlB5IRnZ/ByNrrubzhSbG2nQ6plMn04lUmZi8xMTnF1PQ009PTTExMkEgkqNfrPHr0iFarRTabJZFIxIId88ERi3VMzAt502J9CgmQZFB0JCWFqqcwjBSabhL4Lr1Oi163gfAtVMVHVoIRq3eosKc2+hMYbnMwf9wG0cft1WnW92k1jvE8i0QiSSZXxEwXkY0ikpYLC5lIg3nSUbDYqOv+dY9vRKwtq4OiQio/i5YaxzAMzESCVCpFLpejXC4zNjaGoiisr6/TaDQoFAokk8lYsGM+KOKqWzExL+NM45jkSPxNkDKgZJGMIma6RLE4xli5RCZt0u812N97TO14G9eqQ9AD4YQBaZI/MtXrFXnCkg7HoRE2BBbC7WK1K1T2Nzg63CLw+uSyKcbHSmSLZdRkAbQ8yHkgFR47aijSwWDjo39fk5G3Eer9YCpX+FeSJGRZRlVVEokEY2Nj3Lhxg9/+9re0Wi2+/fZbqtVqHIAW80ESi3VMzHMY1bWnkKTQMn7ldlrAhluPHoZR5MhJ0ApoyQnSuWnypWnSmQKe51OvHtOo7GB3dhF2FfxWOGd7JJnKyxm4ur1wXb9JYB3Qa25TO96gUa8ACtncOPniDKncNLI5ESYwkRIjQWPRcYsTMQUpmpgun0pucrq9nFdZUpZlEokE586dY3l5mePjYzY2NrBt+/Sib4fBqR20mJg3SCzWMTEv4nmd7umO+VXaU+tLJ88LOZp7rINIgJQENYORLJArTFAsjpNJZ0B4tJtH1Co7dBr7eFYDgj5ITpRoJSxR+ZTSDSzpSKSF28HuVGjWdqlVd+h3G+iaTCFfoFiaJJMbQzULoGTCY8EcyTI2EOXhxkek9bQwn24vYeRcSYPHL8EwDM6fP0+5XKZSqdBqhTW9f3HegUOI+XCIxTom5idxWolfpb0OkXhLJpKaRjULJDJTZApzpHOzqHqavmVRq2zRqNzD6WyCXwF6I0lWRvFA9MGtYjUfUzt+RKOxh+sHGMkJ0oV50vk5jNQ4sp4FJTkyHv0ioT39Hl+lvTkGopzJZJiYmMBxHJrNZlhX+13gzb7dmI+YWKxj3iGe7NSf93N6uTPtEYfmnYiydg1Sgg6mNr1qe0Za0Rc1RLjzgcUt6aAkUIwMZqpIrjBGqVwml00igjaVo3WO9x5idw7D1J9YkbVtg2SB16JT3+Zw9yGt2g6a4pLPpygUy2TyExipIpKWAcU8mX417B5Ovfenmv8a7fS6p7czOLfROX/ePULEIJhMVVXy+TyKotDv9wmC0zcrZ8Gpa3AQUX+6nV7umS0m5sXE0eAxb5lnZ9oOnxcEIkAQEEg+Ph6BCP8OWoCHLzz8wEMQLhtmrBTPsP7Cx6effTVs3F6dbrOCrnhoqooQPkI4COGAcJCC8O8rNU7We50mCSdMRhK4EHhIwg3zccuAoiCrOqqWRFVUhOfQa1dwugfgd5FEj8A5ptveoFHbxLFqGIZJKlvGTBXRjDSSYoRyIXyE8KLmjjQHIdynjutsmoskbAhs+lYbFDAyU6C/Wj3rfr/P/v4+pmkyNjaGpmmnF3ltnn+1BgTR9ecLHx8/vC6Fjyd8/CC6TsXINSs8gpEbt5Mbz6cZXLmn9/9zruiY95O4nnXML0IosGEHJKIuz/M8XM/B81xc18FxXFzfwQ08hAiesJKkKLBIlVVURUPTNHTNQNd0NE1HVTWU4RxfeditnZSmfFXaHG78yOrdP1BKyRSL5cjaZOhifmbg2Ut53eMIz1Z4/HLYuUtRNy8xzA0uB31wOzh2Hddu4qMRoAM2smSjqAaGmUTRSkhyDiQVIYXvZzi+K734PD39fk9LyWvyjJUlwnSmfadPppCnMPMZIrk4Uvns+RweHvL1118zNjbGp59+SjKZPL3IazEQUxF93j4Bvu/j+V54rXoOrufgeGEaVD8Ir9UgCBAiei8IZElClqNIdkVFVRSU6NrV1OiaVVQUOSyhGv7I0Xs+OccDoX7RZxTz4RHXs455q5w4sH0EPm7g0O60afc6WK6F41p4gQciQIhI0p/ZJw2KTcihbkkSsiSjyCqaqmHqJulEmlQqg6EmUFBOdX6vis29299w9/u/4dL5SRbm5yM75/nW0KsgMRqY9XIGciExWpEqutmRTspWyvhIwiMIHETg0uvZrK1vomoS587NY5gJJFkBdAT6SMmOky2+ztkJCUXpp/GCvQkIJJlEKoeemUVopVcS66OjI77++mtKpRLXr1//WWI98NoEeNieRbvXpmv1sBwLx3XxfGd44ymECM9DNL0s2sDw05Oijzx8B9Lw5kiSJBRZQVFUNFknYSRJJVOkkmkMObx2R4V6cA5e7zqOed+JxTrmLRF2NwECDx/L7VCtH1Nv1HA9DxQBioSkSiiKhKzI0SygkelOo0oiIssyqicxqDgV+ILA8wncAOEJNM0gly1QypdJmSlUNOTI4g439eIOzw9cbt36lrUHt/jVZ1dYOLcQZfaKxPqnqNTo9KZX5nn7ec54brS41Wrx7R//iKqqfPb5Z6ipVLTAy0Xv1fgZ5wFe4Th0kI1wKptkvsLycHx8zB/+8Aey2SzXr18nk8mcXuQFDDwYAghwhEur26RSO6LdbeEKD2SQVBlZlZEVCUkOvTwhEpIU3RBGHoqTG7uTcxQKeyTuQhAEPr7nI3zAD68NWVIoZIuUC2MkzRRqFOQX3nIObjpffC5iPhxisY45M0a7b0E45tx3e1RbVY5rR9hOL3Rd6waKqiDJMshS+HdYs2KkQxKDjnTwK9qDOPlfCIEIBCII8H0P1/VwHBdd1Sjki5SyJZJ6ClXSUIbBU092eKOPHMfmmz/+gb2dTX733/2KqdnZpzre0+u/mDex3qvTb7X4wx/+AMDnX3xBKpcd2e/r7P95/LTjejWk6PORo6GHkXndL6DRaPDNN98gyzLXr1+nVCqdXuQZhJ9pQBBeqYFNq13nsHZMs9tGkgSGoaNqGpKqhDeTsvKkXEam8+CMhNfp4NXnnKfoJie0skMPhe+HQ0KO4+DaHjIKuUyWsWKZTDqLJqmoaCioT34/Yj5oBmIdB5jFvFHCrm/QQQnswKbWqrJ3vEO1VUFSBIl0AjNpomo6iqogyyqyFHbOUiSkEjKSkJHF4PmwhZbF6RZaNbIcdqaypqBoKoqm4AUe7W6TTreNQKDrGoo86PxPJkOc7vp6vT7raxu4bsDS8mWSyVxo7b0nzXJg76CG7cmMTcyRSOSRJOOp5d7dpo3kGn81UQqCgOPjY9rtNuVy+ZUMkHBgw8cObOrtKnuH2xxW97ADBz1pkEglMRImqqaiqCqyrITXGgoyChLKk9fhC6/T0RauJ0tKWOBFlpEVBUVTUHUVTdeQFIlev0ej1cB2+kgKaJoaVmeL9hXz4ROnG405IwaWikff63FUO2D3eIue3cNMJEgk0+iaiSLrSNKgowulcjAad2KxhC5vaaQ921IZrBsKsCxUFFlD1xKkUhmSqTRe4HFcO+CwdkDX6yJ4/jzcIKru1Gg0SKVSP2vs85dCVVV0XScIAlzXPf3yB4lhGOTzeXq9HvV6Hc/zTi/yFAEebbvF7vEW20ebtK0Oupkgk8mRSoTXqixpSKiROMtIzxnGGLjBw+vwVQid7uFXRgpvTlFRJR1dN0km02RyWTRTo9FpsHW4xX51j47bxiOcDfHs70PMh0gs1jFngMD2LI7rhxzXDxFyQCKdwBiWMlRO0lQOx5FPhHq0vZwn1xhaLmJgsajoukEimURWJerNKke1Q6zAem5H5zgOGxsbdLtd5ufn30uvk6IomKaJ53n0er13I6PXGaMoClNTUyQSCba2tl6SJzy0qLt2h93jbY7qhwRyQDKdxEwmUVUttHpHrOFQUEdvDE9v8nn7egED97kIvwvSwJMkQqtbVTXMZIJEJokn+exX99mv7WF5vWjqWMzHQizWMW8cPwhodhoctw8IlAAzkURVdaTIfXdahk+Cbn5e1zO6nZPtSUA4VUY3EiDL1BoVKtUjPGFHFvbJfj3PY2dnh729Paamppibm3svqzipqkomk0EIQbvdHlqZP/ccv+vk83nOnz/Pzs4O3377Lc1m89R7FlG4o4/t99g72qHarKJqGmYihaoaSNLz3e+vci2cXH+hfo9e2xKnUrVK0TZHNiuN7EdCQkFF1wwSiRSypnBYOeC4foQr7OG0spgPn1isY94oAoHtWDQ7DSy/j2ZqyLIaja+dCHUgBO12h73dPZqNJiIIey8hBN1Ol/29/ZPnow5vlCAIaLVaHBwc0O12CXyfVqvF/v4+nU4HIcLJSQwsIUlGVlQM08AXPrVmjZ7VIYg6O4HAtm22t7e5c+cOqVSKGzdukEqlXqmDfteQJIlsNossy9RqNSzLCs/Je/heXgdFUTh37hxXr15ld3eXr776iv39fRzHeeIaCvCpt2u0uk1UQ8VIJlGV8IbyCR/PEznQn74OB0Ls2A4H+wdUjiu4rjf0HHmux9HhEUeHR9iWHc2/Pll3YKX7nk+tWqVWq+G5Hp7rcXx0TOW4iut4SMioikYymRh6iNq9ZpRkJeZjIA4wi3mj+Hi0ek2qrUqYgUo3USQ1nIM68hMEAft7+zy4/wA5AJDY39vHtmy63R4Hu/u4lke30+Ng/wDf9TBNA1lWQILA96nXahwfHSNEQKPe4Mcff2B9bY10Kk2xVESSBt3uiUBJMgQiwLUdFEVF13TazS67Ozvcu3uPR48eYRgGV65cYWpqCkUZJEJ5/xgIdaVSIZvNks/nP3ixJvIqlEolFEVhb2+PnZ0d6vU6tm0TCB8hgyccjiqH9D0LM5UMs51FU64c26VSrXCwt0+r2YRA0Go2qVaruK5Lo9Fgb28P27KQZZl6tcbG2iY/fPcjzUYTTdNQVJVup8vxwTF/+Oob9vcOSKXStFstjisVJAk0QxtO/XJdl4ODA3q9Pp7rsbu1y4/f/Ui326FQLGCaJrIkoUgSiizT6/bRVI1UMoMqadEV/uF/th8jgwCzWKxj3igDsW6266i6gqrqYWTsSPDNQKyr1Sr7u3v0O322Nrd4+PBhGNhVb3J0cIRjuRwfVbh39x6tVpNSuUgqlRqK9cHeARvrG9QqVR49esTj1cfYts38/Dxj5fKIWA/GEwVh0LmgXqvz4P59Ht5/xOOHa2xvbWHbNjMzM1y+fJnJyUk0TXtvxW1Q+xlgf3+fXq9HuVzGMIz39j29KpIkoWka+XyefD6P7/vs7++zubXJxuYGq6uPeLT+iHa/TSqTwkya0TkJr83KcZWvv/qKu7fvsrO5RbvZ4v79B+zu7tDv9Xj0cJXHjx9TrVRpNps8eviIzbVN9nf26fX6tNstANYer7G9uc3G2kZ0E9plbW2Nra1NHMchk8limuG+XddlY32dylGFxw8fs3p/lb2dPdKZNLNzsyQTSaTIFSrLErZlYxgG2VQOTdaHxx7z4RFHg8ecIYMMZC8fH/U8j4ODQ+q1OtOT0ygo7G7tcHx0TK/Xw+r32d7cZu3xOp129ySGR0jYlsPRwRGb61sIT3Bu/hy5dC6K1j3dcUlR1q4oc5SikEmnmJ6a5MLyEl98/jm/+93vuH79OhMTEx+EqMmyzOTkJEtLSxweHvLdd9/RbDbfUpGLXxZJkkgmk8zNzXHz5k3+zt/5O/zm17/h0sWLzM3NUSqV0Ie5w0WYjCTKduc4Dq7lMTMxQ8JIsbO1z8HuAZqsY3Vt8OHc/DkCT/DD9z/SqDc5t3ieqakpPNejVqnRbrSpVWpYfYt0Oo2maRzs7ZEwTCbKE7SbbVrNJsIPkAQIP6DT7rC9scXaw8cUcnnmZmcxDfPkFjeqEy6hEAQC34/Sm8ZhZh8FsVjHvFEk5DDfsaLi+T5ChF3JaKLOJ7oWAa7j4nsBSTOBKit4jodt2WxubLKzs8PExCSlYinKWDawISQIJHxP4Dk+qqySNJMjc6hPIYEcWU+e62HqOheWL/D5zc/49No1li8sMzk5SSqVQlXV02u/l0iShGEYXLhwgXPnzrG6uspXX33F8fExrutGOax/fmDfu8rAws5kMkxNTbG0tMSVq1e5ceMmN2/eZHJyEoRABP7QjTwICJMlmZSZRlcNfC9AQiGVSKFICrKkkEqkkWUFx3IhkDDNBLquo8gywg+wLZt+t48IBLoefR9cH13VMA2TwA8IPPHktSrAtV2cvo2u6ZiGEeUfCKPQw2UlXM9DCNBUFUVRozndMR86sRs85o0iEPhBQM/uYLm9cAqMHI5Zn3RMAt/3qVarHB9VMbUE/X6fx4/XCAJBJpMNg3SQaLfbNJtNdE1jYmIC0zDDjrBjcXhwSKPWQNd1KpUqGxvrBCJgbmGe8ngZST7pwsL/BIHw6fe6aLLOzOQs2UQeTQ07WUmS33tr+llomkahUMAwDHZ3d1ldXeXw8JBms0mr1aLZbNJut7EsiyAIUJQwSceHwCCobjAsoKoqqqqh6Sq+8Gn3WnjCR1O16GaOMP7h1o/cuX2XRqNBvlAACTKZLLlcnq2tbe4/eIDreIyNlWm3W6w9XqdyfEwymaTT6bC5scHx8TGZTBbP83EcB03TOTg4ZG93l2QqxfjEOKqihi7ydpfdnV0IJIQv2N3d5fDokEwuw+z8LMlUEiEJfOHR6bbRFJWx0hhpMxNl5Ivd4B8q8Zh1zJkgAbIi4wmPntUlEAGqpg5TiSKFiSBcx+Xo8IiDvQM8x8N13XAcL5tBN3Rc1yOby+J57rCjPTg44Pbt2/z4423u3rnL/t4+vu+DFFobAQGJZIJcIU+5XEbXQzdnaDkGBMLHtix8z6OUL1PKj6EOkl18oEI9ECpd1ykUCpRKJVRVpd1us7u7y8bGBuvr66yvr7OxscHu7i6dTgdN0zAM470OsCN6/0/+P/TLoGoKltOn0+sgSWEkuSTJtNsdtja36LTaGAkT3TQQCBzXod+3aHfCGxtNU1E1FcdzcGw7Omc6gQirc5mmgWboBIFPIMKbINd18YIAz3PZ2trkx9u3uf3jbR48eEitVkcEAYos4/keiqpiJEwmJsfJ5TIIKaDb62DbFmPFccr5MXTJGM60iMX6wyQukRlzJogoz3LP7XBY2+e4cYSkSyQTKWRZQ5JkhAhd0fVqlcpRBd/1h+5YXdNCN18QkM5k6HZCwfd9n06nTafTRURlB5OJFNlcFlVVQ3e7EKiqSqFUZGJiHN3Uw2MSgkA42HYPzw3IpQtMlqZIa6FVcjKt7MNGiNCjYds2/X4fy7LwPG+Y5azf71Or1Tg6OkLTNC5fvsz58+cxTfP0pt5rQqd/mA28adXZPdqh2W2iJ1RMI02v22dnY4deux+lw43EUJKQZCl0YQc+sqIgyRJ+4BH4wfB1EeWpRyIalgn3KUkSIggIhMBxbDqdDrbtgABVUUil0qSSSRRFGQ5NqIbK1Owk2VyKvtXBtX2KuTLT5RkyejZKe/pxXL8fK3Ehj5gzYTAy7eNjuT0O6vsc1HZBDjsjTTNDwQ4Ewg8I/CCK1D5hEAClKGEgjRQJjeeHwjJAluXIGhrpqKKpLbIqh5HfURBbr9vE82yKuXEmyjOk9Qwa2ki604+HgRCMnkshBEEQ4DgOlUqFO3fu0Gg0uHnzJhcvXnzvLeynCa9TB4eO1eKofki1eQySjJlIhgIYTSkEooQ+A06ulzCI8vXH/IPAD2MGBnEYkfdIkqObAkkCKRy2cQMXq99BkSXGC1OMFSZJaeH1G1vUHz5xIY+YM2HQcchIaIpOIpFAU3X6/R59q4sQPpISdkbKcAxRDS0YVUJRZVRFQVUVZFUZvqZqYa5rwzDCZhph4I4WLqtoYZMVBUmREXKAJ1z6/Q6ddgMZmanSJJOlGdJ6DiUqmfkxdnSjY7ijTVEUdF0nnU6Ty+WoVCrs7u6SSqWGCVY+HAbXqYyuGqSTaQzFwO736PRaCDxUQ0LVw+tT1WSU6FoNW3jdqWpYMObk+VdrmqZi6Aa6oaGbGrqhoWqD/cig+LiBRaffxrL6pBMZ5sYXGC9MkVTTKKjR1fvxXb8fG/GY9QfGwFp6F8ZdB6OCEjKKpGKaCZLJBMiCfr9P3+rju25oUUuhu1BIAqSRwgSDDIzSs9rgvQ4smwAhidBdHvg4jotl9bCsLkIE5LM5ZsZnKOfGSahpZPS4o3sBsiyTSCRIJpNsbm7SaDTC4L5oTvCHw+AqldFkjZSZIpVKohsKrmfTtUI3deD7BFGZ1mi18Poc/H1yoy9lcBkPBo0EAYEI8HwH13XoWT16/Q6ua5MwE0yMTTBTnqWQKmNICRTU6Np93T3HvI/EYv2B8u51phKKpGBoJslEhnQijaFqBL6PZfXoW30c18EPXPzAD93jgwQmQ2GOcjQOhFmEY4Z+4OP7Hp7nYNsWVr9Hv9fFc20MTSefLjBZnGIsP0XGyKNLJhIqYZLHuKt7EQPBdl2XSqVCIpGgWCx+YNY1Q3c4SMhSmIM7aWbIpvOkEllkScX1PWzLom/1sF0bz7Px/TCuQhAgRDRFMbpWh/kFoqpxw2tW+IjAxw88fN/F811s2x5et3a/TxAIdHVw7U4zWZymmBwjqaZRP9Jhm4+dOMDsA+NdsqyfxYkN4eIJG9vr03d79Kw+7V6XXr+H57qRYR2+h3DcLjRdpCiKXETjrGHO8MG0HFAVlUQiQSqZImGaJPQkhmqiySYKYRY1OSpJGDy3TEPMKEIIDg8P+eMf/0gmk+Gzzz4jnU6fXuw9Z+DNkZ5IO+Hj4eHhBBa2Z2G7Fn07vLnsWT1c2w1vLCN7W5JlGNzIDGMwBldY+FgIESZAGbkZlSUZXddJJhIkEwlMI4mhJ9AVA10yUAjLc8Y3lx8vcYBZzFtnEHw2dP3h44mw+YGL49k4jo3juuFfxyUQ4bJhVxVuQZZkVEXF0HUSRhJdN4aJWFRJDRNXRNmohuUNR+yR011pzPPpdrt8/fXX9Pt9Pv/8c8bHx9/ZG8KfxuBq4IkrIpThJ6/VQPj4wscToRfIdV0c18ZxHVzfi7w8occnHOKJhoOkMEBNURQ0VUNXNTRNQ1d1/v/tndlyG8cVhr/unhnMACBFiJRkWnZkKSUxjuJKdOPYeQHf6ZnyBH4p38SJXY61OBZlWbtIESRAYp+tOxc9Ay62vFTJi6DzoU5RBcwMcNGaf0736f8EQehrNFSAUUHVlvOwz7tk0oKItfAbUwu3l2JHiaPEVi8/vVjdME/Ylvosw+fKfuvK8b7DfiuL8DLIsowbN26wtbXF1atXuXDhwgJWhv8U/Hidj03cifF6/HX0ifCo2Naj1o/TQzGux3A9ugWhphZruasJc9yvaj3pb0q1uBoCDBEhDRokxLRIVJumWqLJ8UhYIqFNgyYhMYawqo712bTw8jDG0Gw2cc75VqSvga/491OPV4MmqMZrg5CYBk0/XmmR0PbjVFVRjdU6Ylo0aBIRY/DT3JrvtpAVhJOIWAu/IfUNsBZtfyM8GV6Mj8fh50cza/8SXh5KKeI4xjnf7/v1FWuOjVUv2ifH63fH6cnwwuynuv249SFVFMKPIWItzJmbMQhChaqaYSjlu1GVZXnyEOFnUM9e/XozWMKiIGItCK8RfuX1eFgHpYOSE+GgcApMg9IZslJROkNx9Nj6XOevY91hffXReN14kRjXD8TyUCz8XESsBeE1wFWblCxQALmFtIBJCsOJZW+Y8aw/4XF3yP3tfb55us/mkwM2H/V5sD1kPw3pDh13n/TYfNTj7uN97j0d8PD5mGd7M3YPcvqjguHUMkkhKysBP/Ldr6twC8LLQKrBBWEBOSmKFkhzx2SWMpmlpLOMLM3J8pIstxRYChzWOawDrAFnAEdRlmRpjtaaqBHOtxMrFFqBVmCUQyuH0YowCIijKuKYpJkQNzShOV5CJbmlIPw4snVLEBaQWqTnU9zAZFKw09tnb39AlllQvmWp0QZjArQJ0EajjG8koXW9wUh7S1ccuKoYUPmrW+dNaWqLV9+UwvkGFaUPV/jWkGhIooC11VOsdZaIox8up3rR+793fu/GRMKriYi1ICwgtUgXDoaTjOc7e3S7fQqniJIWcdImjHwbRlWJr6paO3qzOG/tqlFoR7ULnnnl/vx7KhcuV4m5Q4Gr2kNWP8Ja3wM6zWZk0zF5OqYZB6yfW2Pt9ApJ5DPzoxz/llcLEWvhl0D2WQvCAuLw68Vb3QFfffOE7d0hcavDmXPnWVs7y/LSMkkc0YgCosgQBobQaALlhVMBlCVlkVHa4uTl5ygFWiuMVujqXK3BGE0QaILAEEUhrWaTlZUV1s6e48zZ8zidcO9xl81vn7E3KMgXaCeYFI4JvyQi1oKwIDhglpU83e7yeKuLMw06Z9ZZ7pwhTtoEQYTWCq0cCouiRFehKFFYXJnT3dnm3t1Ner1dnC1QuCNh54Hzoeqo3tdHjvECbgjDBklriZXVcyx3zjJKLfcf77Dbn1C+1nu3BeGnYa5du/bPjz76iDiOT34mCMIrggOstewdjNna2QfT8CIdNzBa+5TZ+VXsLJ3y8P49bt38L71el7LIefDwW27fvMFeb4dv7t7h5s0v0RpGowFff/0Vo9GQINA8efKYW7e+5NmzJwwG+/T7PYo8YzQccLDfZ3jQ53+3b/PgwbcERtFstVDaeKFXvuFFFIUEQYPheEqRTWknEWEUzqfAJTcVhEOOdd36+OOPOXXq1MljBEF4RXBAaS0Pt3o8701oLq3QaC5Va8K+2xPOYcucRw/v89lnn7LX3SGsOj5lWcZsNqPVbjGbTphMp6yuruKcI88KWq027fYS/f4ek8kEay1aaxpxzJUrlymLkl6vhy1LDvYPGE+mvHPxEu9/8A86q2fnrTXrNfXSKgaDEboYcGH9FKudthhuCsL3IGvWgrBwKLQy1ey086Lna578p0pRliXbW1t8+cUXfP75f9i88zV7u7tsb23x7NlTGmHIuXPnWO10SKdTGmHExpUNojDgzh2fYW9cucyb629QFjnj4YAsTUlnM55vP+fWzVv8+1+fcvvmLR49fMhwMDzy+6rfUf3NiwJrbeWLLQjCDyHT4IKwMChKqzkYTBhPpoRhhDbGFz5VImmtZW93l9lsytU/v8t7f3mP9TfWWV9fJ5ulPH36lCxNCYIAHJSlX0+ezaYURY6zlsAYxqNR5RVeopVmcHDAdDKl3WpxZeMKf/3bNS5evMSbb71NkrQOC68clGXJeDxiPBqystTgzOllouBQsiWzFoRD6mlweaQVhAVA4c1JlpcavH1+jWbD0NvrcrDfJ00zrHU4p9AmYP3827x5/g8MBhMGgzGNRowtHVEUc/nyBn/aeJe1tbNcuHCRTuc03d1dWu0l/v7+B7xz4R12dnbY2t6i1W5xZu0M+/sHzNKUixcvcmVjA+cUu7s9tAmJotg3V3FgS8t0OqW312c06LPWiXnrjVWaDd/UVKbABeHFyJq1ICwQFsgdHIwKdnaH9PYHZIUljmPa7TZRGGKdYzIaMhkPaUQhzSQhzTKmkwlxHBM1Qoq8wBhDURbMZjPiRkLSbDKbTel2n7O5uUmSJFy69EfCMMRoQ7PVxGjDeDzBWmgvLRMnTaxTZNmM0XhEluUkccLaaovVTpOl2BCJQgvCCzlmiiJiLQiLQe1aVjpIc5hMS3oHQ553u4wmE8IwptlsEzciwiAkCkOCMAClcQ5vjlIbfCh/QW/2oUBpwFEUOcPhEK007VbLG6wov/faOUee5+RZTpZlTGdTptMpOEtnZZmza6dZajdJEkVowOBDEITvR8RaEBaQup6srrq2DoqqacdwMqPfH7B/MCKdZV6I8dupgigiDCOCMCQIQowxGK3na96gUJVY29JSlOXcWrTMM7I8I88zytIXjeEsgdY0Wwmdzgqd5SWS2PuDB0c8wn/IdlQQBBFrQVhYjhSAz/8977hVQp5DmhakWTaPWZaRZjlFXlKWtce3pXTW+35X11FU3uFao7Ui0IYoDAhDQxiGRHFIFAXEYUQchdWeagj0oTB7W9P6eoIg/BBzsb5+/bq7fv06SZKcPEYQhAWhzrRB49BY34eDsmrGUZQlRWlxFnxi7N/3Xbjqs2v/cIXSGqUUgVY+A6+sR5VR6Gp6WzsvzFTuZ0erWcWWUxB+Gv1+n08++QT14YcfuiRJ5D+PICw4XqwPa65rCXaqMjerMufDdeqq2Va9eH00D1bMT/LZcn2Mw1XT24fifHicIAg/D2staZryf7n/mT1VuVhGAAAAAElFTkSuQmCC;" vertex="1" parent="1">
          <mxGeometry x="420" y="172.57" width="358.86" height="214.87" as="geometry" />
        </mxCell>
        <mxCell id="89SLdfj72g9WCDIySqj1-2" value="fornecedores" style="shape=table;startSize=40;container=1;collapsible=1;childLayout=tableLayout;fixedRows=1;rowLines=0;fontStyle=1;align=center;resizeLast=1;html=1;" vertex="1" parent="1">
          <mxGeometry x="401.14" width="360" height="120" as="geometry">
            <mxRectangle width="80" height="30" as="alternateBounds" />
          </mxGeometry>
        </mxCell>
        <mxCell id="89SLdfj72g9WCDIySqj1-3" value="" style="shape=tableRow;horizontal=0;startSize=0;swimlaneHead=0;swimlaneBody=0;fillColor=none;collapsible=0;dropTarget=0;points=[[0,0.5],[1,0.5]];portConstraint=eastwest;top=0;left=0;right=0;bottom=1;" vertex="1" parent="89SLdfj72g9WCDIySqj1-2">
          <mxGeometry y="40" width="360" height="40" as="geometry" />
        </mxCell>
        <mxCell id="89SLdfj72g9WCDIySqj1-4" value="PK" style="shape=partialRectangle;connectable=0;fillColor=none;top=0;left=0;bottom=0;right=0;fontStyle=1;overflow=hidden;whiteSpace=wrap;html=1;" vertex="1" parent="89SLdfj72g9WCDIySqj1-3">
          <mxGeometry width="40" height="40" as="geometry">
            <mxRectangle width="40" height="40" as="alternateBounds" />
          </mxGeometry>
        </mxCell>
        <mxCell id="89SLdfj72g9WCDIySqj1-5" value="id" style="shape=partialRectangle;connectable=0;fillColor=none;top=0;left=0;bottom=0;right=0;align=left;spacingLeft=6;fontStyle=5;overflow=hidden;whiteSpace=wrap;html=1;" vertex="1" parent="89SLdfj72g9WCDIySqj1-3">
          <mxGeometry x="40" width="80" height="40" as="geometry">
            <mxRectangle width="80" height="40" as="alternateBounds" />
          </mxGeometry>
        </mxCell>
        <mxCell id="89SLdfj72g9WCDIySqj1-19" value="&lt;span style=&quot;background-color: rgb(255, 255, 204);&quot;&gt;INT&lt;/span&gt; &lt;span style=&quot;background-color: rgb(204, 255, 204);&quot;&gt;NOT NULL&lt;/span&gt; &lt;span style=&quot;background-color: rgb(255, 204, 204);&quot;&gt;AUTO_INCREMENT&lt;/span&gt;" style="shape=partialRectangle;connectable=0;fillColor=none;top=0;left=0;bottom=0;right=0;align=left;spacingLeft=6;fontStyle=5;overflow=hidden;whiteSpace=wrap;html=1;" vertex="1" parent="89SLdfj72g9WCDIySqj1-3">
          <mxGeometry x="120" width="240" height="40" as="geometry">
            <mxRectangle width="240" height="40" as="alternateBounds" />
          </mxGeometry>
        </mxCell>
        <mxCell id="89SLdfj72g9WCDIySqj1-6" value="" style="shape=tableRow;horizontal=0;startSize=0;swimlaneHead=0;swimlaneBody=0;fillColor=none;collapsible=0;dropTarget=0;points=[[0,0.5],[1,0.5]];portConstraint=eastwest;top=0;left=0;right=0;bottom=0;" vertex="1" parent="89SLdfj72g9WCDIySqj1-2">
          <mxGeometry y="80" width="360" height="40" as="geometry" />
        </mxCell>
        <mxCell id="89SLdfj72g9WCDIySqj1-7" value="" style="shape=partialRectangle;connectable=0;fillColor=none;top=0;left=0;bottom=0;right=0;editable=1;overflow=hidden;whiteSpace=wrap;html=1;" vertex="1" parent="89SLdfj72g9WCDIySqj1-6">
          <mxGeometry width="40" height="40" as="geometry">
            <mxRectangle width="40" height="40" as="alternateBounds" />
          </mxGeometry>
        </mxCell>
        <mxCell id="89SLdfj72g9WCDIySqj1-8" value="nome" style="shape=partialRectangle;connectable=0;fillColor=none;top=0;left=0;bottom=0;right=0;align=left;spacingLeft=6;overflow=hidden;whiteSpace=wrap;html=1;" vertex="1" parent="89SLdfj72g9WCDIySqj1-6">
          <mxGeometry x="40" width="80" height="40" as="geometry">
            <mxRectangle width="80" height="40" as="alternateBounds" />
          </mxGeometry>
        </mxCell>
        <mxCell id="89SLdfj72g9WCDIySqj1-20" value="VARCHAR(100) NOT NULL" style="shape=partialRectangle;connectable=0;fillColor=none;top=0;left=0;bottom=0;right=0;align=left;spacingLeft=6;overflow=hidden;whiteSpace=wrap;html=1;" vertex="1" parent="89SLdfj72g9WCDIySqj1-6">
          <mxGeometry x="120" width="240" height="40" as="geometry">
            <mxRectangle width="240" height="40" as="alternateBounds" />
          </mxGeometry>
        </mxCell>
        <mxCell id="89SLdfj72g9WCDIySqj1-24" value="produtos" style="shape=table;startSize=40;container=1;collapsible=1;childLayout=tableLayout;fixedRows=1;rowLines=0;fontStyle=1;align=center;resizeLast=1;html=1;" vertex="1" parent="1">
          <mxGeometry x="879" y="160" width="360" height="240" as="geometry">
            <mxRectangle y="160" width="80" height="30" as="alternateBounds" />
          </mxGeometry>
        </mxCell>
        <mxCell id="89SLdfj72g9WCDIySqj1-25" value="" style="shape=tableRow;horizontal=0;startSize=0;swimlaneHead=0;swimlaneBody=0;fillColor=none;collapsible=0;dropTarget=0;points=[[0,0.5],[1,0.5]];portConstraint=eastwest;top=0;left=0;right=0;bottom=1;" vertex="1" parent="89SLdfj72g9WCDIySqj1-24">
          <mxGeometry y="40" width="360" height="40" as="geometry" />
        </mxCell>
        <mxCell id="89SLdfj72g9WCDIySqj1-26" value="PK" style="shape=partialRectangle;connectable=0;fillColor=none;top=0;left=0;bottom=0;right=0;fontStyle=1;overflow=hidden;whiteSpace=wrap;html=1;" vertex="1" parent="89SLdfj72g9WCDIySqj1-25">
          <mxGeometry width="40" height="40" as="geometry">
            <mxRectangle width="40" height="40" as="alternateBounds" />
          </mxGeometry>
        </mxCell>
        <mxCell id="89SLdfj72g9WCDIySqj1-27" value="id" style="shape=partialRectangle;connectable=0;fillColor=none;top=0;left=0;bottom=0;right=0;align=left;spacingLeft=6;fontStyle=5;overflow=hidden;whiteSpace=wrap;html=1;" vertex="1" parent="89SLdfj72g9WCDIySqj1-25">
          <mxGeometry x="40" width="80" height="40" as="geometry">
            <mxRectangle width="80" height="40" as="alternateBounds" />
          </mxGeometry>
        </mxCell>
        <mxCell id="89SLdfj72g9WCDIySqj1-28" value="&lt;span style=&quot;background-color: rgb(255, 255, 204);&quot;&gt;INT&lt;/span&gt; &lt;span style=&quot;background-color: rgb(204, 255, 204);&quot;&gt;NOT NULL&lt;/span&gt; &lt;span style=&quot;background-color: rgb(255, 204, 204);&quot;&gt;AUTO_INCREMENT&lt;/span&gt;" style="shape=partialRectangle;connectable=0;fillColor=none;top=0;left=0;bottom=0;right=0;align=left;spacingLeft=6;fontStyle=5;overflow=hidden;whiteSpace=wrap;html=1;" vertex="1" parent="89SLdfj72g9WCDIySqj1-25">
          <mxGeometry x="120" width="240" height="40" as="geometry">
            <mxRectangle width="240" height="40" as="alternateBounds" />
          </mxGeometry>
        </mxCell>
        <mxCell id="89SLdfj72g9WCDIySqj1-29" value="" style="shape=tableRow;horizontal=0;startSize=0;swimlaneHead=0;swimlaneBody=0;fillColor=none;collapsible=0;dropTarget=0;points=[[0,0.5],[1,0.5]];portConstraint=eastwest;top=0;left=0;right=0;bottom=0;" vertex="1" parent="89SLdfj72g9WCDIySqj1-24">
          <mxGeometry y="80" width="360" height="30" as="geometry" />
        </mxCell>
        <mxCell id="89SLdfj72g9WCDIySqj1-30" value="" style="shape=partialRectangle;connectable=0;fillColor=none;top=0;left=0;bottom=0;right=0;editable=1;overflow=hidden;whiteSpace=wrap;html=1;" vertex="1" parent="89SLdfj72g9WCDIySqj1-29">
          <mxGeometry width="40" height="30" as="geometry">
            <mxRectangle width="40" height="30" as="alternateBounds" />
          </mxGeometry>
        </mxCell>
        <mxCell id="89SLdfj72g9WCDIySqj1-31" value="nome" style="shape=partialRectangle;connectable=0;fillColor=none;top=0;left=0;bottom=0;right=0;align=left;spacingLeft=6;overflow=hidden;whiteSpace=wrap;html=1;spacing=-2;" vertex="1" parent="89SLdfj72g9WCDIySqj1-29">
          <mxGeometry x="40" width="80" height="30" as="geometry">
            <mxRectangle width="80" height="30" as="alternateBounds" />
          </mxGeometry>
        </mxCell>
        <mxCell id="89SLdfj72g9WCDIySqj1-32" value="VARCHAR(100) NOT NULL" style="shape=partialRectangle;connectable=0;fillColor=none;top=0;left=0;bottom=0;right=0;align=left;spacingLeft=6;overflow=hidden;whiteSpace=wrap;html=1;" vertex="1" parent="89SLdfj72g9WCDIySqj1-29">
          <mxGeometry x="120" width="240" height="30" as="geometry">
            <mxRectangle width="240" height="30" as="alternateBounds" />
          </mxGeometry>
        </mxCell>
        <mxCell id="89SLdfj72g9WCDIySqj1-33" value="" style="shape=tableRow;horizontal=0;startSize=0;swimlaneHead=0;swimlaneBody=0;fillColor=none;collapsible=0;dropTarget=0;points=[[0,0.5],[1,0.5]];portConstraint=eastwest;top=0;left=0;right=0;bottom=0;" vertex="1" parent="89SLdfj72g9WCDIySqj1-24">
          <mxGeometry y="110" width="360" height="30" as="geometry" />
        </mxCell>
        <mxCell id="89SLdfj72g9WCDIySqj1-34" value="" style="shape=partialRectangle;connectable=0;fillColor=none;top=0;left=0;bottom=0;right=0;editable=1;overflow=hidden;whiteSpace=wrap;html=1;" vertex="1" parent="89SLdfj72g9WCDIySqj1-33">
          <mxGeometry width="40" height="30" as="geometry">
            <mxRectangle width="40" height="30" as="alternateBounds" />
          </mxGeometry>
        </mxCell>
        <mxCell id="89SLdfj72g9WCDIySqj1-35" value="descricao" style="shape=partialRectangle;connectable=0;fillColor=none;top=0;left=0;bottom=0;right=0;align=left;spacingLeft=6;overflow=hidden;whiteSpace=wrap;html=1;spacing=-2;" vertex="1" parent="89SLdfj72g9WCDIySqj1-33">
          <mxGeometry x="40" width="80" height="30" as="geometry">
            <mxRectangle width="80" height="30" as="alternateBounds" />
          </mxGeometry>
        </mxCell>
        <mxCell id="89SLdfj72g9WCDIySqj1-36" value="TEXT" style="shape=partialRectangle;connectable=0;fillColor=none;top=0;left=0;bottom=0;right=0;align=left;spacingLeft=6;overflow=hidden;whiteSpace=wrap;html=1;" vertex="1" parent="89SLdfj72g9WCDIySqj1-33">
          <mxGeometry x="120" width="240" height="30" as="geometry">
            <mxRectangle width="240" height="30" as="alternateBounds" />
          </mxGeometry>
        </mxCell>
        <mxCell id="89SLdfj72g9WCDIySqj1-37" value="" style="shape=tableRow;horizontal=0;startSize=0;swimlaneHead=0;swimlaneBody=0;fillColor=none;collapsible=0;dropTarget=0;points=[[0,0.5],[1,0.5]];portConstraint=eastwest;top=0;left=0;right=0;bottom=0;" vertex="1" parent="89SLdfj72g9WCDIySqj1-24">
          <mxGeometry y="140" width="360" height="30" as="geometry" />
        </mxCell>
        <mxCell id="89SLdfj72g9WCDIySqj1-38" value="" style="shape=partialRectangle;connectable=0;fillColor=none;top=0;left=0;bottom=0;right=0;editable=1;overflow=hidden;whiteSpace=wrap;html=1;" vertex="1" parent="89SLdfj72g9WCDIySqj1-37">
          <mxGeometry width="40" height="30" as="geometry">
            <mxRectangle width="40" height="30" as="alternateBounds" />
          </mxGeometry>
        </mxCell>
        <mxCell id="89SLdfj72g9WCDIySqj1-39" value="preco" style="shape=partialRectangle;connectable=0;fillColor=none;top=0;left=0;bottom=0;right=0;align=left;spacingLeft=6;overflow=hidden;whiteSpace=wrap;html=1;spacing=-2;" vertex="1" parent="89SLdfj72g9WCDIySqj1-37">
          <mxGeometry x="40" width="80" height="30" as="geometry">
            <mxRectangle width="80" height="30" as="alternateBounds" />
          </mxGeometry>
        </mxCell>
        <mxCell id="89SLdfj72g9WCDIySqj1-40" value="DECIMAL(10,2) NOT NULL" style="shape=partialRectangle;connectable=0;fillColor=none;top=0;left=0;bottom=0;right=0;align=left;spacingLeft=6;overflow=hidden;whiteSpace=wrap;html=1;" vertex="1" parent="89SLdfj72g9WCDIySqj1-37">
          <mxGeometry x="120" width="240" height="30" as="geometry">
            <mxRectangle width="240" height="30" as="alternateBounds" />
          </mxGeometry>
        </mxCell>
        <mxCell id="89SLdfj72g9WCDIySqj1-41" value="" style="shape=tableRow;horizontal=0;startSize=0;swimlaneHead=0;swimlaneBody=0;fillColor=none;collapsible=0;dropTarget=0;points=[[0,0.5],[1,0.5]];portConstraint=eastwest;top=0;left=0;right=0;bottom=0;" vertex="1" parent="89SLdfj72g9WCDIySqj1-24">
          <mxGeometry y="170" width="360" height="30" as="geometry" />
        </mxCell>
        <mxCell id="89SLdfj72g9WCDIySqj1-42" value="" style="shape=partialRectangle;connectable=0;fillColor=none;top=0;left=0;bottom=0;right=0;editable=1;overflow=hidden;whiteSpace=wrap;html=1;" vertex="1" parent="89SLdfj72g9WCDIySqj1-41">
          <mxGeometry width="40" height="30" as="geometry">
            <mxRectangle width="40" height="30" as="alternateBounds" />
          </mxGeometry>
        </mxCell>
        <mxCell id="89SLdfj72g9WCDIySqj1-43" value="quantidade" style="shape=partialRectangle;connectable=0;fillColor=none;top=0;left=0;bottom=0;right=0;align=left;spacingLeft=6;overflow=hidden;whiteSpace=wrap;html=1;spacing=-2;" vertex="1" parent="89SLdfj72g9WCDIySqj1-41">
          <mxGeometry x="40" width="80" height="30" as="geometry">
            <mxRectangle width="80" height="30" as="alternateBounds" />
          </mxGeometry>
        </mxCell>
        <mxCell id="89SLdfj72g9WCDIySqj1-44" value="INT NOT NULL" style="shape=partialRectangle;connectable=0;fillColor=none;top=0;left=0;bottom=0;right=0;align=left;spacingLeft=6;overflow=hidden;whiteSpace=wrap;html=1;" vertex="1" parent="89SLdfj72g9WCDIySqj1-41">
          <mxGeometry x="120" width="240" height="30" as="geometry">
            <mxRectangle width="240" height="30" as="alternateBounds" />
          </mxGeometry>
        </mxCell>
        <mxCell id="89SLdfj72g9WCDIySqj1-49" value="" style="shape=tableRow;horizontal=0;startSize=0;swimlaneHead=0;swimlaneBody=0;fillColor=none;collapsible=0;dropTarget=0;points=[[0,0.5],[1,0.5]];portConstraint=eastwest;top=0;left=0;right=0;bottom=0;" vertex="1" parent="89SLdfj72g9WCDIySqj1-24">
          <mxGeometry y="200" width="360" height="40" as="geometry" />
        </mxCell>
        <mxCell id="89SLdfj72g9WCDIySqj1-50" value="FK" style="shape=partialRectangle;connectable=0;fillColor=none;top=0;left=0;bottom=0;right=0;editable=1;overflow=hidden;whiteSpace=wrap;html=1;" vertex="1" parent="89SLdfj72g9WCDIySqj1-49">
          <mxGeometry width="40" height="40" as="geometry">
            <mxRectangle width="40" height="40" as="alternateBounds" />
          </mxGeometry>
        </mxCell>
        <mxCell id="89SLdfj72g9WCDIySqj1-51" value="fornecedor_id" style="shape=partialRectangle;connectable=0;fillColor=none;top=0;left=0;bottom=0;right=0;align=left;spacingLeft=6;overflow=hidden;whiteSpace=wrap;html=1;spacing=-2;" vertex="1" parent="89SLdfj72g9WCDIySqj1-49">
          <mxGeometry x="40" width="80" height="40" as="geometry">
            <mxRectangle width="80" height="40" as="alternateBounds" />
          </mxGeometry>
        </mxCell>
        <mxCell id="89SLdfj72g9WCDIySqj1-52" value="INT NOT NULL" style="shape=partialRectangle;connectable=0;fillColor=none;top=0;left=0;bottom=0;right=0;align=left;spacingLeft=6;overflow=hidden;whiteSpace=wrap;html=1;" vertex="1" parent="89SLdfj72g9WCDIySqj1-49">
          <mxGeometry x="120" width="240" height="40" as="geometry">
            <mxRectangle width="240" height="40" as="alternateBounds" />
          </mxGeometry>
        </mxCell>
        <mxCell id="89SLdfj72g9WCDIySqj1-53" value="lojas" style="shape=table;startSize=40;container=1;collapsible=1;childLayout=tableLayout;fixedRows=1;rowLines=0;fontStyle=1;align=center;resizeLast=1;html=1;" vertex="1" parent="1">
          <mxGeometry y="161" width="360" height="120" as="geometry">
            <mxRectangle width="80" height="30" as="alternateBounds" />
          </mxGeometry>
        </mxCell>
        <mxCell id="89SLdfj72g9WCDIySqj1-54" value="" style="shape=tableRow;horizontal=0;startSize=0;swimlaneHead=0;swimlaneBody=0;fillColor=none;collapsible=0;dropTarget=0;points=[[0,0.5],[1,0.5]];portConstraint=eastwest;top=0;left=0;right=0;bottom=1;" vertex="1" parent="89SLdfj72g9WCDIySqj1-53">
          <mxGeometry y="40" width="360" height="40" as="geometry" />
        </mxCell>
        <mxCell id="89SLdfj72g9WCDIySqj1-55" value="PK" style="shape=partialRectangle;connectable=0;fillColor=none;top=0;left=0;bottom=0;right=0;fontStyle=1;overflow=hidden;whiteSpace=wrap;html=1;" vertex="1" parent="89SLdfj72g9WCDIySqj1-54">
          <mxGeometry width="40" height="40" as="geometry">
            <mxRectangle width="40" height="40" as="alternateBounds" />
          </mxGeometry>
        </mxCell>
        <mxCell id="89SLdfj72g9WCDIySqj1-56" value="id" style="shape=partialRectangle;connectable=0;fillColor=none;top=0;left=0;bottom=0;right=0;align=left;spacingLeft=6;fontStyle=5;overflow=hidden;whiteSpace=wrap;html=1;" vertex="1" parent="89SLdfj72g9WCDIySqj1-54">
          <mxGeometry x="40" width="80" height="40" as="geometry">
            <mxRectangle width="80" height="40" as="alternateBounds" />
          </mxGeometry>
        </mxCell>
        <mxCell id="89SLdfj72g9WCDIySqj1-57" value="&lt;span style=&quot;background-color: rgb(255, 255, 204);&quot;&gt;INT&lt;/span&gt; &lt;span style=&quot;background-color: rgb(204, 255, 204);&quot;&gt;NOT NULL&lt;/span&gt; &lt;span style=&quot;background-color: rgb(255, 204, 204);&quot;&gt;AUTO_INCREMENT&lt;/span&gt;" style="shape=partialRectangle;connectable=0;fillColor=none;top=0;left=0;bottom=0;right=0;align=left;spacingLeft=6;fontStyle=5;overflow=hidden;whiteSpace=wrap;html=1;" vertex="1" parent="89SLdfj72g9WCDIySqj1-54">
          <mxGeometry x="120" width="240" height="40" as="geometry">
            <mxRectangle width="240" height="40" as="alternateBounds" />
          </mxGeometry>
        </mxCell>
        <mxCell id="89SLdfj72g9WCDIySqj1-58" value="" style="shape=tableRow;horizontal=0;startSize=0;swimlaneHead=0;swimlaneBody=0;fillColor=none;collapsible=0;dropTarget=0;points=[[0,0.5],[1,0.5]];portConstraint=eastwest;top=0;left=0;right=0;bottom=0;" vertex="1" parent="89SLdfj72g9WCDIySqj1-53">
          <mxGeometry y="80" width="360" height="40" as="geometry" />
        </mxCell>
        <mxCell id="89SLdfj72g9WCDIySqj1-59" value="" style="shape=partialRectangle;connectable=0;fillColor=none;top=0;left=0;bottom=0;right=0;editable=1;overflow=hidden;whiteSpace=wrap;html=1;" vertex="1" parent="89SLdfj72g9WCDIySqj1-58">
          <mxGeometry width="40" height="40" as="geometry">
            <mxRectangle width="40" height="40" as="alternateBounds" />
          </mxGeometry>
        </mxCell>
        <mxCell id="89SLdfj72g9WCDIySqj1-60" value="nome" style="shape=partialRectangle;connectable=0;fillColor=none;top=0;left=0;bottom=0;right=0;align=left;spacingLeft=6;overflow=hidden;whiteSpace=wrap;html=1;" vertex="1" parent="89SLdfj72g9WCDIySqj1-58">
          <mxGeometry x="40" width="80" height="40" as="geometry">
            <mxRectangle width="80" height="40" as="alternateBounds" />
          </mxGeometry>
        </mxCell>
        <mxCell id="89SLdfj72g9WCDIySqj1-61" value="VARCHAR(100) NOT NULL" style="shape=partialRectangle;connectable=0;fillColor=none;top=0;left=0;bottom=0;right=0;align=left;spacingLeft=6;overflow=hidden;whiteSpace=wrap;html=1;" vertex="1" parent="89SLdfj72g9WCDIySqj1-58">
          <mxGeometry x="120" width="240" height="40" as="geometry">
            <mxRectangle width="240" height="40" as="alternateBounds" />
          </mxGeometry>
        </mxCell>
        <mxCell id="89SLdfj72g9WCDIySqj1-62" value="lojas_produtos" style="shape=table;startSize=40;container=1;collapsible=1;childLayout=tableLayout;fixedRows=1;rowLines=0;fontStyle=1;align=center;resizeLast=1;html=1;whiteSpace=wrap;" vertex="1" parent="1">
          <mxGeometry x="401" y="441" width="358.86" height="160" as="geometry" />
        </mxCell>
        <mxCell id="89SLdfj72g9WCDIySqj1-63" value="" style="shape=tableRow;horizontal=0;startSize=0;swimlaneHead=0;swimlaneBody=0;fillColor=none;collapsible=0;dropTarget=0;points=[[0,0.5],[1,0.5]];portConstraint=eastwest;top=0;left=0;right=0;bottom=0;html=1;" vertex="1" parent="89SLdfj72g9WCDIySqj1-62">
          <mxGeometry y="40" width="358.86" height="30" as="geometry" />
        </mxCell>
        <mxCell id="89SLdfj72g9WCDIySqj1-64" value="PK,FK1" style="shape=partialRectangle;connectable=0;fillColor=none;top=0;left=0;bottom=0;right=0;fontStyle=1;overflow=hidden;html=1;whiteSpace=wrap;" vertex="1" parent="89SLdfj72g9WCDIySqj1-63">
          <mxGeometry width="60" height="30" as="geometry">
            <mxRectangle width="60" height="30" as="alternateBounds" />
          </mxGeometry>
        </mxCell>
        <mxCell id="89SLdfj72g9WCDIySqj1-65" value="loja_id" style="shape=partialRectangle;connectable=0;fillColor=none;top=0;left=0;bottom=0;right=0;align=left;spacingLeft=6;fontStyle=5;overflow=hidden;html=1;whiteSpace=wrap;" vertex="1" parent="89SLdfj72g9WCDIySqj1-63">
          <mxGeometry x="60" width="139.18000000000006" height="30" as="geometry">
            <mxRectangle width="139.18000000000006" height="30" as="alternateBounds" />
          </mxGeometry>
        </mxCell>
        <mxCell id="89SLdfj72g9WCDIySqj1-75" value="INT NOT NULL" style="shape=partialRectangle;connectable=0;fillColor=none;top=0;left=0;bottom=0;right=0;align=left;spacingLeft=6;fontStyle=5;overflow=hidden;html=1;whiteSpace=wrap;" vertex="1" parent="89SLdfj72g9WCDIySqj1-63">
          <mxGeometry x="199.18000000000006" width="159.67999999999995" height="30" as="geometry">
            <mxRectangle width="159.67999999999995" height="30" as="alternateBounds" />
          </mxGeometry>
        </mxCell>
        <mxCell id="89SLdfj72g9WCDIySqj1-66" value="" style="shape=tableRow;horizontal=0;startSize=0;swimlaneHead=0;swimlaneBody=0;fillColor=none;collapsible=0;dropTarget=0;points=[[0,0.5],[1,0.5]];portConstraint=eastwest;top=0;left=0;right=0;bottom=1;html=1;" vertex="1" parent="89SLdfj72g9WCDIySqj1-62">
          <mxGeometry y="70" width="358.86" height="50" as="geometry" />
        </mxCell>
        <mxCell id="89SLdfj72g9WCDIySqj1-67" value="PK,FK2" style="shape=partialRectangle;connectable=0;fillColor=none;top=0;left=0;bottom=0;right=0;fontStyle=1;overflow=hidden;html=1;whiteSpace=wrap;" vertex="1" parent="89SLdfj72g9WCDIySqj1-66">
          <mxGeometry width="60" height="50" as="geometry">
            <mxRectangle width="60" height="50" as="alternateBounds" />
          </mxGeometry>
        </mxCell>
        <mxCell id="89SLdfj72g9WCDIySqj1-68" value="produto_id" style="shape=partialRectangle;connectable=0;fillColor=none;top=0;left=0;bottom=0;right=0;align=left;spacingLeft=6;fontStyle=5;overflow=hidden;html=1;whiteSpace=wrap;" vertex="1" parent="89SLdfj72g9WCDIySqj1-66">
          <mxGeometry x="60" width="139.18000000000006" height="50" as="geometry">
            <mxRectangle width="139.18000000000006" height="50" as="alternateBounds" />
          </mxGeometry>
        </mxCell>
        <mxCell id="89SLdfj72g9WCDIySqj1-76" value="INT NOT NULL" style="shape=partialRectangle;connectable=0;fillColor=none;top=0;left=0;bottom=0;right=0;align=left;spacingLeft=6;fontStyle=5;overflow=hidden;html=1;whiteSpace=wrap;" vertex="1" parent="89SLdfj72g9WCDIySqj1-66">
          <mxGeometry x="199.18000000000006" width="159.67999999999995" height="50" as="geometry">
            <mxRectangle width="159.67999999999995" height="50" as="alternateBounds" />
          </mxGeometry>
        </mxCell>
        <mxCell id="89SLdfj72g9WCDIySqj1-69" value="" style="shape=tableRow;horizontal=0;startSize=0;swimlaneHead=0;swimlaneBody=0;fillColor=none;collapsible=0;dropTarget=0;points=[[0,0.5],[1,0.5]];portConstraint=eastwest;top=0;left=0;right=0;bottom=0;html=1;" vertex="1" parent="89SLdfj72g9WCDIySqj1-62">
          <mxGeometry y="120" width="358.86" height="40" as="geometry" />
        </mxCell>
        <mxCell id="89SLdfj72g9WCDIySqj1-70" value="" style="shape=partialRectangle;connectable=0;fillColor=none;top=0;left=0;bottom=0;right=0;editable=1;overflow=hidden;html=1;whiteSpace=wrap;" vertex="1" parent="89SLdfj72g9WCDIySqj1-69">
          <mxGeometry width="60" height="40" as="geometry">
            <mxRectangle width="60" height="40" as="alternateBounds" />
          </mxGeometry>
        </mxCell>
        <mxCell id="89SLdfj72g9WCDIySqj1-71" value="estoque" style="shape=partialRectangle;connectable=0;fillColor=none;top=0;left=0;bottom=0;right=0;align=left;spacingLeft=6;overflow=hidden;html=1;whiteSpace=wrap;" vertex="1" parent="89SLdfj72g9WCDIySqj1-69">
          <mxGeometry x="60" width="139.18000000000006" height="40" as="geometry">
            <mxRectangle width="139.18000000000006" height="40" as="alternateBounds" />
          </mxGeometry>
        </mxCell>
        <mxCell id="89SLdfj72g9WCDIySqj1-77" value="INT NOT NULL" style="shape=partialRectangle;connectable=0;fillColor=none;top=0;left=0;bottom=0;right=0;align=left;spacingLeft=6;overflow=hidden;html=1;whiteSpace=wrap;" vertex="1" parent="89SLdfj72g9WCDIySqj1-69">
          <mxGeometry x="199.18000000000006" width="159.67999999999995" height="40" as="geometry">
            <mxRectangle width="159.67999999999995" height="40" as="alternateBounds" />
          </mxGeometry>
        </mxCell>
        <mxCell id="89SLdfj72g9WCDIySqj1-79" value="" style="edgeStyle=entityRelationEdgeStyle;fontSize=12;html=1;endArrow=ERoneToMany;rounded=0;entryX=0;entryY=0.5;entryDx=0;entryDy=0;" edge="1" parent="1" target="89SLdfj72g9WCDIySqj1-49">
          <mxGeometry width="100" height="100" relative="1" as="geometry">
            <mxPoint x="760" y="60" as="sourcePoint" />
            <mxPoint x="798.86" y="380" as="targetPoint" />
            <Array as="points">
              <mxPoint x="820" y="140" />
              <mxPoint x="760" y="140" />
              <mxPoint x="790" y="300" />
            </Array>
          </mxGeometry>
        </mxCell>
        <mxCell id="89SLdfj72g9WCDIySqj1-80" value="" style="edgeStyle=entityRelationEdgeStyle;fontSize=12;html=1;endArrow=ERoneToMany;rounded=0;entryX=1;entryY=0.5;entryDx=0;entryDy=0;exitX=0;exitY=0.5;exitDx=0;exitDy=0;" edge="1" parent="1" source="89SLdfj72g9WCDIySqj1-25" target="89SLdfj72g9WCDIySqj1-66">
          <mxGeometry width="100" height="100" relative="1" as="geometry">
            <mxPoint x="690" y="190" as="sourcePoint" />
            <mxPoint x="728.86" y="510" as="targetPoint" />
            <Array as="points">
              <mxPoint x="750" y="270" />
              <mxPoint x="690" y="270" />
              <mxPoint x="720" y="430" />
            </Array>
          </mxGeometry>
        </mxCell>
        <mxCell id="89SLdfj72g9WCDIySqj1-82" value="" style="edgeStyle=entityRelationEdgeStyle;fontSize=12;html=1;endArrow=ERoneToMany;rounded=0;exitX=1;exitY=0.5;exitDx=0;exitDy=0;entryX=0;entryY=0.5;entryDx=0;entryDy=0;" edge="1" parent="1" target="89SLdfj72g9WCDIySqj1-63">
          <mxGeometry width="100" height="100" relative="1" as="geometry">
            <mxPoint x="360" y="221" as="sourcePoint" />
            <mxPoint x="380" y="520" as="targetPoint" />
            <Array as="points">
              <mxPoint x="390" y="230" />
              <mxPoint x="330" y="360" />
              <mxPoint x="470" y="280" />
              <mxPoint x="330" y="230" />
              <mxPoint x="170" y="280" />
              <mxPoint x="360" y="390" />
            </Array>
          </mxGeometry>
        </mxCell>
      </root>
    </mxGraphModel>
  </diagram>
</mxfile>
